<svg width="266" height="161" viewBox="0 0 266 161" fill="none" xmlns="http://www.w3.org/2000/svg">
<g clip-path="url(#clip0_403_133)">
<path d="M43.6526 25.9062C36.5916 29.1577 26.2522 22.1539 26 21.9037C29.2783 28.9066 35.835 30.4079 33.3132 42.6638C32.5567 45.6652 29.127 51.268 31.548 59.672C32.3045 62.1732 38.8612 67.926 47.9397 67.926C54.8011 67.926 62.1458 70.7416 65.0879 73.1786C66.7691 75.6798 63.3226 81.9328 55.2529 78.4311C46.4266 73.1786 41.1308 70.4272 36.0872 69.4268C32.0523 68.6264 33.9493 73.2409 35.835 76.18C37.6003 78.9314 37.8525 80.182 43.9048 90.687C45.1657 92.688 53.2354 94.7671 65.0879 89.4364C71.8968 84.434 85.2623 88.6861 74.9229 95.6895C74.1664 96.9401 50.2093 92.7998 47.9397 97.9406C46.2097 101.859 49.9165 109.309 51.7224 111.697C53.992 114.699 57.6738 119.951 67.3575 116.95C77.0412 113.948 84.7579 105.944 88.2885 102.943C89.8015 101.942 93.0799 100.742 94.0886 103.943C95.0973 107.145 86.0188 112.864 81.4796 115.449C77.9491 117.2 69.8793 115.449 68.6184 119.951C68.1141 126.955 84.2536 135.209 100.645 132.457C115.272 127.955 116.68 122.41 117.037 121.702C118.046 119.701 119.307 109.696 117.541 107.195C116.028 103.943 115.524 100.708 115.776 100.291C116.028 99.7906 118.55 101.942 121.576 103.943C123.594 104.944 127.881 105.694 130.907 105.444C134.174 105.174 145.533 101.942 149.82 86.1849C153.25 73.5788 148.391 62.9236 145.533 59.1718C144.02 57.6711 140.893 55.9202 140.49 60.9226C139.985 67.1757 134.185 79.4316 130.907 79.6817C127.629 79.9318 126.395 79.0682 126.115 77.6807C125.863 76.4301 127.629 72.8451 128.889 70.9275C128.721 71.3443 130.15 69.5768 137.211 59.1718C144.525 48.6667 134.69 28.8602 123.341 28.1568C119.307 27.9066 120.483 31.7418 121.072 33.6594C123.594 39.9125 126.267 54.6696 116.785 63.674C113.591 65.1747 107.959 65.3748 110.985 56.1703C111.741 52.4185 118.298 44.1645 116.785 31.6585C113.254 19.4025 94.3408 17.4016 91.5668 16.9014C88.7928 16.4012 88.4694 18.6572 88.5406 19.152C88.7928 20.9033 90.8103 23.9047 91.819 25.1553C92.6644 26.2035 96.6104 33.2429 98.3757 36.9115C100.477 43.2477 102.612 55.5199 94.3408 53.9187C91.819 53.1684 87.6328 49.3665 91.0624 40.1621C94.0886 35.4098 92.5755 20.9033 76.6882 16.9014C73.4098 15.6508 65.8444 15.1503 69.375 19.152C74.4186 24.1543 81.6813 35.31 76.436 43.9149C76.436 44.4151 72.1489 46.6662 73.4098 36.9115C75.1751 25.9062 66.3488 18.1515 58.279 19.9027C55.9758 20.4026 50.7136 22.6546 43.6526 25.9062Z" fill="#69A02E" stroke="#F5F3F3"/>
<path d="M41.5328 34.7451C35.7581 29.7866 26.2505 22.2499 26 22C29.2569 28.9968 35.7707 30.4968 33.2654 42.7421C32.5138 45.7409 29.1066 51.3388 31.5116 59.7356C32.2632 62.2346 38.777 67.9824 47.7961 67.9824C54.6126 67.9824 61.9092 70.7955 64.8321 73.2304C66.5023 75.7294 63.0784 81.9771 55.0614 78.4784C46.2929 73.2304 41.0318 70.4814 36.0212 69.4818C32.0127 68.6821 33.8972 73.2927 35.7707 76.2292C37.5244 78.9782 37.7749 80.2277 43.7876 90.7237C45.0402 92.7229 53.0572 94.8002 64.8321 89.4742C71.5964 84.4761 84.8744 88.7245 74.6027 95.7218C73.8511 96.9713 50.0508 92.8346 47.7961 97.9709C46.0775 101.886 49.76 109.33 51.554 111.716C53.8088 114.715 57.4665 119.963 67.0868 116.964C76.7072 113.965 84.3734 105.968 87.8808 102.969C89.384 101.969 92.6408 100.77 93.643 103.969C94.6451 107.167 85.626 112.882 81.1165 115.464C77.6091 117.214 69.5921 115.464 68.3395 119.963C67.8384 126.96 83.8723 135.207 100.157 132.458C114.687 127.959 116.267 122.483 116.441 121.712C119.949 106.218 116.441 107.217 116.441 106.218C115.439 97.721 104.165 84.4761 69.0911 57.9862C55.919 48.038 58.8194 49.5886 41.5328 34.7451Z" fill="black" fill-opacity="0.28"/>
<g filter="url(#filter0_d_403_133)">
<path d="M30 24.7736C62.6579 48.8091 68.2868 58.5734 67.5261 57.3215C68.7939 47.5571 66.5119 34.2875 61.6943 27.5275C64.2299 29.7808 67.2725 36.0401 67.2725 36.0401C69.301 39.7956 69.301 48.5586 70.3152 58.323C70.8223 59.8252 82.4859 68.8385 83.2465 66.0845C84.2607 55.5689 83.2465 35.0386 81.7252 32.2845C78.6825 26.7764 76.7313 25.0039 76.147 24.5231C74.6256 23.2712 77.1361 24.4983 78.429 25.7749C81.4716 28.7794 83.9242 29.9141 85.275 44.0519C86.5427 57.3215 85.0214 62.8297 86.0356 68.0874C86.393 69.9399 86.9742 70.5164 87.8105 71.3422C89.5854 73.0948 97.6992 80.8563 98.2063 79.6044C98.612 78.603 98.454 73.5064 99.4741 71.5926C102.01 66.8356 104.596 57.7722 104.799 54.5675C105.052 50.5615 103.526 41.2735 103.277 40.046C102.77 37.5423 100.995 31.7838 102.01 31.7838C103.024 31.7838 104.799 42.049 105.559 43.5512C106.32 45.0534 106.574 52.5645 106.574 53.8163C106.574 55.8193 102.768 69.2224 102.517 70.0904C102.01 71.843 100.995 77.8948 100.995 78.603C100.995 79.6044 101.249 84.6118 103.024 84.1111C104.799 83.6104 116.462 73.5956 118.491 71.5926C119.456 70.6392 125.429 62.0318 126.097 58.0726C126.604 55.0682 127.112 46.5556 127.619 47.5571V54.5675C127.619 56.0697 126.097 65.083 121.533 70.0904C117.448 74.5722 107.588 85.6133 107.334 86.1141C106.925 86.9215 106.827 91.8726 108.349 91.3718C109.87 90.8711 116.163 88.3866 117.984 87.6163C119.758 86.8652 125.083 85.8637 127.872 84.6118C131.168 82.8593 136.747 78.1022 138.014 76.3496C139.733 73.9737 141.311 67.8371 141.564 66.5852C141.818 65.3334 141.844 68.3089 141.564 71.3422C141.311 74.0963 142.071 73.8459 138.014 79.3541C133.775 85.1097 123.815 88.3674 122.294 88.6178C121.044 88.8236 111.645 92.874 111.645 93.3748C111.645 93.8755 113.807 95.3777 114.941 95.3777C116.209 95.3777 128.113 95.568 129.14 95.3777C133.197 94.6266 137.339 92.1503 137.761 91.8726C138.522 91.3718 141.818 88.6178 142.071 88.6178C142.578 88.6178 141.818 90.6207 140.804 91.8726C140.012 92.8501 139.536 93.6252 137 94.877C134.465 96.1289 132.69 96.3792 130.661 96.88C128.633 97.3807 127.365 97.6311 126.351 97.6311H121.28H116.716C116.107 97.6311 116.853 98.3822 117.984 99.8844C129.985 115.825 153.988 154.215 150.692 155.967C149.932 156.218 148.917 154.966 148.664 154.465C143.677 142.364 124.83 108.397 117.223 102.138C110.69 96.7617 113.673 99.1333 112.912 110.4C112.49 115.074 111.898 117.41 102.77 124.421C101.792 125.172 98.0641 125.827 98.967 125.172C101.841 123.085 107.414 118.32 108.349 116.659C110.884 112.153 109.363 103.39 111.138 98.3822C111.859 96.346 109.363 94.3763 109.109 94.877C106.236 97.6311 100.742 104.641 99.7276 111.401C99.9812 116.409 76.147 123.821 76.147 122.918C76.147 122.167 77.6683 121.833 78.1754 121.667C84.0917 119.747 96.2286 114.256 97.4456 107.646C98.6627 101.036 106.574 93.6252 106.32 93.3748C106.32 92.3733 104.292 89.4189 103.277 88.6178C102.263 87.8166 91.0222 96.3792 85.5285 100.886C82.8604 103.075 75.7413 107.195 59.9194 106.394C52.2114 104.792 53.8341 103.39 55.609 103.89C63.2157 105.893 72.4307 104.174 73.865 103.89C78.9361 102.889 88.5712 94.3763 92.3745 91.8726C97.6992 88.3674 100.995 87.1155 100.235 86.6148L93.1352 81.8578C91.3603 80.3556 79.6968 80.1052 77.1612 80.8563C76.147 81.1567 67.6384 84.3615 60.4265 84.3615C57.1303 84.3615 48.5095 81.1067 47.2417 80.1052C45.55 78.7689 42.1706 79.1037 40.9028 78.8533L40.3957 78.603V78.1022L40.9028 77.8519H43.1848L45.2132 78.1022C48.0023 79.0202 53.3786 81.4075 54.5948 81.8578C56.6232 82.6089 65.9606 82.7395 66.5119 82.6089C72.8508 81.1067 72.485 78.5709 76.9076 78.3526C81.3568 78.1329 88.5384 77.5278 90.5756 78.059C87.3053 75.6566 70.2618 61.0771 69.301 61.0771C68.0332 61.0771 54.0877 63.6482 47.2417 61.8282C45.6932 61.4165 36.5676 54.0874 35.071 52.3141C32.5355 49.3097 34.2281 50.0608 34.8175 50.5615C38.4518 53.6494 47.2417 59.8252 48.2559 60.0756C49.6902 60.4297 65.4977 60.0756 63.7228 57.0712C61.9479 54.0667 30 25.7751 30 24.7736Z" fill="#194224"/>
</g>
<ellipse cx="55.8593" cy="33.7645" rx="6.06818" ry="4.01109" transform="rotate(70.1321 55.8593 33.7645)" fill="white" fill-opacity="0.45"/>
<ellipse cx="49.0645" cy="51.6905" rx="4.36252" ry="3.45704" transform="rotate(38.2662 49.0645 51.6905)" fill="white" fill-opacity="0.45"/>
<ellipse cx="77.0906" cy="50.6919" rx="4.05172" ry="2.93732" transform="rotate(97.9115 77.0906 50.6919)" fill="white" fill-opacity="0.45"/>
<ellipse cx="94.3516" cy="63.4471" rx="5.52927" ry="3.50454" transform="rotate(91.5959 94.3516 63.4471)" fill="white" fill-opacity="0.45"/>
<ellipse cx="73.4142" cy="71.9897" rx="4.72483" ry="3.50454" transform="rotate(178.544 73.4142 71.9897)" fill="white" fill-opacity="0.45"/>
<ellipse cx="96.4089" cy="95.4352" rx="3.08815" ry="2.29057" transform="rotate(162.937 96.4089 95.4352)" fill="white" fill-opacity="0.45"/>
<ellipse cx="106.342" cy="74.2102" rx="3.08815" ry="2.29057" transform="rotate(122.741 106.342 74.2102)" fill="white" fill-opacity="0.45"/>
<ellipse cx="113.803" cy="67.8385" rx="2.44357" ry="1.81246" transform="rotate(137.527 113.803 67.8385)" fill="white" fill-opacity="0.45"/>
<ellipse cx="132.512" cy="49.6168" rx="3.7533" ry="2.78393" transform="rotate(105 132.512 49.6168)" fill="white" fill-opacity="0.45"/>
<ellipse cx="132.621" cy="88.4711" rx="3.7533" ry="2.78393" transform="rotate(167.412 132.621 88.4711)" fill="white" fill-opacity="0.45"/>
<ellipse cx="105.04" cy="109.163" rx="3.7533" ry="2.78393" transform="rotate(120.532 105.04 109.163)" fill="white" fill-opacity="0.45"/>
<ellipse cx="88.287" cy="124.889" rx="3.7533" ry="2.78393" transform="rotate(171.612 88.287 124.889)" fill="white" fill-opacity="0.45"/>
<ellipse cx="110.703" cy="33.3067" rx="2.88654" ry="2.14103" transform="rotate(83.8998 110.703 33.3067)" fill="white" fill-opacity="0.45"/>
<path d="M212.489 26.9062C219.493 30.1577 229.75 23.1539 230 22.9037C226.748 29.9066 220.244 31.4079 222.745 43.6638C223.496 46.6652 226.898 52.268 224.496 60.672C223.746 63.1732 217.242 68.926 208.236 68.926C201.429 68.926 194.143 71.7416 191.225 74.1786C189.557 76.6798 192.976 82.9328 200.981 79.4311C209.737 74.1786 214.99 71.4272 219.993 70.4268C223.996 69.6264 222.114 74.2409 220.244 77.18C218.493 79.9314 218.242 81.182 212.238 91.687C210.988 93.688 202.982 95.7671 191.225 90.4364C184.47 85.434 171.212 89.6861 181.468 96.6895C182.219 97.9401 205.984 93.7998 208.236 98.9406C209.952 102.859 206.275 110.309 204.483 112.697C202.232 115.699 198.58 120.951 188.973 117.95C179.367 114.948 171.712 106.944 168.21 103.943C166.709 102.942 163.457 101.742 162.456 104.943C161.455 108.145 170.461 113.864 174.964 116.449C178.467 118.2 186.472 116.449 187.723 120.951C188.223 127.955 172.212 136.209 155.952 133.457C141.442 128.955 140.045 123.41 139.691 122.702C138.691 120.701 137.44 110.696 139.191 108.195C140.692 104.943 141.192 101.708 140.942 101.291C140.692 100.791 138.19 102.942 135.188 104.943C133.187 105.944 128.934 106.694 125.932 106.444C122.691 106.174 111.423 102.942 107.17 87.1849C103.768 74.5788 108.588 63.9236 111.423 60.1718C112.924 58.6711 116.026 56.9202 116.426 61.9226C116.927 68.1757 122.68 80.4316 125.932 80.6817C129.184 80.9318 130.408 80.0682 130.685 78.6807C130.936 77.4301 129.184 73.8451 127.934 71.9275C128.1 72.3443 126.683 70.5768 119.678 60.1718C112.424 49.6667 122.18 29.8602 133.437 29.1568C137.44 28.9066 136.272 32.7418 135.689 34.6594C133.187 40.9125 130.535 55.6696 139.941 64.674C143.11 66.1747 148.697 66.3748 145.695 57.1703C144.945 53.4185 138.44 45.1645 139.941 32.6585C143.444 20.4025 162.206 18.4016 164.958 17.9014C167.71 17.4012 168.03 19.6572 167.96 20.152C167.71 21.9033 165.708 24.9047 164.708 26.1553C163.869 27.2035 159.954 34.2429 158.203 37.9115C156.119 44.2477 154.001 56.5199 162.206 54.9187C164.708 54.1684 168.86 50.3665 165.458 41.1621C162.456 36.4098 163.957 21.9033 179.717 17.9014C182.969 16.6508 190.474 16.1503 186.972 20.152C181.969 25.1543 174.764 36.31 179.967 44.9149C179.967 45.4151 184.22 47.6662 182.969 37.9115C181.218 26.9062 189.974 19.1515 197.979 20.9027C200.264 21.4026 205.484 23.6546 212.489 26.9062Z" fill="#69A02E" stroke="#F5F3F3"/>
<path d="M214.467 35.7451C220.242 30.7866 229.749 23.2499 230 23C226.743 29.9968 220.229 31.4968 222.735 43.7421C223.486 46.7409 226.893 52.3388 224.488 60.7356C223.737 63.2346 217.223 68.9824 208.204 68.9824C201.387 68.9824 194.091 71.7955 191.168 74.2304C189.498 76.7294 192.922 82.9771 200.939 79.4784C209.707 74.2304 214.968 71.4814 219.979 70.4818C223.987 69.6821 222.103 74.2927 220.229 77.2292C218.476 79.9782 218.225 81.2277 212.212 91.7237C210.96 93.7229 202.943 95.8002 191.168 90.4742C184.404 85.4761 171.126 89.7245 181.397 96.7218C182.149 97.9713 205.949 93.8346 208.204 98.9709C209.923 102.886 206.24 110.33 204.446 112.716C202.191 115.715 198.533 120.963 188.913 117.964C179.293 114.965 171.627 106.968 168.119 103.969C166.616 102.969 163.359 101.77 162.357 104.969C161.355 108.167 170.374 113.882 174.884 116.464C178.391 118.214 186.408 116.464 187.661 120.963C188.162 127.96 172.128 136.207 155.843 133.458C141.313 128.959 139.733 123.483 139.559 122.712C136.051 107.218 139.559 108.217 139.559 107.218C140.561 98.721 151.835 85.4761 186.909 58.9862C200.081 49.038 197.181 50.5886 214.467 35.7451Z" fill="black" fill-opacity="0.28"/>
<path d="M226 25.7795C193.612 49.9971 188.03 59.8353 188.784 58.574C187.527 48.7356 189.79 35.3654 194.568 28.5542C192.053 30.8246 189.035 37.1313 189.035 37.1313C187.024 40.9153 187.024 49.7446 186.018 59.583C185.515 61.0966 173.948 70.1782 173.194 67.4033C172.188 56.8081 173.194 36.1222 174.702 33.3473C177.72 27.7974 179.655 26.0115 180.234 25.527C181.743 24.2657 179.253 25.5021 177.971 26.7884C174.954 29.8156 172.521 30.9589 171.182 45.2038C169.925 58.574 171.433 64.1238 170.427 69.4214C170.073 71.288 169.497 71.8688 168.667 72.7009C166.907 74.4668 158.86 82.287 158.357 81.0257C157.955 80.0166 158.112 74.8814 157.1 72.9532C154.586 68.1601 152.021 59.028 151.819 55.799C151.568 51.7628 153.082 42.4044 153.328 41.1676C153.831 38.6449 155.591 32.8428 154.586 32.8428C153.58 32.8428 151.819 43.1857 151.065 44.6993C150.311 46.2129 150.059 53.7809 150.059 55.0422C150.059 57.0604 153.834 70.565 154.083 71.4396C154.586 73.2054 155.591 79.3031 155.591 80.0166C155.591 81.0257 155.34 86.071 153.58 85.5665C151.819 85.062 140.252 74.9713 138.241 72.9532C137.283 71.9926 131.36 63.3199 130.697 59.3308C130.194 56.3036 129.691 47.7265 129.188 48.7356V55.799C129.188 57.3126 130.697 66.3942 135.223 71.4396C139.274 75.9554 149.053 87.0801 149.305 87.5846C149.71 88.3982 149.808 93.3868 148.299 92.8822C146.79 92.3777 140.549 89.8744 138.744 89.0982C136.983 88.3414 131.703 87.3324 128.937 86.071C125.668 84.3052 120.136 79.5121 118.878 77.7462C117.174 75.3523 115.609 69.1692 115.358 67.9078C115.106 66.6465 115.081 69.6445 115.358 72.7009C115.609 75.4758 114.855 75.2236 118.878 80.7734C123.082 86.5727 132.96 89.855 134.469 90.1073C135.709 90.3147 145.03 94.3958 145.03 94.9004C145.03 95.4049 142.886 96.9185 141.761 96.9185C140.504 96.9185 128.698 97.1102 127.679 96.9185C123.656 96.1617 119.548 93.6666 119.13 93.3868C118.375 92.8822 115.106 90.1073 114.855 90.1073C114.352 90.1073 115.106 92.1254 116.112 93.3868C116.898 94.3717 117.369 95.1526 119.884 96.414C122.399 97.6753 124.159 97.9276 126.171 98.4321C128.182 98.9366 129.44 99.1889 130.445 99.1889H135.475H140.001C140.604 99.1889 139.865 99.9457 138.744 101.459C126.841 117.52 103.036 156.201 106.305 157.967C107.06 158.219 108.065 156.958 108.317 156.453C113.262 144.261 131.954 110.036 139.498 103.73C145.977 98.3129 143.018 100.702 143.773 112.054C144.192 116.763 144.779 119.118 153.831 126.181C154.801 126.938 158.498 127.599 157.603 126.938C154.753 124.836 149.226 120.035 148.299 118.361C145.784 113.82 147.293 104.991 145.533 99.9457C144.817 97.8941 147.293 95.9094 147.545 96.414C150.395 99.1889 155.843 106.252 156.849 113.064C156.597 118.109 180.234 125.577 180.234 124.668C180.234 123.911 178.726 123.575 178.223 123.406C172.355 121.472 160.319 115.939 159.112 109.28C157.905 102.62 150.059 95.1526 150.311 94.9004C150.311 93.8913 152.322 90.9145 153.328 90.1073C154.334 89.3 165.482 97.9276 170.93 102.468C173.576 104.674 180.637 108.825 196.328 108.018C203.972 106.404 202.363 104.991 200.603 105.496C193.059 107.514 183.92 105.781 182.498 105.496C177.468 104.486 167.913 95.9094 164.141 93.3868C158.86 89.855 155.591 88.5937 156.346 88.0892L163.387 83.2961C165.147 81.7825 176.714 81.5302 179.229 82.287C180.234 82.5897 188.673 85.8188 195.825 85.8188C199.094 85.8188 207.644 82.5393 208.901 81.5302C210.578 80.1838 213.93 80.5212 215.187 80.2689L215.69 80.0166V79.5121L215.187 79.2598H212.924L210.912 79.5121C208.146 80.4371 202.815 82.8424 201.608 83.2961C199.597 84.0529 190.337 84.1845 189.79 84.0529C183.503 82.5393 183.866 79.9844 179.48 79.7644C175.068 79.543 167.945 78.9333 165.925 79.4686C169.168 77.048 186.071 62.358 187.024 62.358C188.281 62.358 202.111 64.9485 208.901 63.1148C210.437 62.7 219.487 55.3153 220.971 53.5286C223.485 50.5014 221.807 51.2582 221.222 51.7628C217.618 54.8741 208.901 61.0966 207.895 61.3489C206.473 61.7057 190.796 61.3489 192.556 58.3217C194.316 55.2945 226 26.7885 226 25.7795Z" fill="#194224"/>
<ellipse rx="6.06818" ry="4.01109" transform="matrix(-0.339853 0.940479 0.940479 0.339853 200.373 34.9139)" fill="white" fill-opacity="0.45"/>
<ellipse rx="4.36252" ry="3.45704" transform="matrix(-0.785142 0.619316 0.619316 0.785142 207.169 52.8399)" fill="white" fill-opacity="0.45"/>
<ellipse rx="4.05172" ry="2.93732" transform="matrix(0.137644 0.990482 0.990482 -0.137644 179.143 51.8413)" fill="white" fill-opacity="0.45"/>
<ellipse rx="5.52927" ry="3.50454" transform="matrix(0.0278499 0.999612 0.999612 -0.0278499 161.882 64.5965)" fill="white" fill-opacity="0.45"/>
<ellipse rx="4.72483" ry="3.50454" transform="matrix(0.999677 0.0254084 0.0254084 -0.999677 182.818 73.1391)" fill="white" fill-opacity="0.45"/>
<ellipse rx="3.08815" ry="2.29057" transform="matrix(0.955982 0.293425 0.293425 -0.955982 159.825 96.5836)" fill="white" fill-opacity="0.45"/>
<ellipse rx="3.08816" ry="2.29057" transform="matrix(0.540847 0.841121 0.841121 -0.540847 149.892 75.3596)" fill="white" fill-opacity="0.45"/>
<ellipse rx="2.44357" ry="1.81246" transform="matrix(0.737595 0.675243 0.675243 -0.737595 142.43 68.9879)" fill="white" fill-opacity="0.45"/>
<ellipse rx="3.7533" ry="2.78393" transform="matrix(0.258819 0.965926 0.965926 -0.258819 123.72 50.7662)" fill="white" fill-opacity="0.45"/>
<ellipse rx="3.7533" ry="2.78393" transform="matrix(0.975964 0.217931 0.217931 -0.975964 123.613 89.6205)" fill="white" fill-opacity="0.45"/>
<ellipse rx="3.7533" ry="2.78393" transform="matrix(0.508025 0.861342 0.861342 -0.508025 151.193 110.313)" fill="white" fill-opacity="0.45"/>
<ellipse rx="3.7533" ry="2.78393" transform="matrix(0.989302 0.145882 0.145882 -0.989302 167.946 126.038)" fill="white" fill-opacity="0.45"/>
<ellipse rx="2.88654" ry="2.14103" transform="matrix(-0.106267 0.994338 0.994338 0.106267 145.53 34.4551)" fill="white" fill-opacity="0.45"/>
<path d="M180.181 87.1871C180.181 102.131 162.719 96.489 152.012 93.0292C143.887 90.4039 139.652 89.0354 149.886 98.8712C159.785 104.856 55 125.155 55 98.8712C55 72.5872 138.166 49 169.892 49C201.619 49 208.475 111.125 180.181 87.1871Z" fill="#644026"/>
<path d="M180.181 87.1871C180.181 102.131 162.719 96.489 152.012 93.0292C143.887 90.4039 139.652 89.0354 149.886 98.8712C159.785 104.856 55 125.155 55 98.8712C55 72.5872 138.166 49 169.892 49C201.619 49 208.475 111.125 180.181 87.1871Z" stroke="#F5F5F5"/>
<path d="M196.5 77.3886C196.5 85.1632 196.344 91.7508 195.674 97.2649C195.004 102.781 193.825 107.182 191.803 110.604C187.798 117.385 180.371 120.5 166.343 120.5C152.319 120.5 134.562 117.384 120.329 110.41C106.091 103.432 95.5 92.6635 95.5 77.3886C95.5 69.6327 96.9322 65.4241 99.3359 63.3347C101.726 61.2572 105.243 61.1329 109.842 62.0268C112.773 62.5964 116.044 63.5562 119.625 64.6069C121.658 65.2033 123.791 65.8291 126.018 66.4294C132.136 68.0786 138.894 69.5119 146 69.5119C153.106 69.5119 159.864 68.0786 165.982 66.4294C168.209 65.8291 170.342 65.2033 172.375 64.6069C175.956 63.5562 179.227 62.5964 182.158 62.0268C186.757 61.1329 190.274 61.2572 192.664 63.3347C195.068 65.4241 196.5 69.6327 196.5 77.3886Z" fill="#D2D0B9" stroke="#F5F5F5"/>
<path d="M150.266 97.3864C147.724 98.2952 153.663 99.8664 155.103 99.5124C156.543 99.1584 157.028 102.394 155.482 96.1045C154.742 93.0928 152.114 87.9784 145.872 85.2721C139.63 82.5658 136.176 77.2534 134.939 77.4009C134.376 77.4681 137.664 81.768 140.359 84.3015C143.053 86.835 152.808 96.4777 150.266 97.3864Z" fill="#4C7321"/>
<path d="M157.64 95.6198C160.267 95.0298 156.104 99.5296 154.702 99.9998C157.771 96.6925 154.62 103.464 152.561 97.3226C151.575 94.3821 151.056 88.6566 154.868 83.0353C158.68 77.414 158.751 71.0795 159.871 70.5435C160.382 70.2992 159.91 75.6891 158.994 79.2697C158.077 82.8502 155.013 96.2097 157.64 95.6198Z" fill="#4C7321"/>
<path d="M157.418 94.1009C156.673 96.0042 155.179 97.6455 154.163 97.2479C153.148 96.8503 153.454 95.1792 153.74 92.6612C155.163 89.0253 160.749 82.0807 165.929 79.6156C171.109 77.1505 170.557 75.2235 171.95 75.0761C173.344 74.9287 167.688 81.6258 165.027 83.8037C162.366 85.9817 158.488 91.3661 157.418 94.1009Z" fill="#69A02E"/>
<path d="M146.588 94.0081C147.192 100.058 147.923 98.1051 150.914 99.5094C153.905 100.914 154.284 98.9314 153.623 93.9364C151.454 77.535 145.956 82.0081 140.94 71.2113C137.949 69.8069 150.692 90.3953 146.588 94.0081Z" fill="#69A02E"/>
<path d="M165.194 96.5904C164.82 104.98 161.113 111.483 151.295 111.045C142.158 110.637 138.367 103.719 138.738 95.4096C138.717 89.7548 144.101 91.5896 152.251 92.6781C159.557 93.0042 165.745 90.3813 165.194 96.5904Z" fill="#644026"/>
<path d="M171.094 75.8672C170.838 76.1262 170.674 76.3794 170.728 76.4326C170.782 76.4858 171.033 76.319 171.289 76.0599C171.545 75.8008 171.708 75.5477 171.654 75.4945C171.6 75.4412 171.349 75.6081 171.094 75.8672Z" fill="#9AC967"/>
<path d="M155 110C156.166 108.556 161.704 101.044 164.619 97C166.076 98.7333 163.453 109.711 155 110Z" fill="black" fill-opacity="0.37"/>
<path d="M167 79C163.095 83 155.286 91 155 91C155.857 88.9 161.571 81.1 167 79L167 79Z" fill="#F5F5F5" fill-opacity="0.2"/>
<path d="M148.667 81C148.111 83.3684 147 88.2105 147 88.6316L147.333 91L151 83.3684L150 82.3158L148.667 81Z" fill="#F5F5F5" fill-opacity="0.2"/>
<path d="M139.319 101.537C139.353 101.251 142.185 93.9892 142.961 91.477L146.5 91.7706L146.501 91.77L146.501 91.7706L146.5 91.7706L140.181 104.122L139.319 101.537Z" fill="#F5F5F5" fill-opacity="0.2"/>
<path d="M127.255 67.0672C120.914 78.22 105.576 99.6602 105.424 100.964L114.616 107.858L142.192 69.6528L127.255 67.0672Z" fill="#F5F5F5" fill-opacity="0.2"/>
</g>
<defs>
<filter id="filter0_d_403_133" x="26" y="24" width="129" height="140" filterUnits="userSpaceOnUse" color-interpolation-filters="sRGB">
<feFlood flood-opacity="0" result="BackgroundImageFix"/>
<feColorMatrix in="SourceAlpha" type="matrix" values="0 0 0 0 0 0 0 0 0 0 0 0 0 0 0 0 0 0 127 0" result="hardAlpha"/>
<feOffset dy="4"/>
<feGaussianBlur stdDeviation="2"/>
<feComposite in2="hardAlpha" operator="out"/>
<feColorMatrix type="matrix" values="0 0 0 0 0 0 0 0 0 0 0 0 0 0 0 0 0 0 0.25 0"/>
<feBlend mode="normal" in2="BackgroundImageFix" result="effect1_dropShadow_403_133"/>
<feBlend mode="normal" in="SourceGraphic" in2="effect1_dropShadow_403_133" result="shape"/>
</filter>
<clipPath id="clip0_403_133">
<rect width="266" height="161" fill="white"/>
</clipPath>
</defs>
</svg>
