<svg width="266" height="161" viewBox="0 0 266 161" fill="none" xmlns="http://www.w3.org/2000/svg">
<g clip-path="url(#clip0_403_133)">
<path d="M48.6526 28.9062C41.5916 32.1577 31.2522 25.1539 31 24.9037C34.2783 31.9066 40.835 33.4079 38.3132 45.6638C37.5567 48.6652 34.127 54.268 36.548 62.672C37.3045 65.1732 43.8612 70.926 52.9397 70.926C59.8011 70.926 67.1458 73.7416 70.0879 76.1786C71.7691 78.6798 68.3226 84.9328 60.2529 81.4311C51.4266 76.1786 46.1308 73.4272 41.0872 72.4268C37.0523 71.6264 38.9493 76.2409 40.835 79.18C42.6003 81.9314 42.8525 83.182 48.9048 93.687C50.1657 95.688 58.2354 97.7671 70.0879 92.4364C76.8968 87.434 90.2623 91.6861 79.9229 98.6895C79.1664 99.9401 55.2093 95.7998 52.9397 100.941C51.2097 104.859 54.9165 112.309 56.7224 114.697C58.992 117.699 62.6738 122.951 72.3575 119.95C82.0412 116.948 89.7579 108.944 93.2885 105.943C94.8015 104.942 98.0799 103.742 99.0886 106.943C100.097 110.145 91.0188 115.864 86.4796 118.449C82.9491 120.2 74.8793 118.449 73.6184 122.951C73.1141 129.955 89.2536 138.209 105.645 135.457C120.272 130.955 121.68 125.41 122.037 124.702C123.046 122.701 124.307 112.696 122.541 110.195C121.028 106.943 120.524 103.708 120.776 103.291C121.028 102.791 123.55 104.942 126.576 106.943C128.594 107.944 132.881 108.694 135.907 108.444C139.174 108.174 150.533 104.942 154.82 89.1849C158.25 76.5788 153.391 65.9236 150.533 62.1718C149.02 60.6711 145.893 58.9202 145.49 63.9226C144.985 70.1757 139.185 82.4316 135.907 82.6817C132.629 82.9318 131.395 82.0682 131.115 80.6807C130.863 79.4301 132.629 75.8451 133.889 73.9275C133.721 74.3443 135.15 72.5768 142.211 62.1718C149.525 51.6667 139.69 31.8602 128.341 31.1568C124.307 30.9066 125.483 34.7418 126.072 36.6594C128.594 42.9125 131.267 57.6696 121.785 66.674C118.591 68.1747 112.959 68.3748 115.985 59.1703C116.741 55.4185 123.298 47.1645 121.785 34.6585C118.254 22.4025 99.3408 20.4016 96.5668 19.9014C93.7928 19.4012 93.4694 21.6572 93.5406 22.152C93.7928 23.9033 95.8103 26.9047 96.819 28.1553C97.6644 29.2035 101.61 36.2429 103.376 39.9115C105.477 46.2477 107.612 58.5199 99.3408 56.9187C96.819 56.1684 92.6328 52.3665 96.0624 43.1621C99.0886 38.4098 97.5755 23.9033 81.6882 19.9014C78.4098 18.6508 70.8444 18.1503 74.375 22.152C79.4186 27.1543 86.6813 38.31 81.436 46.9149C81.436 47.4151 77.1489 49.6662 78.4098 39.9115C80.1751 28.9062 71.3488 21.1515 63.279 22.9027C60.9758 23.4026 55.7136 25.6546 48.6526 28.9062Z" fill="#69A02E" stroke="#4B7121"/>
<path d="M46.5328 37.7451C40.7581 32.7866 31.2505 25.2499 31 25C34.2569 31.9968 40.7707 33.4968 38.2654 45.7421C37.5138 48.7409 34.1066 54.3388 36.5116 62.7356C37.2632 65.2346 43.777 70.9824 52.7961 70.9824C59.6126 70.9824 66.9092 73.7955 69.8321 76.2304C71.5023 78.7294 68.0784 84.9771 60.0614 81.4784C51.2929 76.2304 46.0318 73.4814 41.0212 72.4818C37.0127 71.6821 38.8972 76.2927 40.7707 79.2292C42.5244 81.9782 42.7749 83.2277 48.7876 93.7237C50.0402 95.7229 58.0572 97.8002 69.8321 92.4742C76.5964 87.4761 89.8744 91.7245 79.6027 98.7218C78.8511 99.9713 55.0508 95.8346 52.7961 100.971C51.0775 104.886 54.76 112.33 56.554 114.716C58.8088 117.715 62.4665 122.963 72.0868 119.964C81.7072 116.965 89.3734 108.968 92.8808 105.969C94.384 104.969 97.6408 103.77 98.643 106.969C99.6451 110.167 90.626 115.882 86.1165 118.464C82.6091 120.214 74.5921 118.464 73.3395 122.963C72.8384 129.96 88.8723 138.207 105.157 135.458C119.687 130.959 121.267 125.483 121.441 124.712C124.949 109.218 121.441 110.217 121.441 109.218C120.439 100.721 109.165 87.4761 74.0911 60.9862C60.919 51.038 63.8194 52.5886 46.5328 37.7451Z" fill="black" fill-opacity="0.28"/>
<g filter="url(#filter0_d_403_133)">
<path d="M35 27.7736C67.6579 51.8091 73.2868 61.5734 72.5261 60.3215C73.7939 50.5571 71.5119 37.2875 66.6943 30.5275C69.2299 32.7808 72.2725 39.0401 72.2725 39.0401C74.301 42.7956 74.301 51.5586 75.3152 61.323C75.8223 62.8252 87.4859 71.8385 88.2465 69.0845C89.2607 58.5689 88.2465 38.0386 86.7252 35.2845C83.6825 29.7764 81.7313 28.0039 81.147 27.5231C79.6256 26.2712 82.1361 27.4983 83.429 28.7749C86.4716 31.7794 88.9242 32.9141 90.275 47.0519C91.5427 60.3215 90.0214 65.8297 91.0356 71.0874C91.393 72.9399 91.9742 73.5164 92.8105 74.3422C94.5854 76.0948 102.699 83.8563 103.206 82.6044C103.612 81.603 103.454 76.5064 104.474 74.5926C107.01 69.8356 109.596 60.7722 109.799 57.5675C110.052 53.5615 108.526 44.2735 108.277 43.046C107.77 40.5423 105.995 34.7838 107.01 34.7838C108.024 34.7838 109.799 45.049 110.559 46.5512C111.32 48.0534 111.574 55.5645 111.574 56.8163C111.574 58.8193 107.768 72.2224 107.517 73.0904C107.01 74.843 105.995 80.8948 105.995 81.603C105.995 82.6044 106.249 87.6118 108.024 87.1111C109.799 86.6104 121.462 76.5956 123.491 74.5926C124.456 73.6392 130.429 65.0318 131.097 61.0726C131.604 58.0682 132.112 49.5556 132.619 50.5571V57.5675C132.619 59.0697 131.097 68.083 126.533 73.0904C122.448 77.5722 112.588 88.6133 112.334 89.1141C111.925 89.9215 111.827 94.8726 113.349 94.3718C114.87 93.8711 121.163 91.3866 122.984 90.6163C124.758 89.8652 130.083 88.8637 132.872 87.6118C136.168 85.8593 141.747 81.1022 143.014 79.3496C144.733 76.9737 146.311 70.8371 146.564 69.5852C146.818 68.3334 146.844 71.3089 146.564 74.3422C146.311 77.0963 147.071 76.8459 143.014 82.3541C138.775 88.1097 128.815 91.3674 127.294 91.6178C126.044 91.8236 116.645 95.874 116.645 96.3748C116.645 96.8755 118.807 98.3777 119.941 98.3777C121.209 98.3777 133.113 98.568 134.14 98.3777C138.197 97.6266 142.339 95.1503 142.761 94.8726C143.522 94.3718 146.818 91.6178 147.071 91.6178C147.578 91.6178 146.818 93.6207 145.804 94.8726C145.012 95.8501 144.536 96.6252 142 97.877C139.465 99.1289 137.69 99.3792 135.661 99.88C133.633 100.381 132.365 100.631 131.351 100.631H126.28H121.716C121.107 100.631 121.853 101.382 122.984 102.884C134.985 118.825 158.988 157.215 155.692 158.967C154.932 159.218 153.917 157.966 153.664 157.465C148.677 145.364 129.83 111.397 122.223 105.138C115.69 99.7617 118.673 102.133 117.912 113.4C117.49 118.074 116.898 120.41 107.77 127.421C106.792 128.172 103.064 128.827 103.967 128.172C106.841 126.085 112.414 121.32 113.349 119.659C115.884 115.153 114.363 106.39 116.138 101.382C116.859 99.346 114.363 97.3763 114.109 97.877C111.236 100.631 105.742 107.641 104.728 114.401C104.981 119.409 81.147 126.821 81.147 125.918C81.147 125.167 82.6683 124.833 83.1754 124.667C89.0917 122.747 101.229 117.256 102.446 110.646C103.663 104.036 111.574 96.6252 111.32 96.3748C111.32 95.3733 109.292 92.4189 108.277 91.6178C107.263 90.8166 96.0222 99.3792 90.5285 103.886C87.8604 106.075 80.7413 110.195 64.9194 109.394C57.2114 107.792 58.8341 106.39 60.609 106.89C68.2157 108.893 77.4307 107.174 78.865 106.89C83.9361 105.889 93.5712 97.3763 97.3745 94.8726C102.699 91.3674 105.995 90.1155 105.235 89.6148L98.1352 84.8578C96.3603 83.3556 84.6968 83.1052 82.1612 83.8563C81.147 84.1567 72.6384 87.3615 65.4265 87.3615C62.1303 87.3615 53.5095 84.1067 52.2417 83.1052C50.55 81.7689 47.1706 82.1037 45.9028 81.8533L45.3957 81.603V81.1022L45.9028 80.8519H48.1848L50.2132 81.1022C53.0023 82.0202 58.3786 84.4075 59.5948 84.8578C61.6232 85.6089 70.9606 85.7395 71.5119 85.6089C77.8508 84.1067 77.485 81.5709 81.9076 81.3526C86.3568 81.1329 93.5384 80.5278 95.5756 81.059C92.3053 78.6566 75.2618 64.0771 74.301 64.0771C73.0332 64.0771 59.0877 66.6482 52.2417 64.8282C50.6932 64.4165 41.5676 57.0874 40.071 55.3141C37.5355 52.3097 39.2281 53.0608 39.8175 53.5615C43.4518 56.6494 52.2417 62.8252 53.2559 63.0756C54.6902 63.4297 70.4977 63.0756 68.7228 60.0712C66.9479 57.0667 35 28.7751 35 27.7736Z" fill="#194224"/>
</g>
<ellipse cx="60.8593" cy="36.7645" rx="6.06818" ry="4.01109" transform="rotate(70.1321 60.8593 36.7645)" fill="white" fill-opacity="0.45"/>
<ellipse cx="54.0645" cy="54.6905" rx="4.36252" ry="3.45704" transform="rotate(38.2662 54.0645 54.6905)" fill="white" fill-opacity="0.45"/>
<ellipse cx="82.0906" cy="53.6919" rx="4.05172" ry="2.93732" transform="rotate(97.9115 82.0906 53.6919)" fill="white" fill-opacity="0.45"/>
<ellipse cx="99.3516" cy="66.4471" rx="5.52927" ry="3.50454" transform="rotate(91.5959 99.3516 66.4471)" fill="white" fill-opacity="0.45"/>
<ellipse cx="78.4142" cy="74.9897" rx="4.72483" ry="3.50454" transform="rotate(178.544 78.4142 74.9897)" fill="white" fill-opacity="0.45"/>
<ellipse cx="101.409" cy="98.4352" rx="3.08815" ry="2.29057" transform="rotate(162.937 101.409 98.4352)" fill="white" fill-opacity="0.45"/>
<ellipse cx="111.342" cy="77.2102" rx="3.08815" ry="2.29057" transform="rotate(122.741 111.342 77.2102)" fill="white" fill-opacity="0.45"/>
<ellipse cx="118.803" cy="70.8385" rx="2.44357" ry="1.81246" transform="rotate(137.527 118.803 70.8385)" fill="white" fill-opacity="0.45"/>
<ellipse cx="137.512" cy="52.6168" rx="3.7533" ry="2.78393" transform="rotate(105 137.512 52.6168)" fill="white" fill-opacity="0.45"/>
<ellipse cx="137.621" cy="91.4711" rx="3.7533" ry="2.78393" transform="rotate(167.412 137.621 91.4711)" fill="white" fill-opacity="0.45"/>
<ellipse cx="110.04" cy="112.163" rx="3.7533" ry="2.78393" transform="rotate(120.532 110.04 112.163)" fill="white" fill-opacity="0.45"/>
<ellipse cx="93.287" cy="127.889" rx="3.7533" ry="2.78393" transform="rotate(171.612 93.287 127.889)" fill="white" fill-opacity="0.45"/>
<ellipse cx="115.703" cy="36.3067" rx="2.88654" ry="2.14103" transform="rotate(83.8998 115.703 36.3067)" fill="white" fill-opacity="0.45"/>
<path d="M217.489 29.9062C224.493 33.1577 234.75 26.1539 235 25.9037C231.748 32.9066 225.244 34.4079 227.745 46.6638C228.496 49.6652 231.898 55.268 229.496 63.672C228.746 66.1732 222.242 71.926 213.236 71.926C206.429 71.926 199.143 74.7416 196.225 77.1786C194.557 79.6798 197.976 85.9328 205.981 82.4311C214.737 77.1786 219.99 74.4272 224.993 73.4268C228.996 72.6264 227.114 77.2409 225.244 80.18C223.493 82.9314 223.242 84.182 217.238 94.687C215.988 96.688 207.982 98.7671 196.225 93.4364C189.47 88.434 176.212 92.6861 186.468 99.6895C187.219 100.94 210.984 96.7998 213.236 101.941C214.952 105.859 211.275 113.309 209.483 115.697C207.232 118.699 203.58 123.951 193.973 120.95C184.367 117.948 176.712 109.944 173.21 106.943C171.709 105.942 168.457 104.742 167.456 107.943C166.455 111.145 175.461 116.864 179.964 119.449C183.467 121.2 191.472 119.449 192.723 123.951C193.223 130.955 177.212 139.209 160.952 136.457C146.442 131.955 145.045 126.41 144.691 125.702C143.691 123.701 142.44 113.696 144.191 111.195C145.692 107.943 146.192 104.708 145.942 104.291C145.692 103.791 143.19 105.942 140.188 107.943C138.187 108.944 133.934 109.694 130.932 109.444C127.691 109.174 116.423 105.942 112.17 90.1849C108.768 77.5788 113.588 66.9236 116.423 63.1718C117.924 61.6711 121.026 59.9202 121.426 64.9226C121.927 71.1757 127.68 83.4316 130.932 83.6817C134.184 83.9318 135.408 83.0682 135.685 81.6807C135.936 80.4301 134.184 76.8451 132.934 74.9275C133.1 75.3443 131.683 73.5768 124.678 63.1718C117.424 52.6667 127.18 32.8602 138.437 32.1568C142.44 31.9066 141.272 35.7418 140.689 37.6594C138.187 43.9125 135.535 58.6696 144.941 67.674C148.11 69.1747 153.697 69.3748 150.695 60.1703C149.945 56.4185 143.44 48.1645 144.941 35.6585C148.444 23.4025 167.206 21.4016 169.958 20.9014C172.71 20.4012 173.03 22.6572 172.96 23.152C172.71 24.9033 170.708 27.9047 169.708 29.1553C168.869 30.2035 164.954 37.2429 163.203 40.9115C161.119 47.2477 159.001 59.5199 167.206 57.9187C169.708 57.1684 173.86 53.3665 170.458 44.1621C167.456 39.4098 168.957 24.9033 184.717 20.9014C187.969 19.6508 195.474 19.1503 191.972 23.152C186.969 28.1543 179.764 39.31 184.967 47.9149C184.967 48.4151 189.22 50.6662 187.969 40.9115C186.218 29.9062 194.974 22.1515 202.979 23.9027C205.264 24.4026 210.484 26.6546 217.489 29.9062Z" fill="#69A02E" stroke="#486D20"/>
<path d="M219.467 38.7451C225.242 33.7866 234.749 26.2499 235 26C231.743 32.9968 225.229 34.4968 227.735 46.7421C228.486 49.7409 231.893 55.3388 229.488 63.7356C228.737 66.2346 222.223 71.9824 213.204 71.9824C206.387 71.9824 199.091 74.7955 196.168 77.2304C194.498 79.7294 197.922 85.9771 205.939 82.4784C214.707 77.2304 219.968 74.4814 224.979 73.4818C228.987 72.6821 227.103 77.2927 225.229 80.2292C223.476 82.9782 223.225 84.2277 217.212 94.7237C215.96 96.7229 207.943 98.8002 196.168 93.4742C189.404 88.4761 176.126 92.7245 186.397 99.7218C187.149 100.971 210.949 96.8346 213.204 101.971C214.923 105.886 211.24 113.33 209.446 115.716C207.191 118.715 203.533 123.963 193.913 120.964C184.293 117.965 176.627 109.968 173.119 106.969C171.616 105.969 168.359 104.77 167.357 107.969C166.355 111.167 175.374 116.882 179.884 119.464C183.391 121.214 191.408 119.464 192.661 123.963C193.162 130.96 177.128 139.207 160.843 136.458C146.313 131.959 144.733 126.483 144.559 125.712C141.051 110.218 144.559 111.217 144.559 110.218C145.561 101.721 156.835 88.4761 191.909 61.9862C205.081 52.038 202.181 53.5886 219.467 38.7451Z" fill="black" fill-opacity="0.28"/>
<path d="M231 28.7795C198.612 52.9971 193.03 62.8353 193.784 61.574C192.527 51.7356 194.79 38.3654 199.568 31.5542C197.053 33.8246 194.035 40.1313 194.035 40.1313C192.024 43.9153 192.024 52.7446 191.018 62.583C190.515 64.0966 178.948 73.1782 178.194 70.4033C177.188 59.8081 178.194 39.1222 179.702 36.3473C182.72 30.7974 184.655 29.0115 185.234 28.527C186.743 27.2657 184.253 28.5021 182.971 29.7884C179.954 32.8156 177.521 33.9589 176.182 48.2038C174.925 61.574 176.433 67.1238 175.427 72.4214C175.073 74.288 174.497 74.8688 173.667 75.7009C171.907 77.4668 163.86 85.287 163.357 84.0257C162.955 83.0166 163.112 77.8814 162.1 75.9532C159.586 71.1601 157.021 62.028 156.819 58.799C156.568 54.7628 158.082 45.4044 158.328 44.1676C158.831 41.6449 160.591 35.8428 159.586 35.8428C158.58 35.8428 156.819 46.1857 156.065 47.6993C155.311 49.2129 155.059 56.7809 155.059 58.0422C155.059 60.0604 158.834 73.565 159.083 74.4396C159.586 76.2054 160.591 82.3031 160.591 83.0166C160.591 84.0257 160.34 89.071 158.58 88.5665C156.819 88.062 145.252 77.9713 143.241 75.9532C142.283 74.9926 136.36 66.3199 135.697 62.3308C135.194 59.3036 134.691 50.7265 134.188 51.7356V58.799C134.188 60.3126 135.697 69.3942 140.223 74.4396C144.274 78.9554 154.053 90.0801 154.305 90.5846C154.71 91.3982 154.808 96.3868 153.299 95.8822C151.79 95.3777 145.549 92.8744 143.744 92.0982C141.983 91.3414 136.703 90.3324 133.937 89.071C130.668 87.3052 125.136 82.5121 123.878 80.7462C122.174 78.3523 120.609 72.1692 120.358 70.9078C120.106 69.6465 120.081 72.6445 120.358 75.7009C120.609 78.4758 119.855 78.2236 123.878 83.7734C128.082 89.5727 137.96 92.855 139.469 93.1073C140.709 93.3147 150.03 97.3958 150.03 97.9004C150.03 98.4049 147.886 99.9185 146.761 99.9185C145.504 99.9185 133.698 100.11 132.679 99.9185C128.656 99.1617 124.548 96.6666 124.13 96.3868C123.375 95.8822 120.106 93.1073 119.855 93.1073C119.352 93.1073 120.106 95.1254 121.112 96.3868C121.898 97.3717 122.369 98.1526 124.884 99.414C127.399 100.675 129.159 100.928 131.171 101.432C133.182 101.937 134.44 102.189 135.445 102.189H140.475H145.001C145.604 102.189 144.865 102.946 143.744 104.459C131.841 120.52 108.036 159.201 111.305 160.967C112.06 161.219 113.065 159.958 113.317 159.453C118.262 147.261 136.954 113.036 144.498 106.73C150.977 101.313 148.018 103.702 148.773 115.054C149.192 119.763 149.779 122.118 158.831 129.181C159.801 129.938 163.498 130.599 162.603 129.938C159.753 127.836 154.226 123.035 153.299 121.361C150.784 116.82 152.293 107.991 150.533 102.946C149.817 100.894 152.293 98.9094 152.545 99.414C155.395 102.189 160.843 109.252 161.849 116.064C161.597 121.109 185.234 128.577 185.234 127.668C185.234 126.911 183.726 126.575 183.223 126.406C177.355 124.472 165.319 118.939 164.112 112.28C162.905 105.62 155.059 98.1526 155.311 97.9004C155.311 96.8913 157.322 93.9145 158.328 93.1073C159.334 92.3 170.482 100.928 175.93 105.468C178.576 107.674 185.637 111.825 201.328 111.018C208.972 109.404 207.363 107.991 205.603 108.496C198.059 110.514 188.92 108.781 187.498 108.496C182.468 107.486 172.913 98.9094 169.141 96.3868C163.86 92.855 160.591 91.5937 161.346 91.0892L168.387 86.2961C170.147 84.7825 181.714 84.5302 184.229 85.287C185.234 85.5897 193.673 88.8188 200.825 88.8188C204.094 88.8188 212.644 85.5393 213.901 84.5302C215.578 83.1838 218.93 83.5212 220.187 83.2689L220.69 83.0166V82.5121L220.187 82.2598H217.924L215.912 82.5121C213.146 83.4371 207.815 85.8424 206.608 86.2961C204.597 87.0529 195.337 87.1845 194.79 87.0529C188.503 85.5393 188.866 82.9844 184.48 82.7644C180.068 82.543 172.945 81.9333 170.925 82.4686C174.168 80.048 191.071 65.358 192.024 65.358C193.281 65.358 207.111 67.9485 213.901 66.1148C215.437 65.7 224.487 58.3153 225.971 56.5286C228.485 53.5014 226.807 54.2582 226.222 54.7628C222.618 57.8741 213.901 64.0966 212.895 64.3489C211.473 64.7057 195.796 64.3489 197.556 61.3217C199.316 58.2945 231 29.7885 231 28.7795Z" fill="#194224"/>
<ellipse rx="6.06818" ry="4.01109" transform="matrix(-0.339853 0.940479 0.940479 0.339853 205.373 37.9139)" fill="white" fill-opacity="0.45"/>
<ellipse rx="4.36252" ry="3.45704" transform="matrix(-0.785142 0.619316 0.619316 0.785142 212.169 55.8399)" fill="white" fill-opacity="0.45"/>
<ellipse rx="4.05172" ry="2.93732" transform="matrix(0.137644 0.990482 0.990482 -0.137644 184.143 54.8413)" fill="white" fill-opacity="0.45"/>
<ellipse rx="5.52927" ry="3.50454" transform="matrix(0.0278499 0.999612 0.999612 -0.0278499 166.882 67.5965)" fill="white" fill-opacity="0.45"/>
<ellipse rx="4.72483" ry="3.50454" transform="matrix(0.999677 0.0254084 0.0254084 -0.999677 187.818 76.1391)" fill="white" fill-opacity="0.45"/>
<ellipse rx="3.08815" ry="2.29057" transform="matrix(0.955982 0.293425 0.293425 -0.955982 164.825 99.5836)" fill="white" fill-opacity="0.45"/>
<ellipse rx="3.08816" ry="2.29057" transform="matrix(0.540847 0.841121 0.841121 -0.540847 154.892 78.3596)" fill="white" fill-opacity="0.45"/>
<ellipse rx="2.44357" ry="1.81246" transform="matrix(0.737595 0.675243 0.675243 -0.737595 147.43 71.9879)" fill="white" fill-opacity="0.45"/>
<ellipse rx="3.7533" ry="2.78393" transform="matrix(0.258819 0.965926 0.965926 -0.258819 128.72 53.7662)" fill="white" fill-opacity="0.45"/>
<ellipse rx="3.7533" ry="2.78393" transform="matrix(0.975964 0.217931 0.217931 -0.975964 128.613 92.6205)" fill="white" fill-opacity="0.45"/>
<ellipse rx="3.7533" ry="2.78393" transform="matrix(0.508025 0.861342 0.861342 -0.508025 156.193 113.313)" fill="white" fill-opacity="0.45"/>
<ellipse rx="3.7533" ry="2.78393" transform="matrix(0.989302 0.145882 0.145882 -0.989302 172.946 129.038)" fill="white" fill-opacity="0.45"/>
<ellipse rx="2.88654" ry="2.14103" transform="matrix(-0.106267 0.994338 0.994338 0.106267 150.53 37.4551)" fill="white" fill-opacity="0.45"/>
<path d="M185.181 90.1871C185.181 105.131 167.719 99.489 157.012 96.0292C148.887 93.4039 144.652 92.0354 154.886 101.871C164.785 107.856 60 128.155 60 101.871C60 75.5872 143.166 52 174.892 52C206.619 52 213.475 114.125 185.181 90.1871Z" fill="#644026"/>
<path d="M185.181 90.1871C185.181 105.131 167.719 99.489 157.012 96.0292C148.887 93.4039 144.652 92.0354 154.886 101.871C164.785 107.856 60 128.155 60 101.871C60 75.5872 143.166 52 174.892 52C206.619 52 213.475 114.125 185.181 90.1871Z" stroke="#F5F5F5"/>
<path d="M201.5 80.3886C201.5 88.1632 201.344 94.7508 200.674 100.265C200.004 105.781 198.825 110.182 196.803 113.604C192.798 120.385 185.371 123.5 171.343 123.5C157.319 123.5 139.562 120.384 125.329 113.41C111.091 106.432 100.5 95.6635 100.5 80.3886C100.5 72.6327 101.932 68.4241 104.336 66.3347C106.726 64.2572 110.243 64.1329 114.842 65.0268C117.773 65.5964 121.044 66.5562 124.625 67.6069C126.658 68.2033 128.791 68.8291 131.018 69.4294C137.136 71.0786 143.894 72.5119 151 72.5119C158.106 72.5119 164.864 71.0786 170.982 69.4294C173.209 68.8291 175.342 68.2033 177.375 67.6069C180.956 66.5562 184.227 65.5964 187.158 65.0268C191.757 64.1329 195.274 64.2572 197.664 66.3347C200.068 68.4241 201.5 72.6327 201.5 80.3886Z" fill="#D2D0B9" stroke="#F5F5F5"/>
<path d="M155.266 100.386C152.724 101.295 158.663 102.866 160.103 102.512C161.543 102.158 162.028 105.394 160.482 99.1045C159.742 96.0928 157.114 90.9784 150.872 88.2721C144.63 85.5658 141.176 80.2534 139.939 80.4009C139.376 80.4681 142.664 84.768 145.359 87.3015C148.053 89.835 157.808 99.4777 155.266 100.386Z" fill="#4C7321"/>
<path d="M162.64 98.6198C165.267 98.0298 161.104 102.53 159.702 103C162.771 99.6925 159.62 106.464 157.561 100.323C156.575 97.3821 156.056 91.6566 159.868 86.0353C163.68 80.414 163.751 74.0795 164.871 73.5435C165.382 73.2992 164.91 78.6891 163.994 82.2697C163.077 85.8502 160.013 99.2097 162.64 98.6198Z" fill="#4C7321"/>
<path d="M162.418 97.1009C161.673 99.0042 160.179 100.645 159.163 100.248C158.148 99.8503 158.454 98.1792 158.74 95.6612C160.163 92.0253 165.749 85.0807 170.929 82.6156C176.109 80.1505 175.557 78.2235 176.95 78.0761C178.344 77.9287 172.688 84.6258 170.027 86.8037C167.366 88.9817 163.488 94.3661 162.418 97.1009Z" fill="#69A02E"/>
<path d="M151.588 97.0081C152.192 103.058 152.923 101.105 155.914 102.509C158.905 103.914 159.284 101.931 158.623 96.9364C156.454 80.535 150.956 85.0081 145.94 74.2113C142.949 72.8069 155.692 93.3953 151.588 97.0081Z" fill="#69A02E"/>
<path d="M170.194 99.5904C169.82 107.98 166.113 114.483 156.295 114.045C147.158 113.637 143.367 106.719 143.738 98.4096C143.717 92.7548 149.101 94.5896 157.251 95.6781C164.557 96.0042 170.745 93.3813 170.194 99.5904Z" fill="#644026"/>
<path d="M176.094 78.8672C175.838 79.1262 175.674 79.3794 175.728 79.4326C175.782 79.4858 176.033 79.319 176.289 79.0599C176.545 78.8008 176.708 78.5477 176.654 78.4945C176.6 78.4412 176.349 78.6081 176.094 78.8672Z" fill="#9AC967"/>
<path d="M160 113C161.166 111.556 166.704 104.044 169.619 100C171.076 101.733 168.453 112.711 160 113Z" fill="black" fill-opacity="0.37"/>
<path d="M172 82C168.095 86 160.286 94 160 94C160.857 91.9 166.571 84.1 172 82L172 82Z" fill="#F5F5F5" fill-opacity="0.2"/>
<path d="M153.667 84C153.111 86.3684 152 91.2105 152 91.6316L152.333 94L156 86.3684L155 85.3158L153.667 84Z" fill="#F5F5F5" fill-opacity="0.2"/>
<path d="M144.319 104.537C144.353 104.251 147.185 96.9892 147.961 94.477L151.5 94.7706L151.501 94.77L151.501 94.7706L151.5 94.7706L145.181 107.122L144.319 104.537Z" fill="#F5F5F5" fill-opacity="0.2"/>
<path d="M132.255 70.0672C125.914 81.22 110.576 102.66 110.424 103.964L119.616 110.858L147.192 72.6528L132.255 70.0672Z" fill="#F5F5F5" fill-opacity="0.2"/>
</g>
<defs>
<filter id="filter0_d_403_133" x="31" y="27" width="129" height="140" filterUnits="userSpaceOnUse" color-interpolation-filters="sRGB">
<feFlood flood-opacity="0" result="BackgroundImageFix"/>
<feColorMatrix in="SourceAlpha" type="matrix" values="0 0 0 0 0 0 0 0 0 0 0 0 0 0 0 0 0 0 127 0" result="hardAlpha"/>
<feOffset dy="4"/>
<feGaussianBlur stdDeviation="2"/>
<feComposite in2="hardAlpha" operator="out"/>
<feColorMatrix type="matrix" values="0 0 0 0 0 0 0 0 0 0 0 0 0 0 0 0 0 0 0.25 0"/>
<feBlend mode="normal" in2="BackgroundImageFix" result="effect1_dropShadow_403_133"/>
<feBlend mode="normal" in="SourceGraphic" in2="effect1_dropShadow_403_133" result="shape"/>
</filter>
<clipPath id="clip0_403_133">
<rect width="266" height="161" fill="white"/>
</clipPath>
</defs>
</svg>
