<svg width="317" height="134" viewBox="0 0 317 134" fill="none" xmlns="http://www.w3.org/2000/svg">
<g clip-path="url(#clip0_419_455)">
<g style="mix-blend-mode:hard-light">
<path d="M299.573 55.5425C301.373 46.9978 314.615 42.3688 315.009 42.3091C306.499 40.5727 300.753 45.4782 291.393 34.9929C289.194 32.2998 286.44 25.4538 277.241 22.0056C274.479 21.0118 264.9 23.0687 258.817 31.2536C254.22 37.4397 246.76 42.175 242.592 43.1947C239.21 43.0346 235.882 35.7377 244.446 30.8084C255.095 26.3702 261.124 23.4391 265.405 19.5622C268.83 16.4608 263.399 15.0792 259.486 14.8101C255.822 14.5582 254.526 13.9476 241 12.3656C238.351 12.1618 231.07 18.0442 227.934 32.3017C227.882 41.7921 215.094 50.9931 215.707 36.9791C215.086 35.4591 234.871 16.634 231.757 11.1434C229.383 6.95838 220.183 5.30861 216.82 5.33662C212.593 5.37183 205.39 5.17198 201.608 15.9136C197.826 26.6552 199.872 38.9751 200.212 44.1691C200.101 46.2036 198.986 49.9637 195.424 48.728C191.862 47.4924 192.788 35.4753 193.499 29.6512C194.286 25.2951 201.272 19.1927 198.057 15.0393C192.081 9.89225 173.826 18.9129 165.324 35.5347C159.583 51.738 163.639 56.7236 164.038 57.5191C165.166 59.7692 173.341 67.6094 176.779 67.6938C180.724 68.5082 183.979 70.2215 184.186 70.7282C184.468 71.2907 180.839 72.1225 177.007 73.5101C174.753 74.6586 171.204 78.021 169.402 80.9169C167.457 84.0433 162.759 96.4499 174.094 110.873C183.161 122.411 196.023 125.17 201.32 125.107C203.687 124.748 207.361 123.102 203.121 119.387C197.821 114.742 190.658 101.301 192.629 98.1781C194.6 95.0549 196.205 94.5216 197.643 95.199C198.94 95.8096 200.989 99.8031 201.873 102.225C201.61 101.794 202.246 104.266 206.896 117.604C211.467 131.236 235.914 135.64 244.152 125.88C247.08 122.41 242.834 120.901 240.711 120.147C233.384 118.231 218.288 110.753 216.523 96.1715C217.31 92.2861 220.904 87.0744 227.175 95.9698C230.05 99.1656 233.099 110.607 245.388 117.622C258.803 122.651 273.279 106.94 275.589 104.774C277.898 102.608 276.081 100.805 275.587 100.538C273.839 99.5917 269.781 99.3996 267.978 99.4711C266.467 99.531 257.476 98.3721 252.986 97.5056C245.865 95.1548 233.371 88.8573 240.356 82.4727C242.722 80.7019 248.955 79.475 254.955 88.7342C257.212 94.6466 271.305 103.002 285.557 91.3598C288.882 89.2421 294.402 82.7567 288.428 83.2584C280.539 84.454 265.615 83.5275 261.372 73.033C260.921 72.6978 261.764 67.3244 269.713 74.9971C278.453 83.9623 291.358 81.2005 295.186 72.7517C296.279 70.3403 297.774 64.0871 299.573 55.5425Z" fill="#69A02E"/>
</g>
<g style="mix-blend-mode:hard-light" filter="url(#filter0_d_419_455)">
<path d="M309.747 43.9963C266.36 57.4577 253.852 56.0399 255.482 56.1865C263.369 63.8222 276.771 70.5883 286.048 70.7399C282.333 71.5276 274.693 70.1087 274.693 70.1087C269.974 69.4403 262.134 63.6135 252.717 58.0351C251.034 57.4934 235.154 62.0157 237.109 64.5327C245.838 72.4393 264.887 85.1764 268.37 85.6361C275.337 86.5555 278.23 85.9749 279.052 85.7678C281.192 85.2286 278.412 86.676 276.403 86.9928C271.676 87.7382 269.018 89.1949 255.463 81.0118C242.741 73.3314 238.832 68.2972 233.448 65.7155C231.551 64.8059 230.646 64.9465 229.346 65.1514C226.589 65.5862 214.208 67.7405 214.988 69.0301C215.613 70.0618 220.279 73.3083 221.308 75.5005C223.865 80.9496 230.242 89.3079 232.973 91.6217C236.388 94.514 245.72 99.314 246.985 99.906C249.565 101.114 255.907 103.343 255.227 104.257C254.548 105.171 244.174 99.9458 242.32 99.6327C240.466 99.3196 233.576 94.5538 232.456 93.7214C230.664 92.3895 221.221 80.0461 220.613 79.2425C219.385 77.62 214.649 72.6815 214.016 72.2106C213.12 71.5447 208.47 68.4437 207.728 70.3768C206.987 72.31 208.133 89.4847 208.566 92.6454C208.772 94.1498 212.472 105.258 215.566 108.493C217.915 110.948 225.192 117.066 223.956 116.857L217.683 112.196C216.339 111.197 209.294 103.832 207.872 96.3874C206.599 89.7244 203.326 73.4927 203.048 72.9311C202.6 72.0257 198.236 68.6449 197.664 70.3494C197.093 72.054 195.099 79.3801 194.569 81.5334C194.052 83.633 191.38 89.0995 190.632 92.4465C189.991 96.5837 190.51 104.776 191.229 107.084C192.203 110.214 196.637 115.716 197.587 116.777C198.537 117.838 195.858 115.883 193.331 113.614C191.036 111.554 190.751 112.407 188.54 105.087C186.231 97.4375 189.989 86.2917 190.785 84.7537C191.438 83.4894 194.112 72.3223 193.664 71.9894C193.216 71.6564 190.423 72.607 189.663 73.6293C188.814 74.7723 180.668 85.3779 180.149 86.4308C178.103 90.5879 177.544 95.9688 177.509 96.5339C177.448 97.5527 177.704 102.356 177.534 102.584C177.194 103.042 175.911 101.024 175.471 99.2771C175.127 97.9131 174.752 96.9687 175.331 93.8504C175.91 90.732 176.875 88.9653 177.786 86.8035C178.697 84.6418 179.322 83.3323 180.002 82.4179L183.4 77.846C183.63 77.5359 185.008 73.9237 186.029 71.4172C186.498 70.2676 186.892 69.3506 187.066 69.0915C186.941 69.1538 185.922 68.9383 177.581 61.8117C173.683 58.323 171.988 56.2358 171.832 43.3448C171.815 41.9636 173.726 38.1665 173.708 39.4164C173.649 43.3945 174.179 51.5878 175.039 53.5349C177.372 58.8175 186.232 63.2728 189.523 68.2026C190.861 70.2072 194.297 69.2661 194.018 68.7045C193.48 64.2824 190.888 54.668 185.519 49.2586C180.869 46.1576 190.206 19.7406 191.014 20.3408C191.686 20.8403 190.965 22.4338 190.775 23.002C188.528 29.6123 185.31 44.2061 190.408 49.6984C195.507 55.1908 196.837 67.2509 197.231 67.1888C198.127 67.8547 202.13 67.9904 203.526 67.6088C204.923 67.2271 204.793 51.3989 204.441 43.4493C204.271 39.5884 205.354 30.4301 216.671 16.6983C223.27 10.8143 223.437 13.2097 221.8 14.4769C214.911 20.003 210.276 29.4545 209.568 30.936C207.066 36.1739 208.227 50.521 207.919 55.6148C207.488 62.7461 206.399 66.5503 207.357 66.1974L216.37 62.9598C218.903 62.3585 226.942 52.0094 227.969 49.224C228.38 48.1098 231.213 38.3078 236.045 31.8058C238.254 28.834 246.942 23.2259 248.688 22.7488C251.017 22.1122 252.981 18.8428 254.055 17.8663L254.619 17.5755L255.067 17.9085L254.951 18.5322L253.422 20.5896L251.839 22.2519C249.149 24.156 243.41 27.4158 242.193 28.2128C240.162 29.5421 233.789 37.8736 233.536 38.4575C230.633 45.1713 233.147 46.5277 230.379 50.6602C227.595 54.8175 223.324 61.6946 221.484 63.178C225.825 61.8271 250.289 56.1557 250.933 55.2894C251.782 54.1464 258.825 39.8639 265.041 34.9019C266.447 33.7796 279.119 30.4256 281.708 30.2555C286.095 29.9672 284.289 30.9938 283.446 31.1922C278.248 32.4155 266.833 36.2338 265.929 36.9817C264.652 38.0394 254.377 52.5264 258.254 52.924C262.132 53.3215 308.851 43.3304 309.747 43.9963Z" fill="#194224"/>
</g>
<g style="mix-blend-mode:hard-light">
<ellipse rx="6.77351" ry="4.50189" transform="matrix(-0.958224 -0.286019 0.290375 -0.956913 284.422 61.367)" fill="white" fill-opacity="0.45"/>
</g>
<g style="mix-blend-mode:hard-light">
<ellipse rx="4.88703" ry="3.86626" transform="matrix(-0.964495 0.264101 -0.257419 -0.9663 272.929 43.3135)" fill="white" fill-opacity="0.45"/>
</g>
<g style="mix-blend-mode:hard-light">
<ellipse rx="4.51955" ry="3.29899" transform="matrix(-0.712202 -0.701975 0.700591 -0.713563 255.046 69.2458)" fill="white" fill-opacity="0.45"/>
</g>
<g style="mix-blend-mode:hard-light">
<ellipse rx="6.16689" ry="3.93655" transform="matrix(-0.78558 -0.61876 0.618449 -0.785825 232.062 76.3222)" fill="white" fill-opacity="0.45"/>
</g>
<g style="mix-blend-mode:hard-light">
<ellipse rx="5.30728" ry="3.90867" transform="matrix(0.576043 -0.817419 0.817627 0.575748 238.443 51.7647)" fill="white" fill-opacity="0.45"/>
</g>
<g style="mix-blend-mode:hard-light">
<ellipse rx="3.46675" ry="2.55627" transform="matrix(0.336591 -0.941651 0.942988 0.332828 202.049 56.8969)" fill="white" fill-opacity="0.45"/>
</g>
<g style="mix-blend-mode:hard-light">
<ellipse rx="3.45147" ry="2.56762" transform="matrix(-0.349464 -0.93695 0.934667 -0.355524 214.392 79.9734)" fill="white" fill-opacity="0.45"/>
</g>
<g style="mix-blend-mode:hard-light">
<ellipse rx="2.73595" ry="2.02805" transform="matrix(-0.0984794 -0.995139 0.994416 -0.105532 215.098 90.9403)" fill="white" fill-opacity="0.45"/>
</g>
<g style="mix-blend-mode:hard-light">
<ellipse rx="4.18811" ry="3.12564" transform="matrix(-0.619497 -0.784999 0.78279 -0.622286 218.874 119.93)" fill="white" fill-opacity="0.45"/>
</g>
<g style="mix-blend-mode:hard-light">
<ellipse rx="4.21459" ry="3.106" transform="matrix(0.408605 -0.912711 0.913944 0.40584 184.02 94.1785)" fill="white" fill-opacity="0.45"/>
</g>
<g style="mix-blend-mode:hard-light">
<ellipse rx="4.19384" ry="3.12142" transform="matrix(-0.385432 -0.922736 0.920318 -0.391172 183.977 55.5459)" fill="white" fill-opacity="0.45"/>
</g>
<g style="mix-blend-mode:hard-light">
<ellipse rx="4.21537" ry="3.10542" transform="matrix(0.473914 -0.880571 0.881543 0.472104 181.122 29.9788)" fill="white" fill-opacity="0.45"/>
</g>
<g style="mix-blend-mode:hard-light">
<ellipse rx="3.21965" ry="2.40478" transform="matrix(-0.861851 -0.507161 0.508457 -0.861087 248.089 111.116)" fill="white" fill-opacity="0.45"/>
</g>
<g style="mix-blend-mode:hard-light">
<path d="M16.7192 54.8042C14.9232 46.2595 1.70627 41.6305 1.31255 41.5708C9.80655 39.8344 15.5422 44.7399 24.8844 34.2546C27.0794 31.5615 29.8275 24.7155 39.0089 21.2673C41.7656 20.2735 51.3271 22.3304 57.3982 30.5153C61.9868 36.7014 69.4321 41.4367 73.5926 42.4564C76.9676 42.2963 80.2897 34.9995 71.742 30.0702C61.1129 25.6319 55.0956 22.7008 50.8224 18.824C47.4039 15.7225 52.8249 14.3409 56.7308 14.0718C60.3871 13.8199 61.6811 13.2093 75.1817 11.6274C77.8255 11.4235 85.093 17.3059 88.2224 31.5634C88.2743 41.0538 101.039 50.2549 100.426 36.2408C101.046 34.7208 81.299 15.8958 84.4072 10.4051C86.7763 6.22009 95.9593 4.57032 99.3159 4.59833C103.535 4.63354 110.723 4.43369 114.498 15.1753C118.273 25.9169 116.232 38.2368 115.892 43.4308C116.003 45.4653 117.115 49.2254 120.671 47.9897C124.226 46.7541 123.302 34.737 122.592 28.9129C121.807 24.5568 114.834 18.4544 118.043 14.3011C124.007 9.15396 142.228 18.1746 150.714 34.7964C156.444 50.9997 152.396 55.9853 151.998 56.7808C150.872 59.0309 142.712 66.8711 139.281 66.9555C135.343 67.7699 132.094 69.4832 131.887 69.9899C131.606 70.5524 135.229 71.3842 139.053 72.7718C141.302 73.9203 144.845 77.2827 146.643 80.1786C148.585 83.305 153.274 95.7116 141.961 110.135C132.911 121.673 120.073 124.432 114.786 124.369C112.423 124.01 108.757 122.364 112.988 118.648C118.278 114.004 125.428 100.563 123.461 97.4398C121.493 94.3166 119.891 93.7833 118.456 94.4607C117.162 95.0713 115.116 99.0648 114.234 101.486C114.496 101.056 113.862 103.528 109.221 116.866C104.658 130.498 80.2579 134.901 72.0359 125.142C69.1125 121.671 73.3507 120.163 75.4697 119.409C82.783 117.492 97.8501 110.015 99.6117 95.4332C98.826 91.5478 95.2397 86.3361 88.9807 95.2315C86.1105 98.4273 83.0678 109.869 70.8022 116.884C57.4125 121.913 42.9637 106.202 40.6585 104.036C38.3534 101.87 40.1671 100.067 40.66 99.7994C42.4045 98.8534 46.4546 98.6613 48.2545 98.7328C49.7631 98.7927 58.7365 97.6338 63.2182 96.7673C70.3253 94.4166 82.7964 88.119 75.8241 81.7344C73.4624 79.9636 67.2418 78.7367 61.2526 87.9959C58.9999 93.9084 44.9342 102.264 30.7085 90.6215C27.3908 88.5038 21.8811 82.0184 27.8431 82.5202C35.7173 83.7157 50.6128 82.7892 54.8483 72.2947C55.2984 71.9595 54.4572 66.5862 46.5225 74.2588C37.7997 83.224 24.919 80.4622 21.0983 72.0134C20.0078 69.602 18.5153 63.3488 16.7192 54.8042Z" fill="#69A02E"/>
</g>
<g style="mix-blend-mode:hard-light" filter="url(#filter1_d_419_455)">
<path d="M6.56489 43.2581C49.8694 56.7194 62.3536 55.3016 60.727 55.4482C52.8547 63.0839 39.4783 69.85 30.2196 70.0016C33.9276 70.7893 41.5521 69.3704 41.5521 69.3704C46.2625 68.702 54.0882 62.8752 63.4865 57.2968C65.1672 56.7552 81.0164 61.2774 79.0656 63.7945C70.353 71.7011 51.3403 84.4381 47.8634 84.8978C40.9096 85.8172 38.0219 85.2366 37.2016 85.0295C35.0663 84.4903 37.841 85.9378 39.8457 86.2545C44.5635 86.9999 47.217 88.4566 60.7461 80.2736C73.4442 72.5931 77.3459 67.5589 82.7195 64.9772C84.6129 64.0676 85.5164 64.2082 86.8132 64.4131C89.5653 64.848 101.923 67.0022 101.144 68.2918C100.521 69.3235 95.8636 72.57 94.8367 74.7622C92.2841 80.2113 85.9196 88.5696 83.1933 90.8835C79.7854 93.7758 70.4701 98.5757 69.2076 99.1678C66.6326 100.375 60.303 102.604 60.9813 103.519C61.6595 104.433 72.0137 99.2075 73.864 98.8944C75.7142 98.5813 82.5915 93.8155 83.7095 92.9831C85.4982 91.6513 94.9227 79.3079 95.5299 78.5043C96.7559 76.8817 101.482 71.9432 102.115 71.4723C103.009 70.8064 107.65 67.7054 108.39 69.6385C109.13 71.5717 107.986 88.7465 107.554 91.9071C107.348 93.4115 103.656 104.52 100.567 107.755C98.2229 110.21 90.96 116.328 92.1934 116.119L98.454 111.457C99.7956 110.458 106.827 103.094 108.247 95.6492C109.518 88.9861 112.784 72.7544 113.061 72.1929C113.509 71.2874 117.865 67.9066 118.435 69.6112C119.005 71.3157 120.995 78.6419 121.525 80.7951C122.041 82.8948 124.707 88.3612 125.455 91.7082C126.094 95.8454 125.576 104.038 124.859 106.346C123.886 109.475 119.461 114.978 118.512 116.039C117.564 117.1 120.238 115.145 122.761 112.876C125.051 110.816 125.336 111.668 127.542 104.348C129.847 96.6992 126.095 85.5534 125.302 84.0154C124.649 82.7511 121.981 71.5841 122.428 71.2511C122.875 70.9181 125.663 71.8687 126.421 72.891C127.269 74.034 135.4 84.6397 135.917 85.6926C137.959 89.8496 138.518 95.2305 138.552 95.7956C138.613 96.8144 138.358 101.617 138.528 101.846C138.867 102.303 140.147 100.286 140.586 98.5388C140.93 97.1748 141.304 96.2305 140.726 93.1121C140.148 89.9937 139.185 88.227 138.276 86.0653C137.366 83.9035 136.742 82.594 136.064 81.6796L132.673 77.1077C132.443 76.7976 131.068 73.1854 130.048 70.6789C129.58 69.5293 129.187 68.6123 129.014 68.3532C129.138 68.4155 130.155 68.2 138.48 61.0734C142.371 57.5847 144.063 55.4975 144.219 42.6065C144.236 41.2253 142.328 37.4282 142.346 38.6781C142.405 42.6562 141.876 50.8495 141.018 52.7966C138.689 58.0792 129.846 62.5345 126.561 67.4643C125.225 69.4689 121.796 68.5278 122.074 67.9662C122.612 63.5441 125.199 53.9297 130.557 48.5203C135.199 45.4193 125.879 19.0023 125.073 19.6025C124.402 20.102 125.122 21.6956 125.312 22.2637C127.554 28.8741 130.766 43.4678 125.677 48.9602C120.588 54.4525 119.261 66.5126 118.867 66.4505C117.973 67.1165 113.978 67.2521 112.584 66.8705C111.191 66.4888 111.32 50.6606 111.671 42.711C111.841 38.8501 110.76 29.6918 99.464 15.96C92.8783 10.076 92.7114 12.4714 94.3455 13.7386C101.221 19.2647 105.848 28.7162 106.554 30.1977C109.051 35.4356 107.892 49.7827 108.2 54.8765C108.63 62.0078 109.717 65.812 108.761 65.4591L99.7648 62.2215C97.2364 61.6202 89.2128 51.2712 88.188 48.4857C87.778 47.3716 84.9499 37.5695 80.1271 31.0675C77.9227 28.0957 69.2509 22.4876 67.5087 22.0105C65.184 21.374 63.2231 18.1045 62.1517 17.128L61.5889 16.8373L61.1418 17.1702L61.2573 17.7939L62.7834 19.8513L64.3635 21.5136C67.0485 23.4177 72.7757 26.6775 73.9912 27.4745C76.0185 28.8039 82.3794 37.1353 82.6314 37.7192C85.529 44.4331 83.0199 45.7894 85.7825 49.9219C88.5617 54.0792 92.824 60.9564 94.6607 62.4397C90.3282 61.0888 65.9103 55.4174 65.2678 54.5512C64.42 53.4082 57.3901 39.1256 51.1865 34.1636C49.7834 33.0413 37.1354 29.6873 34.551 29.5172C30.1723 29.229 31.975 30.2556 32.8163 30.4539C38.0043 31.6773 49.3978 35.4955 50.2996 36.2434C51.575 37.3011 61.83 51.7881 57.9599 52.1857C54.0899 52.5833 7.45925 42.5921 6.56489 43.2581Z" fill="#194224"/>
</g>
<g style="mix-blend-mode:hard-light">
<ellipse rx="6.7617" ry="4.50117" transform="matrix(0.958075 -0.286518 -0.289871 -0.957066 31.8414 60.6288)" fill="white" fill-opacity="0.45"/>
</g>
<g style="mix-blend-mode:hard-light">
<ellipse rx="4.8784" ry="3.86577" transform="matrix(0.964367 0.264568 0.256963 -0.966421 43.3132 42.5752)" fill="white" fill-opacity="0.45"/>
</g>
<g style="mix-blend-mode:hard-light">
<ellipse rx="4.5152" ry="3.29591" transform="matrix(0.711535 -0.702651 -0.699913 -0.714228 61.1627 68.5075)" fill="white" fill-opacity="0.45"/>
</g>
<g style="mix-blend-mode:hard-light">
<ellipse rx="6.15967" ry="3.93369" transform="matrix(0.785008 -0.619485 -0.617723 -0.786396 84.1027 75.5839)" fill="white" fill-opacity="0.45"/>
</g>
<g style="mix-blend-mode:hard-light">
<ellipse rx="5.30394" ry="3.90371" transform="matrix(-0.575312 -0.817934 -0.817112 0.576479 77.7344 51.0264)" fill="white" fill-opacity="0.45"/>
</g>
<g style="mix-blend-mode:hard-light">
<ellipse rx="3.466" ry="2.55196" transform="matrix(-0.336024 -0.941853 -0.942789 0.333391 114.058 56.1586)" fill="white" fill-opacity="0.45"/>
</g>
<g style="mix-blend-mode:hard-light">
<ellipse rx="3.45067" ry="2.56336" transform="matrix(0.348881 -0.937167 -0.934442 -0.356114 101.739 79.2351)" fill="white" fill-opacity="0.45"/>
</g>
<g style="mix-blend-mode:hard-light">
<ellipse rx="2.7359" ry="2.02425" transform="matrix(0.0982943 -0.995157 -0.994395 -0.105731 101.034 90.202)" fill="white" fill-opacity="0.45"/>
</g>
<g style="mix-blend-mode:hard-light">
<ellipse rx="4.18506" ry="3.12201" transform="matrix(0.618771 -0.785571 -0.782213 -0.623011 97.2657 119.192)" fill="white" fill-opacity="0.45"/>
</g>
<g style="mix-blend-mode:hard-light">
<ellipse rx="4.21325" ry="3.10108" transform="matrix(-0.407959 -0.913 -0.913658 0.406484 132.053 93.4402)" fill="white" fill-opacity="0.45"/>
</g>
<g style="mix-blend-mode:hard-light">
<ellipse rx="4.19266" ry="3.1164" transform="matrix(0.384809 -0.922996 -0.92005 -0.391802 132.097 54.8076)" fill="white" fill-opacity="0.45"/>
</g>
<g style="mix-blend-mode:hard-light">
<ellipse rx="4.21357" ry="3.10084" transform="matrix(-0.473216 -0.880946 -0.881169 0.472801 134.946 29.2405)" fill="white" fill-opacity="0.45"/>
</g>
<g style="mix-blend-mode:hard-light">
<ellipse rx="3.21511" ry="2.4036" transform="matrix(0.861429 -0.507877 -0.507741 -0.86151 68.1058 110.377)" fill="white" fill-opacity="0.45"/>
</g>
</g>
<defs>
<filter id="filter0_d_419_455" x="107.497" y="12.9053" width="206.25" height="112.169" filterUnits="userSpaceOnUse" color-interpolation-filters="sRGB">
<feFlood flood-opacity="0" result="BackgroundImageFix"/>
<feColorMatrix in="SourceAlpha" type="matrix" values="0 0 0 0 0 0 0 0 0 0 0 0 0 0 0 0 0 0 127 0" result="hardAlpha"/>
<feOffset dy="4"/>
<feGaussianBlur stdDeviation="2"/>
<feComposite in2="hardAlpha" operator="out"/>
<feColorMatrix type="matrix" values="0 0 0 0 0 0 0 0 0 0 0 0 0 0 0 0 0 0 0.25 0"/>
<feBlend mode="normal" in2="BackgroundImageFix" result="effect1_dropShadow_419_455"/>
<feBlend mode="normal" in="SourceGraphic" in2="effect1_dropShadow_419_455" result="shape"/>
</filter>
<filter id="filter1_d_419_455" x="2.56445" y="12.167" width="205.874" height="112.169" filterUnits="userSpaceOnUse" color-interpolation-filters="sRGB">
<feFlood flood-opacity="0" result="BackgroundImageFix"/>
<feColorMatrix in="SourceAlpha" type="matrix" values="0 0 0 0 0 0 0 0 0 0 0 0 0 0 0 0 0 0 127 0" result="hardAlpha"/>
<feOffset dy="4"/>
<feGaussianBlur stdDeviation="2"/>
<feComposite in2="hardAlpha" operator="out"/>
<feColorMatrix type="matrix" values="0 0 0 0 0 0 0 0 0 0 0 0 0 0 0 0 0 0 0.25 0"/>
<feBlend mode="normal" in2="BackgroundImageFix" result="effect1_dropShadow_419_455"/>
<feBlend mode="normal" in="SourceGraphic" in2="effect1_dropShadow_419_455" result="shape"/>
</filter>
<clipPath id="clip0_419_455">
<rect width="317" height="134" fill="white"/>
</clipPath>
</defs>
</svg>
