<svg width="418" height="418" viewBox="0 0 418 418" fill="none" xmlns="http://www.w3.org/2000/svg">
<g clip-path="url(#clip0_417_251)">
<g style="mix-blend-mode:hard-light">
<path d="M81.7709 54.0915C73.8625 57.7322 62.2824 49.8902 62 49.6102C65.6717 57.451 73.0152 59.1319 70.1908 72.8543C69.3435 76.2149 65.5023 82.4881 68.2137 91.8977C69.061 94.6982 76.4045 101.139 86.5724 101.139C94.2573 101.139 102.483 104.292 105.778 107.02C107.661 109.821 103.801 116.822 94.7632 112.901C84.8778 107.02 78.9465 103.94 73.2977 102.82C68.7786 101.924 70.9032 107.09 73.0152 110.381C74.9923 113.462 75.2748 114.862 82.0534 126.624C83.4656 128.864 92.5037 131.192 105.778 125.224C113.404 119.623 128.374 124.384 116.794 132.225C115.946 133.625 89.1144 128.989 86.5724 134.745C84.6349 139.133 88.7865 147.474 90.809 150.148C93.351 153.509 97.4747 159.39 108.32 156.029C119.166 152.669 127.809 143.707 131.763 140.346C133.458 139.226 137.129 137.882 138.259 141.467C139.389 145.051 129.221 151.455 124.137 154.349C120.183 156.309 111.145 154.349 109.733 159.39C109.168 167.231 127.244 176.473 145.603 173.392C161.984 168.351 163.562 162.142 163.961 161.35C165.091 159.11 166.503 147.908 164.526 145.107C162.832 141.467 162.267 137.844 162.549 137.377C162.832 136.817 165.656 139.226 169.045 141.467C171.305 142.587 176.106 143.427 179.496 143.147C183.155 142.845 195.877 139.226 200.679 121.583C204.52 107.469 199.078 95.5384 195.877 91.3376C194.183 89.6573 190.68 87.697 190.229 93.298C189.664 100.299 183.167 114.022 179.496 114.302C175.824 114.582 174.443 113.615 174.129 112.061C173.847 110.661 175.824 106.647 177.236 104.5C177.048 104.967 178.648 102.988 186.557 91.3376C194.748 79.5755 183.732 57.3991 171.022 56.6114C166.503 56.3314 167.821 60.6255 168.48 62.7725C171.305 69.7738 174.299 86.2967 163.679 96.3785C160.101 98.0588 153.794 98.2829 157.183 87.977C158.03 83.7763 165.374 74.5346 163.679 60.5321C159.725 46.8097 138.542 44.5693 135.435 44.0093C132.328 43.4492 131.966 45.9751 132.046 46.5292C132.328 48.49 134.587 51.8506 135.717 53.2508C136.664 54.4244 141.084 62.3061 143.061 66.4137C145.414 73.5082 147.806 87.2488 138.542 85.456C135.717 84.6159 131.029 80.3591 134.87 70.0533C138.259 64.7323 136.565 48.49 118.771 44.0093C115.099 42.609 106.626 42.0486 110.58 46.5292C116.229 52.13 124.363 64.6206 118.488 74.2551C118.488 74.8152 113.687 77.3357 115.099 66.4137C117.076 54.0915 107.191 45.4089 98.1525 47.3697C95.5729 47.9294 89.6793 50.4509 81.7709 54.0915Z" fill="#939393"/>
</g>
<g style="mix-blend-mode:hard-light" filter="url(#filter0_d_417_251)">
<path d="M66 52.8674C102.8 79.8163 109.143 90.7641 108.286 89.3605C109.714 78.4125 107.143 63.5345 101.714 55.9551C104.571 58.4815 108 65.4995 108 65.4995C110.286 69.7103 110.286 79.5354 111.429 90.4834C112 92.1677 125.143 102.274 126 99.1856C127.143 87.3955 126 64.3766 124.286 61.2887C120.857 55.1129 118.658 53.1256 118 52.5865C116.286 51.1829 119.115 52.5587 120.571 53.9901C124 57.3587 126.764 58.6309 128.286 74.4825C129.714 89.3605 128 95.5363 129.143 101.431C129.545 103.508 130.2 104.155 131.143 105.081C133.143 107.046 142.286 115.748 142.857 114.344C143.314 113.222 143.136 107.507 144.286 105.361C147.143 100.028 150.057 89.8658 150.286 86.2726C150.571 81.7811 148.852 71.3673 148.571 69.991C148 67.1838 146 60.7273 147.143 60.7273C148.286 60.7273 150.286 72.2367 151.143 73.921C152 75.6053 152.286 84.0269 152.286 85.4305C152.286 87.6762 147.997 102.704 147.714 103.677C147.143 105.642 146 112.428 146 113.222C146 114.344 146.286 119.959 148.286 119.397C150.286 118.836 163.429 107.607 165.714 105.361C166.802 104.292 173.533 94.6417 174.286 90.2027C174.857 86.834 175.429 77.2896 176 78.4125V86.2726C176 87.9569 174.286 98.0627 169.143 103.677C164.54 108.702 153.429 121.082 153.143 121.643C152.682 122.548 152.571 128.1 154.286 127.538C156 126.977 163.092 124.191 165.143 123.327C167.143 122.485 173.143 121.362 176.286 119.959C180 117.994 186.286 112.66 187.714 110.695C189.651 108.031 191.429 101.151 191.714 99.7471C192 98.3435 192.029 101.68 191.714 105.081C191.429 108.169 192.286 107.888 187.714 114.064C182.937 120.517 171.714 124.169 170 124.45C168.591 124.681 158 129.222 158 129.784C158 130.345 160.437 132.03 161.714 132.03C163.143 132.03 176.556 132.243 177.714 132.03C182.286 131.187 186.953 128.411 187.429 128.1C188.286 127.538 192 124.45 192.286 124.45C192.857 124.45 192 126.696 190.857 128.1C189.965 129.196 189.429 130.065 186.571 131.468C183.714 132.872 181.714 133.152 179.429 133.714C177.143 134.275 175.714 134.556 174.571 134.556H168.857C168.389 134.556 163.386 135.585 161.117 135.958C160.614 136.04 160.246 136.091 160.091 136.091C160.091 136.091 160.286 136.24 159.429 148.873C158.952 154.113 158.286 156.733 148 164.593C146.898 165.435 142.697 166.17 143.714 165.435C146.952 163.096 153.233 157.753 154.286 155.891C157.143 150.838 155.429 141.013 157.429 135.398C158.242 133.115 155.429 130.907 155.143 131.468C151.905 134.556 145.714 142.416 144.571 149.996C144.857 155.61 118 163.921 118 162.909C118 162.066 119.714 161.692 120.286 161.505C126.952 159.353 140.629 153.196 142 145.785C143.371 138.374 152.286 130.065 152 129.784C152 128.661 149.714 125.349 148.571 124.45C147.429 123.552 134.762 133.152 128.571 138.205C125.565 140.659 117.543 145.279 99.7142 144.381C91.0285 142.585 92.8571 141.013 94.8571 141.574C103.429 143.82 113.812 141.892 115.429 141.574C121.143 140.451 132 130.907 136.286 128.1C142.286 124.17 146 122.766 145.143 122.204L137.143 116.871C135.143 115.187 122 114.906 119.143 115.748C118 116.085 108.412 119.678 100.286 119.678C96.5714 119.678 86.8571 116.029 85.4285 114.906C83.5223 113.408 79.7142 113.783 78.2856 113.502L77.7142 113.222V112.66L78.2856 112.379H80.8571L83.1428 112.66C86.2856 113.689 92.3438 116.366 93.7142 116.871C95.9999 117.713 106.522 117.859 107.143 117.713C114.286 116.029 113.874 113.186 118.857 112.941C123.871 112.694 131.963 112.016 134.259 112.612C130.574 109.918 111.368 93.5713 110.286 93.5713C108.857 93.5713 93.1428 96.454 85.4285 94.4134C83.6836 93.9519 73.4005 85.7344 71.7142 83.7461C68.857 80.3775 70.7644 81.2197 71.4285 81.7811C75.5237 85.2433 85.4285 92.1677 86.5713 92.4484C88.1876 92.8454 106 92.4484 104 89.0798C102 85.7112 66 53.9902 66 52.8674Z" fill="#585858"/>
</g>
<g style="mix-blend-mode:hard-light">
<ellipse cx="95.3203" cy="62.639" rx="6.81625" ry="4.50557" transform="rotate(70.1321 95.3203 62.639)" fill="white" fill-opacity="0.45"/>
</g>
<g style="mix-blend-mode:hard-light">
<ellipse cx="87.6886" cy="82.7751" rx="4.90033" ry="3.88321" transform="rotate(38.2662 87.6886 82.7751)" fill="white" fill-opacity="0.45"/>
</g>
<g style="mix-blend-mode:hard-light">
<ellipse cx="119.169" cy="81.6534" rx="4.55121" ry="3.29943" transform="rotate(97.9115 119.169 81.6534)" fill="white" fill-opacity="0.45"/>
</g>
<g style="mix-blend-mode:hard-light">
<ellipse cx="138.558" cy="95.9807" rx="6.21091" ry="3.93657" transform="rotate(91.5959 138.558 95.9807)" fill="white" fill-opacity="0.45"/>
</g>
<g style="mix-blend-mode:hard-light">
<ellipse cx="115.04" cy="105.576" rx="5.3073" ry="3.93657" transform="rotate(178.544 115.04 105.576)" fill="white" fill-opacity="0.45"/>
</g>
<g style="mix-blend-mode:hard-light">
<ellipse cx="140.869" cy="131.913" rx="3.46886" ry="2.57295" transform="rotate(162.937 140.869 131.913)" fill="white" fill-opacity="0.45"/>
</g>
<g style="mix-blend-mode:hard-light">
<ellipse cx="152.026" cy="108.071" rx="3.46886" ry="2.57295" transform="rotate(122.741 152.026 108.071)" fill="white" fill-opacity="0.45"/>
</g>
<g style="mix-blend-mode:hard-light">
<ellipse cx="160.407" cy="100.913" rx="2.74481" ry="2.0359" transform="rotate(137.527 160.407 100.913)" fill="white" fill-opacity="0.45"/>
</g>
<g style="mix-blend-mode:hard-light">
<ellipse cx="181.423" cy="80.4456" rx="4.216" ry="3.12713" transform="rotate(105 181.423 80.4456)" fill="white" fill-opacity="0.45"/>
</g>
<g style="mix-blend-mode:hard-light">
<ellipse cx="181.546" cy="124.089" rx="4.216" ry="3.12713" transform="rotate(167.412 181.546 124.089)" fill="white" fill-opacity="0.45"/>
</g>
<g style="mix-blend-mode:hard-light">
<ellipse cx="150.564" cy="147.333" rx="4.216" ry="3.12713" transform="rotate(120.532 150.564 147.333)" fill="white" fill-opacity="0.45"/>
</g>
<g style="mix-blend-mode:hard-light">
<ellipse cx="131.746" cy="164.997" rx="4.216" ry="3.12713" transform="rotate(171.612 131.746 164.997)" fill="white" fill-opacity="0.45"/>
</g>
<g style="mix-blend-mode:hard-light">
<ellipse cx="156.926" cy="62.1251" rx="3.24239" ry="2.40497" transform="rotate(83.8998 156.926 62.1251)" fill="white" fill-opacity="0.45"/>
</g>
<g style="mix-blend-mode:hard-light">
<path d="M342.088 54.0915C350.053 57.7322 361.716 49.8902 362 49.6102C358.302 57.451 350.906 59.1319 353.751 72.8543C354.604 76.2149 358.473 82.4881 355.742 91.8977C354.889 94.6982 347.493 101.139 337.252 101.139C329.512 101.139 321.228 104.292 317.909 107.02C316.012 109.821 319.9 116.822 329.003 112.901C338.959 107.02 344.932 103.94 350.622 102.82C355.173 101.924 353.033 107.09 350.906 110.381C348.915 113.462 348.63 114.862 341.803 126.624C340.381 128.864 331.278 131.192 317.909 125.224C310.228 119.623 295.152 124.384 306.815 132.225C307.668 133.625 334.692 128.989 337.252 134.745C339.203 139.133 335.022 147.474 332.985 150.148C330.425 153.509 326.272 159.39 315.349 156.029C304.425 152.669 295.721 143.707 291.739 140.346C290.032 139.226 286.334 137.882 285.196 141.467C284.058 145.051 294.299 151.455 299.419 154.349C303.401 156.309 312.504 154.349 313.926 159.39C314.495 167.231 296.29 176.473 277.8 173.392C261.301 168.351 259.713 162.142 259.31 161.35C258.172 159.11 256.75 147.908 258.741 145.107C260.448 141.467 261.017 137.844 260.733 137.377C260.448 136.817 257.604 139.226 254.19 141.467C251.914 142.587 247.079 143.427 243.665 143.147C239.98 142.845 227.166 139.226 222.331 121.583C218.462 107.469 223.943 95.5384 227.166 91.3376C228.873 89.6573 232.4 87.697 232.856 93.298C233.425 100.299 239.967 114.022 243.665 114.302C247.363 114.582 248.754 113.615 249.07 112.061C249.354 110.661 247.363 106.647 245.941 104.5C246.13 104.967 244.518 102.988 236.554 91.3376C228.304 79.5755 239.398 57.3991 252.199 56.6114C256.75 56.3314 255.423 60.6255 254.759 62.7725C251.914 69.7738 248.899 86.2967 259.595 96.3785C263.198 98.0588 269.551 98.2829 266.137 87.977C265.284 83.7763 257.888 74.5346 259.595 60.5321C263.577 46.8097 284.912 44.5693 288.041 44.0093C291.17 43.4492 291.535 45.9751 291.454 46.5292C291.17 48.49 288.894 51.8506 287.756 53.2508C286.803 54.4244 282.351 62.3061 280.36 66.4137C277.99 73.5082 275.581 87.2488 284.912 85.456C287.756 84.6159 292.478 80.3591 288.61 70.0533C285.196 64.7323 286.903 48.49 304.824 44.0093C308.522 42.609 317.055 42.0486 313.073 46.5292C307.384 52.13 299.191 64.6206 305.108 74.2551C305.108 74.8152 309.944 77.3357 308.522 66.4137C306.53 54.0915 316.487 45.4089 325.589 47.3697C328.187 47.9294 334.123 50.4509 342.088 54.0915Z" fill="#939393"/>
</g>
<g style="mix-blend-mode:hard-light" filter="url(#filter1_d_417_251)">
<path d="M357 52.8674C320.471 79.8163 314.174 90.7641 315.025 89.3605C313.607 78.4125 316.16 63.5345 321.548 55.9551C318.712 58.4815 315.309 65.4995 315.309 65.4995C313.04 69.7103 313.04 79.5354 311.906 90.4834C311.338 92.1677 298.292 102.274 297.441 99.1856C296.307 87.3955 297.441 64.3766 299.143 61.2887C302.546 55.1129 304.729 53.1256 305.382 52.5865C307.084 51.1829 304.276 52.5587 302.83 53.9901C299.427 57.3587 296.683 58.6309 295.172 74.4825C293.754 89.3605 295.456 95.5363 294.321 101.431C293.922 103.508 293.272 104.155 292.336 105.081C290.351 107.046 281.275 115.748 280.708 114.344C280.254 113.222 280.431 107.507 279.29 105.361C276.454 100.028 273.561 89.8658 273.334 86.2726C273.05 81.7811 274.758 71.3673 275.036 69.991C275.603 67.1838 277.588 60.7273 276.454 60.7273C275.319 60.7273 273.334 72.2367 272.483 73.921C271.632 75.6053 271.349 84.0269 271.349 85.4305C271.349 87.6762 275.606 102.704 275.887 103.677C276.454 105.642 277.588 112.428 277.588 113.222C277.588 114.344 277.305 119.959 275.319 119.397C273.334 118.836 260.288 107.607 258.019 105.361C256.939 104.292 250.258 94.6417 249.511 90.2027C248.943 86.834 248.376 77.2896 247.809 78.4125V86.2726C247.809 87.9569 249.511 98.0627 254.616 103.677C259.185 108.702 270.214 121.082 270.498 121.643C270.955 122.548 271.065 128.1 269.363 127.538C267.662 126.977 260.622 124.191 258.586 123.327C256.601 122.485 250.645 121.362 247.525 119.959C243.838 117.994 237.599 112.66 236.181 110.695C234.258 108.031 232.494 101.151 232.21 99.7471C231.926 98.3435 231.898 101.68 232.21 105.081C232.494 108.169 231.643 107.888 236.181 114.064C240.922 120.517 252.063 124.169 253.765 124.45C255.164 124.681 265.677 129.222 265.677 129.784C265.677 130.345 263.258 132.03 261.99 132.03C260.571 132.03 247.257 132.243 246.107 132.03C241.569 131.187 236.936 128.411 236.464 128.1C235.613 127.538 231.926 124.45 231.643 124.45C231.076 124.45 231.926 126.696 233.061 128.1C233.947 129.196 234.479 130.065 237.315 131.468C240.151 132.872 242.137 133.152 244.405 133.714C246.674 134.275 248.092 134.556 249.227 134.556H254.899C255.453 134.556 262.407 135.484 263.53 135.529C263.557 135.53 263.581 135.53 263.601 135.53C263.601 135.53 263.408 136.24 264.258 148.873C264.731 154.113 265.393 156.733 275.603 164.593C276.697 165.435 280.867 166.17 279.857 165.435C276.643 163.096 270.409 157.753 269.363 155.891C266.527 150.838 268.229 141.013 266.244 135.398C265.436 133.115 268.229 130.907 268.513 131.468C271.727 134.556 277.872 142.416 279.006 149.996C278.723 155.61 305.382 163.921 305.382 162.909C305.382 162.066 303.681 161.692 303.114 161.505C296.496 159.353 282.92 153.196 281.559 145.785C280.198 138.374 271.349 130.065 271.632 129.784C271.632 128.661 273.901 125.349 275.036 124.45C276.17 123.552 288.744 133.152 294.889 138.205C297.873 140.659 305.836 145.279 323.534 144.381C332.156 142.585 330.34 141.013 328.355 141.574C319.847 143.82 309.539 141.892 307.935 141.574C302.263 140.451 291.485 130.907 287.231 128.1C281.275 124.17 277.588 122.766 278.439 122.204L286.38 116.871C288.366 115.187 301.412 114.906 304.248 115.748C305.382 116.085 314.9 119.678 322.966 119.678C326.653 119.678 336.296 116.029 337.714 114.906C339.607 113.408 343.387 113.783 344.805 113.502L345.372 113.222V112.66L344.805 112.379H342.252L339.983 112.66C336.864 113.689 330.85 116.366 329.49 116.871C327.221 117.713 316.776 117.859 316.16 117.713C309.069 116.029 309.478 113.186 304.532 112.941C299.555 112.694 291.522 112.016 289.243 112.612C292.901 109.918 311.965 93.5713 313.04 93.5713C314.458 93.5713 330.057 96.454 337.714 94.4134C339.446 93.9519 349.654 85.7344 351.328 83.7461C354.164 80.3775 352.271 81.2197 351.611 81.7811C347.546 85.2433 337.714 92.1677 336.58 92.4484C334.976 92.8454 317.294 92.4484 319.279 89.0798C321.265 85.7112 357 53.9902 357 52.8674Z" fill="#585858"/>
</g>
<g style="mix-blend-mode:hard-light">
<ellipse rx="6.81625" ry="4.50557" transform="matrix(-0.339853 0.940479 0.940479 0.339853 328.154 62.639)" fill="white" fill-opacity="0.45"/>
</g>
<g style="mix-blend-mode:hard-light">
<ellipse rx="4.90033" ry="3.88321" transform="matrix(-0.785142 0.619316 0.619316 0.785142 335.789 82.7751)" fill="white" fill-opacity="0.45"/>
</g>
<g style="mix-blend-mode:hard-light">
<ellipse rx="4.55121" ry="3.29943" transform="matrix(0.137644 0.990482 0.990482 -0.137644 304.308 81.6534)" fill="white" fill-opacity="0.45"/>
</g>
<g style="mix-blend-mode:hard-light">
<ellipse rx="6.21091" ry="3.93657" transform="matrix(0.0278499 0.999612 0.999612 -0.0278499 284.918 95.9807)" fill="white" fill-opacity="0.45"/>
</g>
<g style="mix-blend-mode:hard-light">
<ellipse rx="5.3073" ry="3.93657" transform="matrix(0.999677 0.0254084 0.0254084 -0.999677 308.436 105.577)" fill="white" fill-opacity="0.45"/>
</g>
<g style="mix-blend-mode:hard-light">
<ellipse rx="3.46886" ry="2.57295" transform="matrix(0.955982 0.293425 0.293425 -0.955982 282.608 131.913)" fill="white" fill-opacity="0.45"/>
</g>
<g style="mix-blend-mode:hard-light">
<ellipse rx="3.46886" ry="2.57295" transform="matrix(0.540847 0.841121 0.841121 -0.540847 271.448 108.071)" fill="white" fill-opacity="0.45"/>
</g>
<g style="mix-blend-mode:hard-light">
<ellipse rx="2.74481" ry="2.0359" transform="matrix(0.737595 0.675243 0.675243 -0.737595 263.067 100.913)" fill="white" fill-opacity="0.45"/>
</g>
<g style="mix-blend-mode:hard-light">
<ellipse rx="4.216" ry="3.12713" transform="matrix(0.258819 0.965926 0.965926 -0.258819 242.051 80.4456)" fill="white" fill-opacity="0.45"/>
</g>
<g style="mix-blend-mode:hard-light">
<ellipse rx="4.216" ry="3.12713" transform="matrix(0.975964 0.217931 0.217932 -0.975964 241.931 124.089)" fill="white" fill-opacity="0.45"/>
</g>
<g style="mix-blend-mode:hard-light">
<ellipse rx="4.216" ry="3.12713" transform="matrix(0.508025 0.861342 0.861342 -0.508025 272.913 147.333)" fill="white" fill-opacity="0.45"/>
</g>
<g style="mix-blend-mode:hard-light">
<ellipse rx="4.216" ry="3.12713" transform="matrix(0.989302 0.145882 0.145882 -0.989302 291.73 164.997)" fill="white" fill-opacity="0.45"/>
</g>
<g style="mix-blend-mode:hard-light">
<ellipse rx="3.24239" ry="2.40497" transform="matrix(-0.106267 0.994338 0.994338 0.106267 266.552 62.1251)" fill="white" fill-opacity="0.45"/>
</g>
<g style="mix-blend-mode:hard-light">
<path d="M81.7709 344.993C73.8625 341.38 62.2824 349.162 62 349.44C65.6717 341.659 73.0152 339.991 70.1908 326.374C69.3435 323.039 65.5023 316.813 68.2137 307.476C69.061 304.696 76.4045 298.304 86.5724 298.304C94.2573 298.304 102.483 295.176 105.778 292.468C107.661 289.689 103.801 282.741 94.7632 286.632C84.8778 292.468 78.9465 295.525 73.2977 296.637C68.7786 297.526 70.9032 292.399 73.0152 289.133C74.9923 286.076 75.2748 284.687 82.0534 273.014C83.4656 270.791 92.5037 268.481 105.778 274.404C113.404 279.962 128.374 275.238 116.794 267.456C115.946 266.067 89.1144 270.667 86.5724 264.955C84.6349 260.601 88.7865 252.323 90.809 249.67C93.351 246.335 97.4747 240.499 108.32 243.834C119.166 247.169 127.809 256.062 131.763 259.397C133.458 260.508 137.129 261.842 138.259 258.285C139.389 254.728 129.221 248.373 124.137 245.501C120.183 243.556 111.145 245.501 109.733 240.499C109.168 232.717 127.244 223.546 145.603 226.603C161.984 231.605 163.562 237.767 163.961 238.553C165.091 240.777 166.503 251.893 164.526 254.672C162.832 258.285 162.267 261.88 162.549 262.344C162.832 262.899 165.656 260.508 169.045 258.285C171.305 257.173 176.106 256.34 179.496 256.618C183.155 256.918 195.877 260.508 200.679 278.017C204.52 292.024 199.078 303.863 195.877 308.031C194.183 309.699 190.68 311.644 190.229 306.086C189.664 299.138 183.167 285.52 179.496 285.243C175.824 284.965 174.443 285.924 174.129 287.466C173.847 288.855 175.824 292.839 177.236 294.969C177.048 294.506 178.648 296.47 186.557 308.031C194.748 319.704 183.732 341.711 171.022 342.492C166.503 342.77 167.821 338.509 168.48 336.378C171.305 329.431 174.299 313.034 163.679 303.029C160.101 301.361 153.794 301.139 157.183 311.366C158.03 315.535 165.374 324.706 163.679 338.602C159.725 352.219 138.542 354.443 135.435 354.998C132.328 355.554 131.966 353.048 132.046 352.498C132.328 350.552 134.587 347.217 135.717 345.827C136.664 344.663 141.084 336.841 143.061 332.765C145.414 325.725 147.806 312.089 138.542 313.868C135.717 314.702 131.029 318.926 134.87 329.153C138.259 334.434 136.565 350.552 118.771 354.998C115.099 356.388 106.626 356.944 110.58 352.498C116.229 346.94 124.363 334.544 118.488 324.983C118.488 324.428 113.687 321.926 115.099 332.765C117.076 344.993 107.191 353.609 98.1525 351.664C95.5729 351.108 89.6793 348.606 81.7709 344.993Z" fill="#939393"/>
</g>
<g style="mix-blend-mode:hard-light" filter="url(#filter2_d_417_251)">
<path d="M66 346.138C102.664 319.364 108.983 308.487 108.129 309.882C109.553 320.759 106.991 335.54 101.582 343.071C104.429 340.56 107.845 333.588 107.845 333.588C110.122 329.404 110.122 319.643 111.261 308.766C111.83 307.093 124.924 297.052 125.778 300.12C126.917 311.834 125.778 334.704 124.07 337.771C120.654 343.907 118.464 345.882 117.808 346.417C116.1 347.812 118.918 346.445 120.37 345.023C123.785 341.676 126.539 340.412 128.055 324.663C129.479 309.882 127.771 303.746 128.909 297.889C129.311 295.825 129.963 295.183 130.902 294.263C132.895 292.311 142.004 283.665 142.573 285.06C143.028 286.175 142.851 291.852 143.996 293.984C146.843 299.283 149.746 309.38 149.974 312.949C150.259 317.412 148.545 327.758 148.266 329.126C147.697 331.915 145.704 338.329 146.843 338.329C147.981 338.329 149.974 326.894 150.828 325.221C151.682 323.548 151.967 315.181 151.967 313.786C151.967 311.555 147.694 296.625 147.412 295.658C146.843 293.705 145.704 286.964 145.704 286.175C145.704 285.06 145.989 279.482 147.981 280.039C149.974 280.597 163.068 291.753 165.346 293.984C166.43 295.046 173.135 304.635 173.885 309.045C174.455 312.392 175.024 321.874 175.593 320.759V312.949C175.593 311.276 173.885 301.236 168.761 295.658C164.175 290.665 153.105 278.366 152.821 277.808C152.362 276.909 152.251 271.393 153.959 271.951C155.667 272.509 162.733 275.277 164.776 276.135C166.769 276.971 172.747 278.087 175.878 279.482C179.578 281.434 185.841 286.733 187.264 288.685C189.194 291.332 190.965 298.168 191.249 299.562C191.534 300.957 191.563 297.642 191.249 294.263C190.965 291.195 191.819 291.474 187.264 285.338C182.505 278.927 171.323 275.298 169.615 275.019C168.212 274.79 157.66 270.278 157.66 269.72C157.66 269.162 160.087 267.489 161.36 267.489C162.784 267.489 176.148 267.277 177.301 267.489C181.856 268.326 186.506 271.084 186.98 271.393C187.834 271.951 191.534 275.019 191.819 275.019C192.388 275.019 191.534 272.788 190.395 271.393C189.506 270.305 188.972 269.441 186.126 268.047C183.279 266.652 181.286 266.373 179.009 265.815C176.732 265.258 175.309 264.979 174.17 264.979H168.477C168.021 264.979 163.238 263.951 160.914 263.542C160.338 263.441 159.912 263.377 159.743 263.377C159.743 263.377 159.937 263.305 159.083 250.755C158.609 245.549 157.944 242.946 147.697 235.137C146.599 234.3 142.413 233.57 143.427 234.3C146.653 236.624 152.91 241.932 153.959 243.782C156.806 248.803 155.098 258.564 157.09 264.142C157.901 266.41 155.098 268.604 154.813 268.047C151.587 264.979 145.42 257.17 144.281 249.639C144.566 244.061 117.808 235.804 117.808 236.81C117.808 237.647 119.516 238.019 120.085 238.204C126.727 240.343 140.353 246.46 141.719 253.823C143.085 261.186 151.967 269.441 151.682 269.72C151.682 270.836 149.405 274.127 148.266 275.019C147.127 275.912 134.508 266.373 128.34 261.353C125.345 258.915 117.352 254.325 99.5896 255.217C90.936 257.002 92.7578 258.564 94.7504 258.006C103.29 255.775 113.635 257.691 115.246 258.006C120.939 259.122 131.756 268.604 136.026 271.393C142.004 275.298 145.704 276.693 144.85 277.25L136.88 282.549C134.887 284.223 121.793 284.502 118.946 283.665C117.808 283.33 108.255 279.76 100.159 279.76C96.4583 279.76 86.7799 283.386 85.3567 284.502C83.4575 285.99 79.6635 285.617 78.2402 285.896L77.6709 286.175V286.733L78.2402 287.012H80.8021L83.0794 286.733C86.2106 285.71 92.2464 283.051 93.6117 282.549C95.889 281.713 106.372 281.567 106.991 281.713C114.107 283.386 113.697 286.211 118.662 286.454C123.657 286.699 131.719 287.373 134.006 286.781C130.335 289.457 111.201 305.698 110.122 305.698C108.699 305.698 93.0424 302.834 85.3567 304.861C83.6182 305.32 73.3732 313.484 71.6931 315.46C68.8465 318.806 70.7468 317.97 71.4084 317.412C75.4885 313.972 85.3567 307.093 86.4953 306.814C88.1056 306.419 105.852 306.814 103.859 310.16C101.867 313.507 66 345.023 66 346.138Z" fill="#585858"/>
</g>
<g style="mix-blend-mode:hard-light">
<ellipse rx="6.77351" ry="4.50189" transform="matrix(0.341997 -0.939701 -0.941247 -0.337718 95.3203 336.275)" fill="white" fill-opacity="0.45"/>
</g>
<g style="mix-blend-mode:hard-light">
<ellipse rx="4.88703" ry="3.86626" transform="matrix(0.787279 -0.616597 -0.622032 -0.782992 87.6886 316.281)" fill="white" fill-opacity="0.45"/>
</g>
<g style="mix-blend-mode:hard-light">
<ellipse rx="4.51955" ry="3.29899" transform="matrix(-0.138608 -0.990347 -0.990614 0.136686 119.169 317.395)" fill="white" fill-opacity="0.45"/>
</g>
<g style="mix-blend-mode:hard-light">
<ellipse rx="6.16689" ry="3.93655" transform="matrix(-0.0280486 -0.999607 -0.999618 0.0276525 138.558 303.168)" fill="white" fill-opacity="0.45"/>
</g>
<g style="mix-blend-mode:hard-light">
<ellipse rx="5.30728" ry="3.90867" transform="matrix(-0.999682 -0.0252283 -0.0255897 0.999672 115.04 293.641)" fill="white" fill-opacity="0.45"/>
</g>
<g style="mix-blend-mode:hard-light">
<ellipse rx="3.46675" ry="2.55627" transform="matrix(-0.956564 -0.291521 -0.295339 0.955393 140.869 267.492)" fill="white" fill-opacity="0.45"/>
</g>
<g style="mix-blend-mode:hard-light">
<ellipse rx="3.45147" ry="2.56762" transform="matrix(-0.543572 -0.839363 -0.842865 0.538125 152.026 291.164)" fill="white" fill-opacity="0.45"/>
</g>
<g style="mix-blend-mode:hard-light">
<ellipse rx="2.73595" ry="2.02805" transform="matrix(-0.739984 -0.672625 -0.677854 0.735196 160.407 298.271)" fill="white" fill-opacity="0.45"/>
</g>
<g style="mix-blend-mode:hard-light">
<ellipse rx="4.18811" ry="3.12564" transform="matrix(-0.260543 -0.965462 -0.966383 0.257105 181.423 318.594)" fill="white" fill-opacity="0.45"/>
</g>
<g style="mix-blend-mode:hard-light">
<ellipse rx="4.21459" ry="3.106" transform="matrix(-0.976292 -0.216459 -0.219413 0.975632 181.546 275.259)" fill="white" fill-opacity="0.45"/>
</g>
<g style="mix-blend-mode:hard-light">
<ellipse rx="4.19384" ry="3.12142" transform="matrix(-0.510709 -0.859753 -0.862918 0.505344 150.564 252.182)" fill="white" fill-opacity="0.45"/>
</g>
<g style="mix-blend-mode:hard-light">
<ellipse rx="4.21537" ry="3.10542" transform="matrix(-0.989451 -0.144869 -0.146901 0.989151 131.746 234.642)" fill="white" fill-opacity="0.45"/>
</g>
<g style="mix-blend-mode:hard-light">
<ellipse rx="3.21965" ry="2.40478" transform="matrix(0.107018 -0.994257 -0.994417 -0.105522 156.926 336.784)" fill="white" fill-opacity="0.45"/>
</g>
<g style="mix-blend-mode:hard-light">
<path d="M342.088 344.908C350.053 341.268 361.716 349.11 362 349.39C358.302 341.549 350.906 339.868 353.751 326.146C354.604 322.785 358.473 316.512 355.742 307.102C354.889 304.302 347.493 297.861 337.252 297.861C329.512 297.861 321.228 294.708 317.909 291.98C316.012 289.179 319.9 282.178 329.003 286.099C338.959 291.98 344.932 295.06 350.622 296.18C355.173 297.076 353.033 291.91 350.906 288.619C348.915 285.538 348.63 284.138 341.803 272.376C340.381 270.136 331.278 267.808 317.909 273.776C310.228 279.377 295.152 274.616 306.815 266.775C307.668 265.375 334.692 270.011 337.252 264.255C339.203 259.867 335.022 251.526 332.985 248.852C330.425 245.491 326.272 239.61 315.349 242.971C304.425 246.331 295.721 255.293 291.739 258.654C290.032 259.774 286.334 261.118 285.196 257.533C284.058 253.949 294.299 247.545 299.419 244.651C303.401 242.691 312.504 244.651 313.926 239.61C314.495 231.769 296.29 222.527 277.8 225.608C261.301 230.649 259.713 236.858 259.31 237.65C258.172 239.89 256.75 251.092 258.741 253.893C260.448 257.533 261.017 261.156 260.733 261.623C260.448 262.183 257.604 259.774 254.19 257.533C251.914 256.413 247.079 255.573 243.665 255.853C239.98 256.155 227.166 259.774 222.331 277.417C218.462 291.531 223.943 303.462 227.166 307.662C228.873 309.343 232.4 311.303 232.856 305.702C233.425 298.701 239.967 284.978 243.665 284.698C247.363 284.418 248.754 285.385 249.07 286.939C249.354 288.339 247.363 292.353 245.941 294.5C246.13 294.033 244.518 296.012 236.554 307.662C228.304 319.424 239.398 341.601 252.199 342.389C256.75 342.669 255.423 338.375 254.759 336.227C251.914 329.226 248.899 312.703 259.595 302.621C263.198 300.941 269.551 300.717 266.137 311.023C265.284 315.224 257.888 324.465 259.595 338.468C263.577 352.19 284.912 354.431 288.041 354.991C291.17 355.551 291.535 353.025 291.454 352.471C291.17 350.51 288.894 347.149 287.756 345.749C286.803 344.576 282.351 336.694 280.36 332.586C277.99 325.492 275.581 311.751 284.912 313.544C287.756 314.384 292.478 318.641 288.61 328.947C285.196 334.268 286.903 350.51 304.824 354.991C308.522 356.391 317.055 356.951 313.073 352.471C307.384 346.87 299.191 334.379 305.108 324.745C305.108 324.185 309.944 321.664 308.522 332.586C306.53 344.908 316.487 353.591 325.589 351.63C328.187 351.071 334.123 348.549 342.088 344.908Z" fill="#939393"/>
</g>
<g style="mix-blend-mode:hard-light" filter="url(#filter3_d_417_251)">
<path d="M357 346.138C320.471 319.372 314.174 308.498 315.025 309.892C313.607 320.766 316.16 335.543 321.548 343.072C318.712 340.562 315.309 333.592 315.309 333.592C313.04 329.409 313.04 319.651 311.906 308.777C311.338 307.104 298.292 297.066 297.441 300.133C296.307 311.844 297.441 334.707 299.143 337.774C302.546 343.908 304.729 345.882 305.382 346.417C307.084 347.812 304.276 346.445 302.83 345.023C299.427 341.678 296.683 340.414 295.172 324.669C293.754 309.892 295.456 303.758 294.321 297.903C293.922 295.84 293.272 295.198 292.336 294.278C290.351 292.326 281.275 283.683 280.708 285.077C280.254 286.192 280.431 291.868 279.29 293.999C276.454 299.297 273.561 309.39 273.334 312.959C273.05 317.42 274.758 327.764 275.036 329.131C275.603 331.919 277.588 338.332 276.454 338.332C275.319 338.332 273.334 326.9 272.483 325.227C271.632 323.554 271.349 315.19 271.349 313.795C271.349 311.565 275.606 296.639 275.887 295.672C276.454 293.72 277.588 286.981 277.588 286.192C277.588 285.077 277.305 279.5 275.319 280.058C273.334 280.616 260.288 291.769 258.019 293.999C256.939 295.061 250.258 304.646 249.511 309.055C248.943 312.401 248.376 321.881 247.809 320.766V312.959C247.809 311.286 249.511 301.248 254.616 295.672C259.185 290.681 270.214 278.385 270.498 277.828C270.955 276.928 271.065 271.415 269.363 271.972C267.662 272.53 260.622 275.297 258.586 276.155C256.601 276.991 250.645 278.106 247.525 279.5C243.838 281.452 237.599 286.75 236.181 288.702C234.258 291.347 232.494 298.181 232.21 299.576C231.926 300.97 231.898 297.656 232.21 294.278C232.494 291.211 231.643 291.49 236.181 285.356C240.922 278.946 252.063 275.318 253.765 275.039C255.164 274.81 265.677 270.299 265.677 269.742C265.677 269.184 263.258 267.511 261.99 267.511C260.571 267.511 247.257 267.299 246.107 267.511C241.569 268.348 236.936 271.105 236.464 271.415C235.613 271.972 231.926 275.039 231.643 275.039C231.076 275.039 231.926 272.809 233.061 271.415C233.947 270.326 234.479 269.463 237.315 268.069C240.151 266.675 242.137 266.396 244.405 265.838C246.674 265.281 248.092 265.002 249.227 265.002H254.899C255.354 265.002 260.119 263.974 262.434 263.566C263.008 263.464 263.432 263.401 263.601 263.401C263.601 263.401 263.408 263.329 264.258 250.782C264.731 245.577 265.393 242.975 275.603 235.168C276.697 234.331 280.867 233.601 279.857 234.331C276.643 236.655 270.409 241.962 269.363 243.811C266.527 248.83 268.229 258.589 266.244 264.165C265.436 266.433 268.229 268.626 268.513 268.069C271.727 265.002 277.872 257.195 279.006 249.667C278.723 244.09 305.382 235.836 305.382 236.841C305.382 237.677 303.681 238.049 303.114 238.235C296.496 240.373 282.92 246.488 281.559 253.849C280.198 261.21 271.349 269.463 271.632 269.742C271.632 270.857 273.901 274.147 275.036 275.039C276.17 275.932 288.744 266.396 294.889 261.377C297.873 258.94 305.836 254.351 323.534 255.243C332.156 257.027 330.34 258.589 328.355 258.031C319.847 255.801 309.539 257.716 307.935 258.031C302.263 259.146 291.485 268.626 287.231 271.415C281.275 275.318 277.588 276.712 278.439 277.27L286.38 282.567C288.366 284.24 301.412 284.519 304.248 283.683C305.382 283.348 314.9 279.779 322.966 279.779C326.653 279.779 336.296 283.404 337.714 284.519C339.607 286.007 343.387 285.634 344.805 285.913L345.372 286.192V286.75L344.805 287.029H342.252L339.983 286.75C336.864 285.727 330.85 283.069 329.49 282.567C327.221 281.731 316.776 281.586 316.16 281.731C309.069 283.404 309.478 286.228 304.532 286.471C299.555 286.716 291.522 287.389 289.243 286.798C292.901 289.473 311.965 305.71 313.04 305.71C314.458 305.71 330.057 302.846 337.714 304.873C339.446 305.332 349.654 313.494 351.328 315.468C354.164 318.814 352.271 317.978 351.611 317.42C347.546 313.981 337.714 307.104 336.58 306.825C334.976 306.431 317.294 306.825 319.279 310.171C321.265 313.517 357 345.023 357 346.138Z" fill="#585858"/>
</g>
<g style="mix-blend-mode:hard-light">
<ellipse rx="6.77351" ry="4.50189" transform="matrix(-0.341997 -0.939701 0.941247 -0.337718 328.154 336.267)" fill="white" fill-opacity="0.45"/>
</g>
<g style="mix-blend-mode:hard-light">
<ellipse rx="4.88703" ry="3.86626" transform="matrix(-0.787279 -0.616597 0.622032 -0.782992 335.789 316.274)" fill="white" fill-opacity="0.45"/>
</g>
<g style="mix-blend-mode:hard-light">
<ellipse rx="4.51955" ry="3.29899" transform="matrix(0.138608 -0.990347 0.990614 0.136686 304.308 317.387)" fill="white" fill-opacity="0.45"/>
</g>
<g style="mix-blend-mode:hard-light">
<ellipse rx="6.16689" ry="3.93655" transform="matrix(0.0280486 -0.999607 0.999618 0.0276525 284.918 303.161)" fill="white" fill-opacity="0.45"/>
</g>
<g style="mix-blend-mode:hard-light">
<ellipse rx="5.30728" ry="3.90867" transform="matrix(0.999682 -0.0252283 0.0255897 0.999672 308.436 293.634)" fill="white" fill-opacity="0.45"/>
</g>
<g style="mix-blend-mode:hard-light">
<ellipse rx="3.46675" ry="2.55627" transform="matrix(0.956564 -0.291521 0.295339 0.955393 282.608 267.485)" fill="white" fill-opacity="0.45"/>
</g>
<g style="mix-blend-mode:hard-light">
<ellipse rx="3.45147" ry="2.56762" transform="matrix(0.543572 -0.839363 0.842865 0.538125 271.448 291.157)" fill="white" fill-opacity="0.45"/>
</g>
<g style="mix-blend-mode:hard-light">
<ellipse rx="2.73595" ry="2.02805" transform="matrix(0.739984 -0.672625 0.677854 0.735196 263.067 298.264)" fill="white" fill-opacity="0.45"/>
</g>
<g style="mix-blend-mode:hard-light">
<ellipse rx="4.18811" ry="3.12564" transform="matrix(0.260543 -0.965462 0.966383 0.257105 242.051 318.586)" fill="white" fill-opacity="0.45"/>
</g>
<g style="mix-blend-mode:hard-light">
<ellipse rx="4.21459" ry="3.106" transform="matrix(0.976292 -0.216459 0.219413 0.975632 241.931 275.251)" fill="white" fill-opacity="0.45"/>
</g>
<g style="mix-blend-mode:hard-light">
<ellipse rx="4.19384" ry="3.12142" transform="matrix(0.510709 -0.859753 0.862918 0.505344 272.913 252.173)" fill="white" fill-opacity="0.45"/>
</g>
<g style="mix-blend-mode:hard-light">
<ellipse rx="4.21537" ry="3.10542" transform="matrix(0.989451 -0.144869 0.146901 0.989151 291.73 234.633)" fill="white" fill-opacity="0.45"/>
</g>
<g style="mix-blend-mode:hard-light">
<ellipse rx="3.21965" ry="2.40478" transform="matrix(-0.107018 -0.994257 0.994417 -0.105522 266.552 336.778)" fill="white" fill-opacity="0.45"/>
</g>
<g style="mix-blend-mode:hard-light">
<path d="M397.241 187.542C399.041 178.998 412.283 174.369 412.677 174.309C404.167 172.573 398.421 177.478 389.061 166.993C386.862 164.3 384.108 157.454 374.909 154.006C372.147 153.012 362.568 155.069 356.485 163.254C351.888 169.44 344.428 174.175 340.26 175.195C336.878 175.035 333.55 167.738 342.114 162.808C352.763 158.37 358.792 155.439 363.073 151.562C366.498 148.461 361.067 147.079 357.154 146.81C353.49 146.558 352.194 145.948 338.668 144.366C336.019 144.162 328.738 150.044 325.602 164.302C325.55 173.792 312.762 182.993 313.375 168.979C312.754 167.459 332.539 148.634 329.425 143.143C327.051 138.958 317.851 137.309 314.488 137.337C310.261 137.372 303.058 137.172 299.276 147.914C295.494 158.655 297.54 170.975 297.88 176.169C297.769 178.204 296.654 181.964 293.092 180.728C289.53 179.492 290.456 167.475 291.167 161.651C291.954 157.295 298.94 151.193 295.725 147.039C289.749 141.892 271.494 150.913 262.992 167.535C257.251 183.738 261.307 188.724 261.706 189.519C262.834 191.769 271.009 199.609 274.447 199.694C278.392 200.508 281.647 202.222 281.854 202.728C282.136 203.291 278.507 204.122 274.675 205.51C272.421 206.659 268.872 210.021 267.07 212.917C265.125 216.043 260.427 228.45 271.762 242.873C280.829 254.411 293.691 257.17 298.988 257.107C301.355 256.748 305.029 255.102 300.789 251.387C295.489 246.742 288.326 233.301 290.297 230.178C292.268 227.055 293.873 226.522 295.311 227.199C296.608 227.81 298.657 231.803 299.541 234.225C299.278 233.794 299.914 236.266 304.564 249.604C309.135 263.236 333.582 267.64 341.819 257.88C344.748 254.41 340.502 252.901 338.379 252.147C331.052 250.231 315.956 242.753 314.191 228.171C314.978 224.286 318.572 219.074 324.842 227.97C327.718 231.166 330.767 242.607 343.056 249.622C356.471 254.651 370.947 238.94 373.257 236.774C375.566 234.608 373.749 232.805 373.255 232.538C371.507 231.592 367.449 231.4 365.646 231.471C364.135 231.531 355.144 230.372 350.654 229.506C343.533 227.155 331.038 220.857 338.024 214.473C340.39 212.702 346.623 211.475 352.623 220.734C354.88 226.647 368.973 235.002 383.225 223.36C386.55 221.242 392.07 214.757 386.096 215.258C378.207 216.454 363.283 215.527 359.04 205.033C358.589 204.698 359.432 199.324 367.381 206.997C376.121 215.962 389.026 213.201 392.854 204.752C393.947 202.34 395.442 196.087 397.241 187.542Z" fill="#939393"/>
</g>
<g style="mix-blend-mode:hard-light" filter="url(#filter4_d_417_251)">
<path d="M407.415 175.996C364.028 189.458 351.52 188.04 353.15 188.186C361.037 195.822 374.439 202.588 383.716 202.74C380.001 203.528 372.361 202.109 372.361 202.109C367.642 201.44 359.802 195.613 350.385 190.035C348.701 189.493 332.822 194.016 334.777 196.533C343.506 204.439 362.555 217.176 366.038 217.636C373.005 218.555 375.898 217.975 376.72 217.768C378.86 217.229 376.08 218.676 374.071 218.993C369.344 219.738 366.686 221.195 353.131 213.012C340.409 205.331 336.5 200.297 331.116 197.715C329.219 196.806 328.314 196.947 327.014 197.151C324.257 197.586 311.876 199.74 312.656 201.03C313.281 202.062 317.947 205.308 318.976 207.5C321.533 212.95 327.91 221.308 330.641 223.622C334.055 226.514 343.388 231.314 344.653 231.906C347.233 233.114 353.575 235.343 352.895 236.257C352.216 237.171 341.842 231.946 339.988 231.633C338.134 231.32 331.244 226.554 330.124 225.721C328.332 224.39 318.889 212.046 318.281 211.243C317.053 209.62 312.317 204.681 311.684 204.211C310.788 203.545 306.138 200.444 305.396 202.377C304.655 204.31 305.801 221.485 306.234 224.645C306.44 226.15 310.14 237.258 313.234 240.493C315.583 242.948 322.86 249.066 321.624 248.857L315.351 244.196C314.007 243.197 306.962 235.832 305.54 228.387C304.266 221.724 300.994 205.493 300.716 204.931C300.268 204.026 295.904 200.645 295.332 202.349C294.761 204.054 292.767 211.38 292.237 213.533C291.72 215.633 289.048 221.1 288.299 224.447C287.659 228.584 288.178 236.776 288.897 239.084C289.871 242.214 294.305 247.716 295.255 248.777C296.205 249.838 293.525 247.883 290.999 245.614C288.704 243.554 288.419 244.407 286.208 237.087C283.899 229.437 287.657 218.292 288.453 216.754C289.106 215.489 291.78 204.322 291.332 203.989C290.884 203.656 288.091 204.607 287.331 205.629C286.482 206.772 278.336 217.378 277.817 218.431C275.771 222.588 275.212 227.969 275.177 228.534C275.116 229.553 275.371 234.356 275.202 234.584C274.862 235.042 273.579 233.024 273.139 231.277C272.795 229.913 272.42 228.969 272.999 225.85C273.578 222.732 274.543 220.965 275.454 218.804C276.365 216.642 276.99 215.332 277.67 214.418L281.068 209.846C281.298 209.536 282.676 205.924 283.697 203.417C284.166 202.268 284.56 201.351 284.734 201.091C284.609 201.154 283.59 200.938 275.249 193.812C271.351 190.323 269.656 188.236 269.5 175.345C269.483 173.964 271.394 170.166 271.376 171.416C271.317 175.395 271.847 183.588 272.707 185.535C275.04 190.818 283.9 195.273 287.191 200.203C288.529 202.207 291.965 201.266 291.686 200.705C291.148 196.282 288.556 186.668 283.187 181.259C278.537 178.158 287.874 151.741 288.682 152.341C289.354 152.84 288.633 154.434 288.443 155.002C286.196 161.612 282.978 176.206 288.076 181.698C293.175 187.191 294.505 199.251 294.899 199.189C295.795 199.855 299.798 199.99 301.194 199.609C302.591 199.227 302.461 183.399 302.109 175.449C301.939 171.588 303.022 162.43 314.339 148.698C320.938 142.814 321.105 145.21 319.468 146.477C312.579 152.003 307.943 161.454 307.236 162.936C304.734 168.174 305.895 182.521 305.587 187.615C305.156 194.746 304.067 198.55 305.025 198.197L314.038 194.96C316.571 194.358 324.61 184.009 325.637 181.224C326.048 180.11 328.881 170.308 333.713 163.806C335.922 160.834 344.61 155.226 346.356 154.749C348.685 154.112 350.649 150.843 351.723 149.866L352.287 149.576L352.735 149.908L352.619 150.532L351.09 152.59L349.507 154.252C346.817 156.156 341.078 159.416 339.861 160.213C337.83 161.542 331.457 169.874 331.204 170.457C328.301 177.171 330.815 178.528 328.047 182.66C325.263 186.818 320.992 193.695 319.152 195.178C323.493 193.827 347.957 188.156 348.601 187.289C349.45 186.146 356.493 171.864 362.709 166.902C364.115 165.78 376.787 162.426 379.376 162.255C383.763 161.967 381.957 162.994 381.114 163.192C375.916 164.416 364.501 168.234 363.597 168.982C362.319 170.039 352.045 184.526 355.922 184.924C359.8 185.322 406.519 175.33 407.415 175.996Z" fill="#585858"/>
</g>
<g style="mix-blend-mode:hard-light">
<ellipse rx="6.77351" ry="4.50189" transform="matrix(-0.958224 -0.286019 0.290375 -0.956913 382.09 193.367)" fill="white" fill-opacity="0.45"/>
</g>
<g style="mix-blend-mode:hard-light">
<ellipse rx="4.88703" ry="3.86626" transform="matrix(-0.964495 0.264101 -0.257419 -0.9663 370.597 175.313)" fill="white" fill-opacity="0.45"/>
</g>
<g style="mix-blend-mode:hard-light">
<ellipse rx="4.51955" ry="3.29899" transform="matrix(-0.712202 -0.701975 0.700591 -0.713563 352.714 201.246)" fill="white" fill-opacity="0.45"/>
</g>
<g style="mix-blend-mode:hard-light">
<ellipse rx="6.16689" ry="3.93655" transform="matrix(-0.78558 -0.61876 0.618449 -0.785825 329.73 208.322)" fill="white" fill-opacity="0.45"/>
</g>
<g style="mix-blend-mode:hard-light">
<ellipse rx="5.30728" ry="3.90867" transform="matrix(0.576043 -0.817419 0.817627 0.575748 336.11 183.765)" fill="white" fill-opacity="0.45"/>
</g>
<g style="mix-blend-mode:hard-light">
<ellipse rx="3.46675" ry="2.55627" transform="matrix(0.336591 -0.941651 0.942988 0.332828 299.717 188.897)" fill="white" fill-opacity="0.45"/>
</g>
<g style="mix-blend-mode:hard-light">
<ellipse rx="3.45147" ry="2.56762" transform="matrix(-0.349464 -0.93695 0.934667 -0.355524 312.06 211.973)" fill="white" fill-opacity="0.45"/>
</g>
<g style="mix-blend-mode:hard-light">
<ellipse rx="2.73595" ry="2.02805" transform="matrix(-0.0984794 -0.995139 0.994416 -0.105532 312.766 222.94)" fill="white" fill-opacity="0.45"/>
</g>
<g style="mix-blend-mode:hard-light">
<ellipse rx="4.18811" ry="3.12564" transform="matrix(-0.619497 -0.784999 0.78279 -0.622286 316.542 251.93)" fill="white" fill-opacity="0.45"/>
</g>
<g style="mix-blend-mode:hard-light">
<ellipse rx="4.21459" ry="3.106" transform="matrix(0.408605 -0.912711 0.913944 0.40584 281.688 226.178)" fill="white" fill-opacity="0.45"/>
</g>
<g style="mix-blend-mode:hard-light">
<ellipse rx="4.19384" ry="3.12142" transform="matrix(-0.385432 -0.922736 0.920318 -0.391172 281.645 187.546)" fill="white" fill-opacity="0.45"/>
</g>
<g style="mix-blend-mode:hard-light">
<ellipse rx="4.21537" ry="3.10542" transform="matrix(0.473914 -0.880571 0.881543 0.472104 278.79 161.979)" fill="white" fill-opacity="0.45"/>
</g>
<g style="mix-blend-mode:hard-light">
<ellipse rx="3.21965" ry="2.40478" transform="matrix(-0.861851 -0.507161 0.508457 -0.861087 345.757 243.116)" fill="white" fill-opacity="0.45"/>
</g>
<g style="mix-blend-mode:hard-light">
<path d="M215.697 21.97C207.547 18.8345 205.083 5.02474 205.087 4.62578C202.019 12.7515 205.948 19.205 194.108 26.7783C191.099 28.5211 183.903 30.1505 179.035 38.684C177.615 41.2527 178.122 51.0375 185.235 58.3446C190.611 63.8672 194.1 71.9849 194.444 76.2624C193.748 79.5753 186.015 81.7008 182.51 72.4619C179.822 61.2423 177.887 54.8241 174.741 49.9807C172.223 46.106 169.995 51.2484 169.107 55.0691C168.276 58.6457 167.467 59.8286 163.754 72.931C163.131 75.5137 167.781 83.6379 181.358 89.001C190.72 90.5617 197.77 104.651 184.031 101.816C182.432 102.187 166.993 79.6608 161.077 81.862C156.568 83.5398 153.476 92.3607 152.969 95.6854C152.331 99.864 150.988 106.943 160.992 112.385C170.995 117.828 183.483 117.768 188.666 118.257C190.656 118.691 194.191 120.389 192.405 123.71C190.618 127.03 178.902 124.204 173.265 122.576C169.089 121.106 164.176 113.239 159.564 115.752C153.532 120.833 159.534 140.291 174.592 151.329C189.676 159.574 195.243 156.362 196.092 156.095C198.493 155.339 207.534 148.515 208.164 145.134C209.595 141.368 211.805 138.427 212.338 138.304C212.938 138.115 213.182 141.83 213.942 145.834C214.718 148.242 217.473 152.28 220.045 154.52C222.823 156.938 234.324 163.549 250.366 154.653C263.2 147.536 267.969 135.276 268.749 130.036C268.772 127.643 267.731 123.754 263.388 127.349C257.96 131.842 243.551 136.777 240.781 134.334C238.011 131.891 237.74 130.222 238.637 128.91C239.446 127.727 243.715 126.339 246.246 125.851C245.779 126.042 248.321 125.808 262.229 123.338C276.414 120.993 284.65 97.5583 276.325 87.8732C273.364 84.4297 271.2 88.3819 270.117 90.358C267.06 97.2872 257.277 111.001 242.6 110.425C238.889 109.03 234.316 104.653 244.095 99.8771C247.708 97.5464 259.488 96.3564 268.369 85.3396C275.467 72.895 262.258 56.1041 260.487 53.4795C258.716 50.8549 256.647 52.3622 256.305 52.8073C255.093 54.3824 254.258 58.3579 254.041 60.1497C253.86 61.6515 251.286 70.3431 249.717 74.6384C246.263 81.2946 238.059 92.6287 232.866 84.7166C231.494 82.0989 231.274 75.7507 241.37 71.2991C247.566 70.0112 258.057 57.427 248.829 41.5041C247.267 37.8855 241.742 31.4041 241.288 37.3813C241.213 45.3602 237.925 59.9467 226.889 62.4671C226.487 62.8591 221.316 61.1723 230.155 54.544C240.396 47.3418 239.722 34.1616 231.989 29.0386C229.782 27.5764 223.847 25.1056 215.697 21.97Z" fill="#939393"/>
</g>
<g style="mix-blend-mode:hard-light" filter="url(#filter5_d_417_251)">
<path d="M205.916 10.0889C212.306 55.0645 208.917 67.1877 209.321 65.602C218.114 59.0296 226.925 46.8744 228.55 37.7403C228.737 41.5333 226.121 48.8495 226.121 48.8495C224.711 53.4025 217.711 60.2165 210.706 68.6256C209.903 70.2019 211.843 86.5984 214.638 85.0691C223.833 77.7085 239.437 60.9279 240.445 57.5618C242.461 50.8297 242.348 47.881 242.274 47.0367C242.082 44.8388 243.069 47.8136 243.062 49.8469C243.046 54.6321 244.062 57.4885 233.827 69.5692C224.221 80.9081 218.629 83.9667 215.224 88.8715C214.024 90.5996 214.019 91.5156 214.015 92.831C214.005 95.6223 214.163 108.188 215.56 107.623C216.678 107.171 220.626 103.08 222.953 102.413C228.74 100.755 238.006 95.7891 240.725 93.4603C244.123 90.5494 250.347 82.0987 251.132 80.944C252.735 78.589 255.944 72.6826 256.739 73.4989C257.533 74.3152 250.724 83.726 250.12 85.5063C249.517 87.2867 243.716 93.3314 242.716 94.3049C241.116 95.8624 227.428 103.221 226.537 103.694C224.74 104.649 219.111 108.538 218.546 109.089C217.746 109.868 213.945 113.966 215.735 115.005C217.526 116.044 234.664 117.644 237.854 117.719C239.372 117.755 250.927 115.87 254.613 113.329C257.41 111.401 264.608 105.189 264.205 106.376L258.605 111.828C257.405 112.996 249.014 118.78 241.438 119C234.657 119.197 218.111 119.846 217.513 120.032C216.548 120.331 212.516 124.101 214.108 124.937C215.7 125.772 222.615 128.905 224.657 129.771C226.648 130.616 231.62 134.123 234.805 135.394C238.788 136.684 246.958 137.475 249.351 137.133C252.596 136.669 258.734 133.166 259.932 132.397C261.131 131.628 258.774 133.962 256.133 136.096C253.734 138.034 254.53 138.451 246.952 139.469C239.032 140.533 228.626 135.049 227.234 134.019C226.09 133.173 215.49 128.758 215.09 129.147C214.69 129.536 215.185 132.445 216.073 133.358C217.067 134.378 226.242 144.107 227.199 144.786C230.977 147.467 236.201 148.876 236.753 148.999C237.749 149.222 242.532 149.734 242.731 149.938C243.128 150.346 240.932 151.291 239.137 151.448C237.736 151.571 236.744 151.791 233.757 150.723C230.771 149.656 229.18 148.422 227.191 147.179C225.201 145.935 224.008 145.11 223.213 144.293L219.24 140.212C218.953 139.917 215.476 137.832 213.343 136.467C212.527 135.944 211.907 135.527 211.74 135.356C211.736 135.383 211.398 135.837 202.484 143.406C198.42 146.7 196.09 148.041 183.338 146.145C181.972 145.942 178.527 143.451 179.758 143.668C183.676 144.359 191.85 145.139 193.909 144.6C199.495 143.136 205.303 135.098 210.693 132.633C212.885 131.63 212.502 128.089 211.904 128.274C207.452 128.103 197.548 129.133 191.354 133.573C187.553 137.671 162.957 124.251 163.678 123.549C164.278 122.965 165.737 123.93 166.267 124.208C172.436 127.477 186.332 132.976 192.566 128.816C198.799 124.656 210.917 125.26 210.918 124.861C211.718 124.083 212.489 120.153 212.334 118.713C212.179 117.274 196.532 114.885 188.628 113.967C184.789 113.522 175.919 110.996 164.162 97.6383C159.403 90.1882 161.794 90.4041 162.785 92.222C167.145 99.902 175.739 105.982 177.089 106.916C181.862 110.219 196.212 111.354 201.192 112.469C208.163 114.029 211.746 115.708 211.55 114.707L209.787 105.294C209.596 102.697 200.658 93.1144 198.071 91.6577C197.036 91.075 187.81 86.7186 182.159 80.914C179.576 78.2609 175.421 68.7912 175.228 66.9921C174.97 64.5914 172.054 62.1317 171.261 60.9166L171.064 60.3138L171.464 59.9244L172.061 60.1379L173.849 61.9746L175.238 63.8019C176.691 66.7607 178.996 72.9442 179.589 74.2732C180.579 76.4899 187.791 84.107 188.327 84.4491C194.494 88.383 196.232 86.1169 199.872 89.5067C203.534 92.917 209.644 98.2267 210.816 100.279C210.173 95.7792 208.464 70.7242 207.711 69.9509C206.718 68.9305 193.738 59.7053 189.827 52.7799C188.943 51.2134 187.647 38.1693 187.891 35.5859C188.304 31.2088 189.03 33.1553 189.092 34.019C189.473 39.3453 191.427 51.2224 192.022 52.2334C192.863 53.6632 205.531 66.1109 206.541 62.3461C207.55 58.5813 205.116 10.8676 205.916 10.0889Z" fill="#585858"/>
</g>
<g style="mix-blend-mode:hard-light">
<ellipse rx="6.77351" ry="4.50189" transform="matrix(-0.434779 0.900537 -0.89855 -0.438871 219.039 37.8545)" fill="white" fill-opacity="0.45"/>
</g>
<g style="mix-blend-mode:hard-light">
<ellipse rx="4.88703" ry="3.86626" transform="matrix(0.107342 0.994222 -0.994941 0.100457 199.387 46.3302)" fill="white" fill-opacity="0.45"/>
</g>
<g style="mix-blend-mode:hard-light">
<ellipse rx="4.51955" ry="3.29899" transform="matrix(-0.806312 0.591491 -0.593054 -0.805162 222.144 68.1108)" fill="white" fill-opacity="0.45"/>
</g>
<g style="mix-blend-mode:hard-light">
<ellipse rx="6.16689" ry="3.93655" transform="matrix(-0.735826 0.67717 -0.677462 -0.735558 225.476 91.927)" fill="white" fill-opacity="0.45"/>
</g>
<g style="mix-blend-mode:hard-light">
<ellipse rx="5.30728" ry="3.90867" transform="matrix(-0.715398 -0.698717 0.698459 -0.71565 202.246 81.721)" fill="white" fill-opacity="0.45"/>
</g>
<g style="mix-blend-mode:hard-light">
<ellipse rx="3.46675" ry="2.55627" transform="matrix(-0.876132 -0.482071 0.478569 -0.87805 201.525 118.468)" fill="white" fill-opacity="0.45"/>
</g>
<g style="mix-blend-mode:hard-light">
<ellipse rx="3.45147" ry="2.56762" transform="matrix(-0.980604 0.195998 -0.202345 -0.979314 226.271 109.952)" fill="white" fill-opacity="0.45"/>
</g>
<g style="mix-blend-mode:hard-light">
<ellipse rx="2.73595" ry="2.02805" transform="matrix(-0.998135 -0.0610459 0.0539678 -0.998543 237.21 111)" fill="white" fill-opacity="0.45"/>
</g>
<g style="mix-blend-mode:hard-light">
<ellipse rx="4.18811" ry="3.12564" transform="matrix(-0.873535 0.486761 -0.489867 -0.871797 266.431 111.882)" fill="white" fill-opacity="0.45"/>
</g>
<g style="mix-blend-mode:hard-light">
<ellipse rx="4.21459" ry="3.106" transform="matrix(-0.836107 -0.548566 0.546032 -0.837764 235.463 142.197)" fill="white" fill-opacity="0.45"/>
</g>
<g style="mix-blend-mode:hard-light">
<ellipse rx="4.19384" ry="3.12142" transform="matrix(-0.972292 0.233769 -0.239821 -0.970817 197.315 136.096)" fill="white" fill-opacity="0.45"/>
</g>
<g style="mix-blend-mode:hard-light">
<ellipse rx="4.21537" ry="3.10542" transform="matrix(-0.793989 -0.607932 0.6063 -0.795236 171.621 134.848)" fill="white" fill-opacity="0.45"/>
</g>
<g style="mix-blend-mode:hard-light">
<ellipse rx="3.21965" ry="2.40478" transform="matrix(-0.637779 0.770219 -0.769259 -0.638937 262.375 81.6377)" fill="white" fill-opacity="0.45"/>
</g>
<g style="mix-blend-mode:hard-light">
<path d="M215.697 397.019C207.547 400.153 205.083 413.959 205.087 414.358C202.019 406.235 205.948 399.783 194.108 392.212C191.099 390.469 183.903 388.84 179.035 380.309C177.615 377.741 178.122 367.959 185.235 360.654C190.611 355.133 194.1 347.018 194.444 342.742C193.748 339.43 186.015 337.305 182.51 346.541C179.822 357.757 177.887 364.174 174.741 369.016C172.223 372.89 169.995 367.749 169.107 363.929C168.276 360.353 167.467 359.171 163.754 346.072C163.131 343.49 167.781 335.368 181.358 330.007C190.72 328.446 197.77 314.361 184.031 317.195C182.432 316.824 166.993 339.344 161.077 337.144C156.568 335.466 153.476 326.648 152.969 323.324C152.331 319.147 150.988 312.07 160.992 306.629C170.995 301.188 183.483 301.248 188.666 300.758C190.656 300.325 194.191 298.627 192.405 295.308C190.618 291.988 178.902 294.813 173.265 296.441C169.089 297.91 164.176 305.775 159.564 303.263C153.532 298.183 159.534 278.731 174.592 267.697C189.676 259.454 195.243 262.664 196.092 262.932C198.493 263.687 207.534 270.51 208.164 273.889C209.595 277.654 211.805 280.594 212.338 280.718C212.938 280.907 213.182 277.192 213.942 273.19C214.718 270.783 217.473 266.745 220.045 264.506C222.823 262.089 234.324 255.48 250.366 264.374C263.2 271.488 267.969 283.744 268.749 288.983C268.772 291.376 267.731 295.264 263.388 291.67C257.96 287.178 243.551 282.244 240.781 284.686C238.011 287.128 237.74 288.797 238.637 290.109C239.446 291.292 243.715 292.68 246.246 293.167C245.779 292.976 248.321 293.21 262.229 295.679C276.414 298.023 284.65 321.452 276.325 331.134C273.364 334.577 271.2 330.626 270.117 328.65C267.06 321.723 257.277 308.012 242.6 308.589C238.889 309.984 234.316 314.359 244.095 319.134C247.708 321.464 259.488 322.653 268.369 333.667C275.467 346.108 262.258 362.894 260.487 365.518C258.716 368.142 256.647 366.635 256.305 366.19C255.093 364.615 254.258 360.641 254.041 358.85C253.86 357.348 251.286 348.659 249.717 344.365C246.263 337.711 238.059 326.38 232.866 334.29C231.494 336.907 231.274 343.253 241.37 347.703C247.566 348.991 258.057 361.572 248.829 377.49C247.267 381.108 241.742 387.587 241.288 381.612C241.213 373.635 237.925 359.053 226.889 356.533C226.487 356.141 221.316 357.827 230.155 364.454C240.396 371.654 239.722 384.83 231.989 389.952C229.782 391.414 223.847 393.884 215.697 397.019Z" fill="#939393"/>
</g>
<g style="mix-blend-mode:hard-light" filter="url(#filter6_d_417_251)">
<path d="M205.916 408.896C212.306 363.933 208.917 351.813 209.321 353.398C218.114 359.969 226.925 372.121 228.55 381.252C228.737 377.46 226.121 370.146 226.121 370.146C224.711 365.594 217.711 358.782 210.706 350.375C209.903 348.8 211.843 332.408 214.638 333.937C223.833 341.295 239.437 358.071 240.445 361.436C242.461 368.166 242.348 371.114 242.274 371.958C242.082 374.156 243.069 371.182 243.062 369.149C243.046 364.365 244.062 361.509 233.827 349.432C224.221 338.096 218.629 335.039 215.224 330.135C214.024 328.408 214.019 327.492 214.015 326.177C214.005 323.386 214.163 310.824 215.56 311.389C216.678 311.841 220.626 315.93 222.953 316.597C228.74 318.255 238.006 323.22 240.725 325.548C244.123 328.458 250.347 336.906 251.132 338.061C252.735 340.415 255.944 346.32 256.739 345.504C257.533 344.687 250.724 335.279 250.12 333.5C249.517 331.72 243.716 325.677 242.716 324.704C241.116 323.146 227.428 315.789 226.537 315.317C224.74 314.362 219.111 310.474 218.546 309.923C217.746 309.145 213.945 305.048 215.735 304.009C217.526 302.97 234.664 301.371 237.854 301.296C239.372 301.26 250.927 303.145 254.613 305.685C257.41 307.613 264.608 313.822 264.205 312.635L258.605 307.186C257.405 306.018 249.014 300.235 241.438 300.015C234.657 299.818 218.111 299.169 217.513 298.984C216.547 298.685 212.516 294.915 214.108 294.08C215.7 293.246 222.615 290.113 224.657 289.247C226.648 288.403 231.62 284.897 234.805 283.626C238.788 282.336 246.958 281.545 249.351 281.888C252.596 282.352 258.734 285.853 259.932 286.622C261.131 287.391 258.774 285.057 256.133 282.924C253.734 280.987 254.53 280.57 246.952 279.552C239.032 278.489 228.626 283.971 227.234 285C226.09 285.846 215.49 290.26 215.09 289.871C214.69 289.482 215.185 286.574 216.073 285.662C217.067 284.642 226.242 274.915 227.199 274.236C230.977 271.556 236.201 270.148 236.753 270.025C237.749 269.802 242.532 269.29 242.731 269.086C243.128 268.678 240.932 267.733 239.137 267.576C237.736 267.454 236.744 267.234 233.757 268.301C230.771 269.368 229.18 270.602 227.191 271.845C225.201 273.087 224.008 273.913 223.213 274.729L219.24 278.81C218.924 279.134 215.096 281.604 213.244 282.908C212.767 283.244 212.422 283.502 212.3 283.627C212.24 283.689 212.24 283.706 212.286 283.685C212.185 283.847 211.326 283.122 202.484 275.616C198.42 272.323 196.09 270.982 183.338 272.878C181.972 273.081 178.527 275.571 179.758 275.354C183.676 274.664 191.85 273.883 193.909 274.423C199.495 275.886 205.303 283.922 210.693 286.387C212.885 287.389 212.502 290.929 211.904 290.744C207.452 290.915 197.548 289.886 191.354 285.447C187.553 281.35 162.957 294.766 163.678 295.468C164.278 296.052 165.737 295.087 166.267 294.809C172.436 291.54 186.332 286.043 192.566 290.202C198.799 294.361 210.917 293.757 210.918 294.156C211.718 294.934 212.489 298.863 212.334 300.302C212.179 301.741 196.532 304.129 188.628 305.047C184.789 305.492 175.919 308.017 164.162 321.371C159.403 328.819 161.794 328.603 162.785 326.786C167.145 319.108 175.739 313.03 177.089 312.096C181.862 308.794 196.212 307.659 201.192 306.545C208.163 304.985 211.746 303.306 211.55 304.307L209.787 313.718C209.596 316.314 200.658 325.894 198.071 327.35C197.036 327.932 187.81 332.288 182.159 338.091C179.576 340.743 175.421 350.21 175.228 352.009C174.97 354.409 172.054 356.868 171.261 358.082L171.064 358.685L171.464 359.074L172.061 358.861L173.849 357.025L175.238 355.198C176.691 352.24 178.996 346.058 179.589 344.729C180.579 342.513 187.791 334.899 188.327 334.556C194.494 330.624 196.232 332.889 199.872 329.5C203.534 326.091 209.644 320.783 210.816 318.731C210.173 323.23 208.464 348.277 207.711 349.051C206.718 350.071 193.738 359.293 189.827 366.217C188.943 367.783 187.647 380.823 187.891 383.406C188.304 387.782 189.03 385.836 189.092 384.972C189.473 379.648 191.427 367.774 192.022 366.763C192.863 365.334 205.531 352.889 206.541 356.653C207.55 360.417 205.116 408.117 205.916 408.896Z" fill="#585858"/>
</g>
<g style="mix-blend-mode:hard-light">
<ellipse rx="6.77196" ry="4.50164" transform="matrix(-0.434878 -0.900489 -0.898599 0.438771 219.039 381.14)" fill="white" fill-opacity="0.45"/>
</g>
<g style="mix-blend-mode:hard-light">
<ellipse rx="4.88566" ry="3.86625" transform="matrix(0.107372 -0.994219 -0.994944 -0.100429 199.387 372.666)" fill="white" fill-opacity="0.45"/>
</g>
<g style="mix-blend-mode:hard-light">
<ellipse rx="4.5191" ry="3.29838" transform="matrix(-0.806391 -0.591382 -0.593163 0.805082 222.144 350.892)" fill="white" fill-opacity="0.45"/>
</g>
<g style="mix-blend-mode:hard-light">
<ellipse rx="6.16609" ry="3.93595" transform="matrix(-0.735922 -0.677067 -0.677565 0.735463 225.476 327.081)" fill="white" fill-opacity="0.45"/>
</g>
<g style="mix-blend-mode:hard-light">
<ellipse rx="5.30655" ry="3.9081" transform="matrix(-0.715497 0.698616 0.69856 0.715552 202.246 337.285)" fill="white" fill-opacity="0.45"/>
</g>
<g style="mix-blend-mode:hard-light">
<ellipse rx="3.46652" ry="2.55572" transform="matrix(-0.87619 0.481966 0.478673 0.877993 201.525 300.549)" fill="white" fill-opacity="0.45"/>
</g>
<g style="mix-blend-mode:hard-light">
<ellipse rx="3.45143" ry="2.56693" transform="matrix(-0.980615 -0.195945 -0.202399 0.979303 226.271 309.062)" fill="white" fill-opacity="0.45"/>
</g>
<g style="mix-blend-mode:hard-light">
<ellipse rx="2.73594" ry="2.02748" transform="matrix(-0.998136 0.0610287 0.053983 0.998542 237.21 308.014)" fill="white" fill-opacity="0.45"/>
</g>
<g style="mix-blend-mode:hard-light">
<ellipse rx="4.18783" ry="3.12497" transform="matrix(-0.873594 -0.486656 -0.489972 0.871738 266.431 307.132)" fill="white" fill-opacity="0.45"/>
</g>
<g style="mix-blend-mode:hard-light">
<ellipse rx="4.21423" ry="3.10539" transform="matrix(-0.836178 0.548458 0.546141 0.837694 235.463 276.826)" fill="white" fill-opacity="0.45"/>
</g>
<g style="mix-blend-mode:hard-light">
<ellipse rx="4.19378" ry="3.12058" transform="matrix(-0.972307 -0.233707 -0.239885 0.970801 197.315 282.926)" fill="white" fill-opacity="0.45"/>
</g>
<g style="mix-blend-mode:hard-light">
<ellipse rx="4.21493" ry="3.10487" transform="matrix(-0.794072 0.607824 0.606408 0.795154 171.621 284.173)" fill="white" fill-opacity="0.45"/>
</g>
<g style="mix-blend-mode:hard-light">
<ellipse rx="3.21911" ry="2.4045" transform="matrix(-0.637886 -0.770131 -0.769348 0.63883 262.375 337.368)" fill="white" fill-opacity="0.45"/>
</g>
<g style="mix-blend-mode:hard-light">
<path d="M20.7447 187.542C18.9464 178.998 5.71328 174.369 5.31908 174.309C13.8235 172.573 19.5662 177.478 28.9199 166.993C31.1175 164.3 33.869 157.454 43.0618 154.006C45.8219 153.012 55.3951 155.069 61.4737 163.254C66.0679 169.44 73.5224 174.175 77.6879 175.195C81.0671 175.035 84.3933 167.738 75.8351 162.808C65.193 158.37 59.1682 155.439 54.8898 151.562C51.4671 148.461 56.8947 147.079 60.8054 146.81C64.4663 146.558 65.7619 145.948 79.279 144.366C81.9261 144.162 89.2025 150.044 92.3358 164.302C92.3877 173.792 105.168 182.993 104.555 168.979C105.175 167.459 85.4038 148.634 88.5158 143.143C90.8878 138.958 100.082 137.309 103.443 137.337C107.667 137.372 114.864 137.172 118.644 147.914C122.424 158.655 120.379 170.975 120.039 176.169C120.151 178.204 121.264 181.964 124.824 180.728C128.384 179.492 127.458 167.475 126.748 161.651C125.961 157.295 118.98 151.193 122.192 147.039C128.165 141.892 146.408 150.913 154.904 167.535C160.641 183.738 156.588 188.724 156.189 189.519C155.062 191.769 146.892 199.609 143.457 199.694C139.514 200.508 136.261 202.222 136.054 202.728C135.772 203.291 139.4 204.122 143.229 205.51C145.481 206.659 149.027 210.021 150.828 212.917C152.773 216.043 157.467 228.45 146.14 242.873C137.079 254.411 124.226 257.17 118.932 257.107C116.567 256.748 112.895 255.102 117.132 251.387C122.428 246.742 129.587 233.301 127.617 230.178C125.647 227.055 124.044 226.522 122.606 227.199C121.311 227.81 119.263 231.803 118.379 234.225C118.642 233.794 118.006 236.266 113.36 249.604C108.792 263.236 84.3614 267.64 76.1293 257.88C73.2024 254.41 77.4457 252.901 79.5674 252.147C86.8897 250.231 101.975 242.753 103.739 228.171C102.952 224.286 99.3617 219.074 93.095 227.97C90.2212 231.166 87.1748 242.607 74.8941 249.622C61.488 254.651 47.0214 238.94 44.7134 236.774C42.4054 234.608 44.2214 232.805 44.7149 232.538C46.4616 231.592 50.5166 231.4 52.3188 231.471C53.8292 231.531 62.8136 230.372 67.3008 229.506C74.4167 227.155 86.9031 220.857 79.9222 214.473C77.5576 212.702 71.3294 211.475 65.3328 220.734C63.0774 226.647 48.9944 235.002 34.7512 223.36C31.4293 221.242 25.9129 214.757 31.8822 215.258C39.7662 216.454 54.68 215.527 58.9206 205.033C59.3713 204.698 58.529 199.324 50.5846 206.997C41.8511 215.962 28.9546 213.201 25.1292 204.752C24.0373 202.34 22.543 196.087 20.7447 187.542Z" fill="#939393"/>
</g>
<g style="mix-blend-mode:hard-light" filter="url(#filter7_d_417_251)">
<path d="M10.5775 175.996C53.9352 189.458 66.4347 188.04 64.8061 188.186C56.9242 195.822 43.5313 202.588 34.2613 202.74C37.9738 203.528 45.6077 202.109 45.6077 202.109C50.3239 201.44 58.1592 195.613 67.5691 190.035C69.2518 189.493 85.1205 194.016 83.1673 196.533C74.444 204.439 55.4079 217.176 51.9267 217.636C44.9644 218.555 42.0731 217.975 41.2519 217.768C39.1139 217.229 41.892 218.676 43.8991 218.993C48.6228 219.738 51.2796 221.195 64.8252 213.012C77.539 205.331 81.4454 200.297 86.8257 197.715C88.7214 196.806 89.6259 196.947 90.9244 197.151C93.6798 197.586 106.052 199.74 105.273 201.03C104.649 202.062 99.9859 205.308 98.9577 207.5C96.402 212.95 90.0297 221.308 87.3 223.622C83.8879 226.514 74.5612 231.314 73.2972 231.906C70.719 233.114 64.3816 235.343 65.0607 236.257C65.7398 237.171 76.1067 231.946 77.9592 231.633C79.8118 231.32 86.6975 226.554 87.8168 225.721C89.6078 224.39 99.0439 212.046 99.6518 211.243C100.879 209.62 105.611 204.681 106.245 204.211C107.14 203.545 111.787 200.444 112.528 202.377C113.269 204.31 112.123 221.485 111.691 224.645C111.485 226.15 107.788 237.258 104.695 240.493C102.348 242.948 95.0762 249.066 96.3113 248.857L102.58 244.196C103.923 243.197 110.963 235.832 112.385 228.387C113.657 221.724 116.927 205.493 117.205 204.931C117.653 204.026 122.014 200.645 122.585 202.349C123.156 204.054 125.149 211.38 125.679 213.533C126.195 215.633 128.865 221.1 129.613 224.447C130.253 228.584 129.735 236.776 129.017 239.084C128.043 242.214 123.612 247.716 122.663 248.777C121.713 249.838 124.391 247.883 126.916 245.614C129.209 243.554 129.494 244.407 131.703 237.087C134.011 229.437 130.255 218.292 129.46 216.754C128.807 215.489 126.135 204.322 126.583 203.989C127.031 203.656 129.822 204.607 130.581 205.629C131.43 206.772 139.57 217.378 140.088 218.431C142.133 222.588 142.692 227.969 142.726 228.534C142.788 229.553 142.533 234.356 142.702 234.584C143.042 235.042 144.323 233.024 144.764 231.277C145.107 229.913 145.482 228.969 144.904 225.85C144.325 222.732 143.361 220.965 142.45 218.804C141.54 216.642 140.915 215.332 140.236 214.418L136.84 209.846L133.784 205.731C133.377 205.183 134.549 205.284 136.648 205.376C142.45 205.629 138.153 203.192 138.153 203.192C128.972 200.876 133.09 201.989 142.655 193.812C146.551 190.323 148.244 188.236 148.401 175.345C148.417 173.964 146.507 170.166 146.526 171.416C146.584 175.395 146.055 183.588 145.196 185.535C142.864 190.818 134.01 195.273 130.721 200.203C129.384 202.207 125.951 201.266 126.229 200.705C126.767 196.282 129.357 186.668 134.722 181.259C139.369 178.158 130.038 151.741 129.231 152.341C128.56 152.84 129.28 154.434 129.47 155.002C131.715 161.612 134.931 176.206 129.836 181.698C124.741 187.191 123.412 199.251 123.018 199.189C122.122 199.855 118.123 199.99 116.727 199.609C115.332 199.227 115.461 183.399 115.813 175.449C115.983 171.588 114.901 162.43 103.591 148.698C96.9969 142.814 96.8298 145.21 98.4659 146.477C105.35 152.003 109.982 161.454 110.69 162.936C113.189 168.174 112.029 182.521 112.337 187.615C112.768 194.746 113.856 198.55 112.899 198.197L103.892 194.96C101.36 194.358 93.327 184.009 92.3009 181.224C91.8904 180.11 89.0588 170.308 84.23 163.806C82.023 160.834 73.3405 155.226 71.5962 154.749C69.2686 154.112 67.3053 150.843 66.2325 149.866L65.6691 149.576L65.2214 149.908L65.3371 150.532L66.865 152.59L68.4471 154.252C71.1354 156.156 76.8697 159.416 78.0866 160.213C80.1164 161.542 86.4852 169.874 86.7375 170.458C89.6386 177.171 87.1264 178.528 89.8924 182.66C92.675 186.818 96.9425 193.695 98.7815 195.178C94.4437 193.827 69.9958 188.156 69.3525 187.289C68.5036 186.146 61.4651 171.864 55.2539 166.902C53.849 165.78 41.1856 162.426 38.598 162.255C34.2139 161.967 36.0188 162.994 36.8611 163.192C42.0556 164.416 53.463 168.234 54.366 168.982C55.6429 170.039 65.9105 184.526 62.0357 184.924C58.1609 185.322 11.4729 175.33 10.5775 175.996Z" fill="#585858"/>
</g>
<g style="mix-blend-mode:hard-light">
<ellipse rx="6.76933" ry="4.50163" transform="matrix(0.958171 -0.286195 -0.290197 -0.956967 35.8859 193.367)" fill="white" fill-opacity="0.45"/>
</g>
<g style="mix-blend-mode:hard-light">
<ellipse rx="4.88397" ry="3.86609" transform="matrix(0.96445 0.264266 0.257258 -0.966343 47.37 175.313)" fill="white" fill-opacity="0.45"/>
</g>
<g style="mix-blend-mode:hard-light">
<ellipse rx="4.51801" ry="3.2979" transform="matrix(0.711966 -0.702214 -0.700352 -0.713798 65.2429 201.246)" fill="white" fill-opacity="0.45"/>
</g>
<g style="mix-blend-mode:hard-light">
<ellipse rx="6.16434" ry="3.93554" transform="matrix(0.785378 -0.619016 -0.618192 -0.786027 88.2112 208.322)" fill="white" fill-opacity="0.45"/>
</g>
<g style="mix-blend-mode:hard-light">
<ellipse rx="5.3061" ry="3.90692" transform="matrix(-0.575785 -0.817601 -0.817445 0.576006 81.8341 183.765)" fill="white" fill-opacity="0.45"/>
</g>
<g style="mix-blend-mode:hard-light">
<ellipse rx="3.46648" ry="2.55475" transform="matrix(-0.33639 -0.941723 -0.942917 0.333027 118.203 188.897)" fill="white" fill-opacity="0.45"/>
</g>
<g style="mix-blend-mode:hard-light">
<ellipse rx="3.45119" ry="2.56612" transform="matrix(0.349258 -0.937027 -0.934588 -0.355733 105.869 211.973)" fill="white" fill-opacity="0.45"/>
</g>
<g style="mix-blend-mode:hard-light">
<ellipse rx="2.73593" ry="2.02671" transform="matrix(0.0984139 -0.995145 -0.994408 -0.105602 105.164 222.94)" fill="white" fill-opacity="0.45"/>
</g>
<g style="mix-blend-mode:hard-light">
<ellipse rx="4.18703" ry="3.12436" transform="matrix(0.61924 -0.785202 -0.782586 -0.622543 101.39 251.93)" fill="white" fill-opacity="0.45"/>
</g>
<g style="mix-blend-mode:hard-light">
<ellipse rx="4.21412" ry="3.10426" transform="matrix(-0.408377 -0.912814 -0.913843 0.406068 136.221 226.178)" fill="white" fill-opacity="0.45"/>
</g>
<g style="mix-blend-mode:hard-light">
<ellipse rx="4.19342" ry="3.11964" transform="matrix(0.385211 -0.922828 -0.920223 -0.391395 136.264 187.546)" fill="white" fill-opacity="0.45"/>
</g>
<g style="mix-blend-mode:hard-light">
<ellipse rx="4.21474" ry="3.1038" transform="matrix(-0.473667 -0.880704 -0.881411 0.47235 139.117 161.979)" fill="white" fill-opacity="0.45"/>
</g>
<g style="mix-blend-mode:hard-light">
<ellipse rx="3.21805" ry="2.40436" transform="matrix(0.861702 -0.507414 -0.508204 -0.861237 72.1946 243.116)" fill="white" fill-opacity="0.45"/>
</g>
</g>
<defs>
<filter id="filter0_d_417_251" x="62" y="52" width="144" height="156" filterUnits="userSpaceOnUse" color-interpolation-filters="sRGB">
<feFlood flood-opacity="0" result="BackgroundImageFix"/>
<feColorMatrix in="SourceAlpha" type="matrix" values="0 0 0 0 0 0 0 0 0 0 0 0 0 0 0 0 0 0 127 0" result="hardAlpha"/>
<feOffset dy="4"/>
<feGaussianBlur stdDeviation="2"/>
<feComposite in2="hardAlpha" operator="out"/>
<feColorMatrix type="matrix" values="0 0 0 0 0 0 0 0 0 0 0 0 0 0 0 0 0 0 0.25 0"/>
<feBlend mode="normal" in2="BackgroundImageFix" result="effect1_dropShadow_417_251"/>
<feBlend mode="normal" in="SourceGraphic" in2="effect1_dropShadow_417_251" result="shape"/>
</filter>
<filter id="filter1_d_417_251" x="218" y="52" width="143" height="156" filterUnits="userSpaceOnUse" color-interpolation-filters="sRGB">
<feFlood flood-opacity="0" result="BackgroundImageFix"/>
<feColorMatrix in="SourceAlpha" type="matrix" values="0 0 0 0 0 0 0 0 0 0 0 0 0 0 0 0 0 0 127 0" result="hardAlpha"/>
<feOffset dy="4"/>
<feGaussianBlur stdDeviation="2"/>
<feComposite in2="hardAlpha" operator="out"/>
<feColorMatrix type="matrix" values="0 0 0 0 0 0 0 0 0 0 0 0 0 0 0 0 0 0 0.25 0"/>
<feBlend mode="normal" in2="BackgroundImageFix" result="effect1_dropShadow_417_251"/>
<feBlend mode="normal" in="SourceGraphic" in2="effect1_dropShadow_417_251" result="shape"/>
</filter>
<filter id="filter2_d_417_251" x="62" y="234" width="134" height="121" filterUnits="userSpaceOnUse" color-interpolation-filters="sRGB">
<feFlood flood-opacity="0" result="BackgroundImageFix"/>
<feColorMatrix in="SourceAlpha" type="matrix" values="0 0 0 0 0 0 0 0 0 0 0 0 0 0 0 0 0 0 127 0" result="hardAlpha"/>
<feOffset dy="4"/>
<feGaussianBlur stdDeviation="2"/>
<feComposite in2="hardAlpha" operator="out"/>
<feColorMatrix type="matrix" values="0 0 0 0 0 0 0 0 0 0 0 0 0 0 0 0 0 0 0.25 0"/>
<feBlend mode="normal" in2="BackgroundImageFix" result="effect1_dropShadow_417_251"/>
<feBlend mode="normal" in="SourceGraphic" in2="effect1_dropShadow_417_251" result="shape"/>
</filter>
<filter id="filter3_d_417_251" x="218" y="200" width="143" height="155" filterUnits="userSpaceOnUse" color-interpolation-filters="sRGB">
<feFlood flood-opacity="0" result="BackgroundImageFix"/>
<feColorMatrix in="SourceAlpha" type="matrix" values="0 0 0 0 0 0 0 0 0 0 0 0 0 0 0 0 0 0 127 0" result="hardAlpha"/>
<feOffset dy="4"/>
<feGaussianBlur stdDeviation="2"/>
<feComposite in2="hardAlpha" operator="out"/>
<feColorMatrix type="matrix" values="0 0 0 0 0 0 0 0 0 0 0 0 0 0 0 0 0 0 0.25 0"/>
<feBlend mode="normal" in2="BackgroundImageFix" result="effect1_dropShadow_417_251"/>
<feBlend mode="normal" in="SourceGraphic" in2="effect1_dropShadow_417_251" result="shape"/>
</filter>
<filter id="filter4_d_417_251" x="205.165" y="144.905" width="206.25" height="112.169" filterUnits="userSpaceOnUse" color-interpolation-filters="sRGB">
<feFlood flood-opacity="0" result="BackgroundImageFix"/>
<feColorMatrix in="SourceAlpha" type="matrix" values="0 0 0 0 0 0 0 0 0 0 0 0 0 0 0 0 0 0 127 0" result="hardAlpha"/>
<feOffset dy="4"/>
<feGaussianBlur stdDeviation="2"/>
<feComposite in2="hardAlpha" operator="out"/>
<feColorMatrix type="matrix" values="0 0 0 0 0 0 0 0 0 0 0 0 0 0 0 0 0 0 0.25 0"/>
<feBlend mode="normal" in2="BackgroundImageFix" result="effect1_dropShadow_417_251"/>
<feBlend mode="normal" in="SourceGraphic" in2="effect1_dropShadow_417_251" result="shape"/>
</filter>
<filter id="filter5_d_417_251" x="157.301" y="10.0889" width="110.92" height="207.158" filterUnits="userSpaceOnUse" color-interpolation-filters="sRGB">
<feFlood flood-opacity="0" result="BackgroundImageFix"/>
<feColorMatrix in="SourceAlpha" type="matrix" values="0 0 0 0 0 0 0 0 0 0 0 0 0 0 0 0 0 0 127 0" result="hardAlpha"/>
<feOffset dy="4"/>
<feGaussianBlur stdDeviation="2"/>
<feComposite in2="hardAlpha" operator="out"/>
<feColorMatrix type="matrix" values="0 0 0 0 0 0 0 0 0 0 0 0 0 0 0 0 0 0 0.25 0"/>
<feBlend mode="normal" in2="BackgroundImageFix" result="effect1_dropShadow_417_251"/>
<feBlend mode="normal" in="SourceGraphic" in2="effect1_dropShadow_417_251" result="shape"/>
</filter>
<filter id="filter6_d_417_251" x="157.301" y="209.794" width="110.92" height="207.102" filterUnits="userSpaceOnUse" color-interpolation-filters="sRGB">
<feFlood flood-opacity="0" result="BackgroundImageFix"/>
<feColorMatrix in="SourceAlpha" type="matrix" values="0 0 0 0 0 0 0 0 0 0 0 0 0 0 0 0 0 0 127 0" result="hardAlpha"/>
<feOffset dy="4"/>
<feGaussianBlur stdDeviation="2"/>
<feComposite in2="hardAlpha" operator="out"/>
<feColorMatrix type="matrix" values="0 0 0 0 0 0 0 0 0 0 0 0 0 0 0 0 0 0 0.25 0"/>
<feBlend mode="normal" in2="BackgroundImageFix" result="effect1_dropShadow_417_251"/>
<feBlend mode="normal" in="SourceGraphic" in2="effect1_dropShadow_417_251" result="shape"/>
</filter>
<filter id="filter7_d_417_251" x="6.57715" y="144.905" width="145.823" height="112.169" filterUnits="userSpaceOnUse" color-interpolation-filters="sRGB">
<feFlood flood-opacity="0" result="BackgroundImageFix"/>
<feColorMatrix in="SourceAlpha" type="matrix" values="0 0 0 0 0 0 0 0 0 0 0 0 0 0 0 0 0 0 127 0" result="hardAlpha"/>
<feOffset dy="4"/>
<feGaussianBlur stdDeviation="2"/>
<feComposite in2="hardAlpha" operator="out"/>
<feColorMatrix type="matrix" values="0 0 0 0 0 0 0 0 0 0 0 0 0 0 0 0 0 0 0.25 0"/>
<feBlend mode="normal" in2="BackgroundImageFix" result="effect1_dropShadow_417_251"/>
<feBlend mode="normal" in="SourceGraphic" in2="effect1_dropShadow_417_251" result="shape"/>
</filter>
<clipPath id="clip0_417_251">
<rect width="418" height="418" fill="white"/>
</clipPath>
</defs>
</svg>
