<svg width="537" height="88" viewBox="0 0 537 88" fill="none" xmlns="http://www.w3.org/2000/svg">
<g clip-path="url(#clip0_395_56)">
<path d="M80.95 77V49.9L69.25 70.75H66.5L54.75 49.9V77H50.25V41.5H55L67.85 64.55L80.75 41.5H85.45V77H80.95ZM104.751 41.5H108.551L123.051 77H118.251L114.051 66.6H99.1512L95.0012 77H90.2012L104.751 41.5ZM113.051 63.1L106.651 46.7L100.051 63.1H113.051ZM127.789 77V41.5H140.089C143.889 41.5 147.056 42.3 149.589 43.9C152.156 45.4667 154.072 47.6 155.339 50.3C156.606 52.9667 157.239 55.9333 157.239 59.2C157.239 62.8 156.539 65.9333 155.139 68.6C153.739 71.2667 151.756 73.3333 149.189 74.8C146.622 76.2667 143.589 77 140.089 77H127.789ZM152.689 59.2C152.689 56.5333 152.189 54.1667 151.189 52.1C150.222 50.0333 148.806 48.4167 146.939 47.25C145.072 46.0833 142.789 45.5 140.089 45.5H132.289V73H140.089C142.822 73 145.122 72.4 146.989 71.2C148.856 69.9667 150.272 68.3167 151.239 66.25C152.206 64.15 152.689 61.8 152.689 59.2ZM187.68 73V77H163.58V41.5H187.23V45.5H168.08V57H184.73V60.75H168.08V73H187.68ZM193.854 77V41.5H198.354V77H193.854ZM206.842 77V41.5H222.042C223.608 41.5 225.042 41.8333 226.342 42.5C227.642 43.1333 228.775 44 229.742 45.1C230.708 46.1667 231.458 47.3833 231.992 48.75C232.525 50.0833 232.792 51.45 232.792 52.85C232.792 54.4833 232.475 56.0333 231.842 57.5C231.242 58.9667 230.375 60.2167 229.242 61.25C228.142 62.2833 226.842 63 225.342 63.4L233.942 77H228.842L220.742 64.25H211.342V77H206.842ZM211.342 60.25H222.092C223.325 60.25 224.392 59.9167 225.292 59.25C226.225 58.55 226.942 57.6333 227.442 56.5C227.975 55.3667 228.242 54.15 228.242 52.85C228.242 51.5167 227.942 50.3 227.342 49.2C226.742 48.0667 225.958 47.1667 224.992 46.5C224.025 45.8333 222.958 45.5 221.792 45.5H211.342V60.25ZM250.503 41.5H254.303L268.803 77H264.003L259.803 66.6H244.903L240.753 77H235.953L250.503 41.5ZM258.803 63.1L252.403 46.7L245.803 63.1H258.803ZM293.863 41.5H297.663L312.163 77H307.363L303.163 66.6H288.263L284.113 77H279.313L293.863 41.5ZM302.163 63.1L295.763 46.7L289.163 63.1H302.163ZM316.9 77V41.5H332.1C333.667 41.5 335.1 41.8333 336.4 42.5C337.7 43.1333 338.834 44 339.8 45.1C340.767 46.1667 341.517 47.3833 342.05 48.75C342.584 50.0833 342.85 51.45 342.85 52.85C342.85 54.4833 342.534 56.0333 341.9 57.5C341.3 58.9667 340.434 60.2167 339.3 61.25C338.2 62.2833 336.9 63 335.4 63.4L344 77H338.9L330.8 64.25H321.4V77H316.9ZM321.4 60.25H332.15C333.384 60.25 334.45 59.9167 335.35 59.25C336.284 58.55 337 57.6333 337.5 56.5C338.034 55.3667 338.3 54.15 338.3 52.85C338.3 51.5167 338 50.3 337.4 49.2C336.8 48.0667 336.017 47.1667 335.05 46.5C334.084 45.8333 333.017 45.5 331.85 45.5H321.4V60.25ZM375.069 45.5H362.819V77H358.319V45.5H346.069V41.5H375.069V45.5ZM380.182 77V41.5H384.682V77H380.182ZM383.982 37.25L381.082 36.25L383.982 31.2H388.382L383.982 37.25ZM414.02 48.95C413.62 48.4833 413.087 48.0333 412.42 47.6C411.753 47.1667 411.003 46.7833 410.17 46.45C409.337 46.0833 408.42 45.8 407.42 45.6C406.453 45.3667 405.437 45.25 404.37 45.25C401.637 45.25 399.62 45.7667 398.32 46.8C397.02 47.8333 396.37 49.25 396.37 51.05C396.37 52.3167 396.703 53.3167 397.37 54.05C398.037 54.7833 399.053 55.3833 400.42 55.85C401.82 56.3167 403.587 56.8 405.72 57.3C408.187 57.8333 410.32 58.4833 412.12 59.25C413.92 60.0167 415.303 61.05 416.27 62.35C417.237 63.6167 417.72 65.3167 417.72 67.45C417.72 69.15 417.387 70.6333 416.72 71.9C416.087 73.1333 415.187 74.1667 414.02 75C412.853 75.8 411.487 76.4 409.92 76.8C408.353 77.1667 406.653 77.35 404.82 77.35C403.02 77.35 401.253 77.1667 399.52 76.8C397.82 76.4 396.203 75.8333 394.67 75.1C393.137 74.3667 391.703 73.45 390.37 72.35L392.52 68.55C393.053 69.1167 393.737 69.6833 394.57 70.25C395.437 70.7833 396.403 71.2833 397.47 71.75C398.57 72.2167 399.753 72.6 401.02 72.9C402.287 73.1667 403.587 73.3 404.92 73.3C407.453 73.3 409.42 72.85 410.82 71.95C412.22 71.0167 412.92 69.6667 412.92 67.9C412.92 66.5667 412.52 65.5 411.72 64.7C410.953 63.9 409.803 63.2333 408.27 62.7C406.737 62.1667 404.87 61.6333 402.67 61.1C400.27 60.5 398.253 59.85 396.62 59.15C394.987 58.4167 393.753 57.4667 392.92 56.3C392.12 55.1333 391.72 53.6167 391.72 51.75C391.72 49.4833 392.27 47.5667 393.37 46C394.47 44.4333 395.987 43.25 397.92 42.45C399.853 41.65 402.037 41.25 404.47 41.25C406.07 41.25 407.553 41.4167 408.92 41.75C410.32 42.0833 411.62 42.55 412.82 43.15C414.02 43.75 415.12 44.4667 416.12 45.3L414.02 48.95ZM449.239 45.5H436.989V77H432.489V45.5H420.239V41.5H449.239V45.5ZM454.352 77V41.5H458.852V77H454.352ZM465.04 59C465.04 56.8333 465.407 54.7167 466.14 52.65C466.907 50.55 468.007 48.65 469.44 46.95C470.907 45.2167 472.69 43.85 474.79 42.85C476.89 41.8167 479.273 41.3 481.94 41.3C485.107 41.3 487.823 42.0333 490.09 43.5C492.357 44.9333 494.04 46.7833 495.14 49.05L491.59 51.35C490.89 49.85 489.99 48.6667 488.89 47.8C487.823 46.9 486.657 46.2667 485.39 45.9C484.157 45.5333 482.94 45.35 481.74 45.35C479.773 45.35 478.023 45.75 476.49 46.55C474.99 47.35 473.723 48.4167 472.69 49.75C471.657 51.0833 470.873 52.5833 470.34 54.25C469.84 55.8833 469.59 57.5333 469.59 59.2C469.59 61.0333 469.89 62.8 470.49 64.5C471.123 66.2 471.99 67.7 473.09 69C474.19 70.3 475.49 71.3333 476.99 72.1C478.49 72.8667 480.123 73.25 481.89 73.25C483.123 73.25 484.39 73.0333 485.69 72.6C486.99 72.1667 488.207 71.5 489.34 70.6C490.473 69.6667 491.373 68.4667 492.04 67L495.79 69.05C495.057 70.8167 493.923 72.3167 492.39 73.55C490.857 74.7833 489.14 75.7167 487.24 76.35C485.373 76.9833 483.523 77.3 481.69 77.3C479.257 77.3 477.023 76.7833 474.99 75.75C472.957 74.6833 471.19 73.2833 469.69 71.55C468.223 69.7833 467.073 67.8167 466.24 65.65C465.44 63.45 465.04 61.2333 465.04 59ZM511.734 41.5H515.534L530.034 77H525.234L521.034 66.6H506.134L501.984 77H497.184L511.734 41.5ZM520.034 63.1L513.634 46.7L507.034 63.1H520.034Z" fill="#644026"/>
<path d="M25.7377 63.877C23.3232 64.8458 29.1226 66.0837 30.4976 65.6873C31.8726 65.2909 32.4801 68.3372 30.7169 62.4415C29.8726 59.6185 27.1161 54.8827 20.9745 52.5819C14.8328 50.2811 11.2696 45.3925 10.0821 45.5846C9.54086 45.6722 12.8999 49.6082 15.6103 51.8952C18.3208 54.1823 28.1522 62.9083 25.7377 63.877Z" fill="#D2D0B9"/>
<path d="M32.7786 61.891C35.2889 61.2208 31.4648 65.6614 30.1314 66.1663C32.9517 62.9021 30.2018 69.4526 27.9498 63.7196C26.8715 60.9745 26.1232 55.5704 29.5605 50.0817C32.9978 44.5931 32.7935 38.5867 33.8522 38.0313C34.3347 37.7782 34.1113 42.9063 33.3811 46.3384C32.6508 49.7705 30.2683 62.5612 32.7786 61.891Z" fill="#D2D0B9"/>
<path d="M32.5001 60.4598C31.8629 62.2952 30.4918 63.9138 29.4945 63.58C28.4971 63.2461 28.7203 61.6494 28.8884 59.251C30.1057 55.745 35.198 48.9271 40.0917 46.3718C44.9853 43.8165 44.3698 42.0135 45.7082 41.8149C47.0467 41.6164 41.8763 48.2025 39.4014 50.3792C36.9265 52.5558 33.4158 57.8227 32.5001 60.4598Z" fill="#D2D0B9"/>
<path d="M22.0427 60.83C22.8857 66.5378 23.5071 64.6564 26.455 65.8608C29.4028 67.0652 29.6829 65.1704 28.8299 60.4645C26.0295 45.0124 20.9153 49.4841 15.6084 39.464C12.6605 38.2596 25.8476 57.2325 22.0427 60.83Z" fill="#D2D0B9"/>
<path d="M39.9916 61.6861C39.9916 70.0128 36.7721 76.6182 27.5005 76.6182C18.8723 76.6182 15.0093 69.9328 15.0093 61.6861C14.7515 56.0857 19.9025 57.6651 27.6292 58.383C34.5279 58.383 40.249 55.5115 39.9916 61.6861Z" fill="#D2D0B9"/>
</g>
<defs>
<clipPath id="clip0_395_56">
<rect width="537" height="88" fill="white"/>
</clipPath>
</defs>
</svg>
