<svg width="329" height="209" viewBox="0 0 329 209" fill="none" xmlns="http://www.w3.org/2000/svg">
<g clip-path="url(#clip0_403_133)">
<g filter="url(#filter0_f_403_133)">
<ellipse cx="164" cy="104.5" rx="133" ry="80.5" fill="#F5F5F5"/>
</g>
<path d="M74.6526 49.9062C67.5916 53.1577 57.2522 46.1539 57 45.9037C60.2783 52.9066 66.835 54.4079 64.3132 66.6638C63.5567 69.6652 60.127 75.268 62.548 83.672C63.3045 86.1732 69.8612 91.926 78.9397 91.926C85.8011 91.926 93.1458 94.7416 96.0879 97.1786C97.7691 99.6798 94.3226 105.933 86.2529 102.431C77.4266 97.1786 72.1308 94.4272 67.0872 93.4268C63.0523 92.6264 64.9493 97.2409 66.835 100.18C68.6003 102.931 68.8525 104.182 74.9048 114.687C76.1657 116.688 84.2354 118.767 96.0879 113.436C102.897 108.434 116.262 112.686 105.923 119.689C105.166 120.94 81.2093 116.8 78.9397 121.941C77.2097 125.859 80.9165 133.309 82.7224 135.697C84.992 138.699 88.6738 143.951 98.3575 140.95C108.041 137.948 115.758 129.944 119.288 126.943C120.802 125.942 124.08 124.742 125.089 127.943C126.097 131.145 117.019 136.864 112.48 139.449C108.949 141.2 100.879 139.449 99.6184 143.951C99.1141 150.955 115.254 159.209 131.645 156.457C146.272 151.955 147.68 146.41 148.037 145.702C149.046 143.701 150.307 133.696 148.541 131.195C147.028 127.943 146.524 124.708 146.776 124.291C147.028 123.791 149.55 125.942 152.576 127.943C154.594 128.944 158.881 129.694 161.907 129.444C165.174 129.174 176.533 125.942 180.82 110.185C184.25 97.5788 179.391 86.9236 176.533 83.1718C175.02 81.6711 171.893 79.9202 171.49 84.9226C170.985 91.1757 165.185 103.432 161.907 103.682C158.629 103.932 157.395 103.068 157.115 101.681C156.863 100.43 158.629 96.8451 159.889 94.9275C159.721 95.3443 161.15 93.5768 168.211 83.1718C175.525 72.6667 165.69 52.8602 154.341 52.1568C150.307 51.9066 151.483 55.7418 152.072 57.6594C154.594 63.9125 157.267 78.6696 147.785 87.674C144.591 89.1747 138.959 89.3748 141.985 80.1703C142.741 76.4185 149.298 68.1645 147.785 55.6585C144.254 43.4025 125.341 41.4016 122.567 40.9014C119.793 40.4012 119.469 42.6572 119.541 43.152C119.793 44.9033 121.81 47.9047 122.819 49.1553C123.664 50.2035 127.61 57.2429 129.376 60.9115C131.477 67.2477 133.612 79.5199 125.341 77.9187C122.819 77.1684 118.633 73.3665 122.062 64.1621C125.089 59.4098 123.576 44.9033 107.688 40.9014C104.41 39.6508 96.8444 39.1503 100.375 43.152C105.419 48.1543 112.681 59.31 107.436 67.9149C107.436 68.4151 103.149 70.6662 104.41 60.9115C106.175 49.9062 97.3488 42.1515 89.279 43.9027C86.9758 44.4026 81.7136 46.6546 74.6526 49.9062Z" fill="#69A02E" stroke="#F5F3F3"/>
<path d="M72.5328 58.7451C66.7581 53.7866 57.2505 46.2499 57 46C60.2569 52.9968 66.7707 54.4968 64.2654 66.7421C63.5138 69.7409 60.1066 75.3388 62.5116 83.7356C63.2632 86.2346 69.777 91.9824 78.7961 91.9824C85.6126 91.9824 92.9092 94.7955 95.8321 97.2304C97.5023 99.7294 94.0784 105.977 86.0614 102.478C77.2929 97.2304 72.0318 94.4814 67.0212 93.4818C63.0127 92.6821 64.8972 97.2927 66.7707 100.229C68.5244 102.978 68.7749 104.228 74.7876 114.724C76.0402 116.723 84.0572 118.8 95.8321 113.474C102.596 108.476 115.874 112.724 105.603 119.722C104.851 120.971 81.0508 116.835 78.7961 121.971C77.0775 125.886 80.76 133.33 82.554 135.716C84.8088 138.715 88.4665 143.963 98.0868 140.964C107.707 137.965 115.373 129.968 118.881 126.969C120.384 125.969 123.641 124.77 124.643 127.969C125.645 131.167 116.626 136.882 112.116 139.464C108.609 141.214 100.592 139.464 99.3395 143.963C98.8384 150.96 114.872 159.207 131.157 156.458C145.687 151.959 147.267 146.483 147.441 145.712C150.949 130.218 147.441 131.217 147.441 130.218C146.439 121.721 135.165 108.476 100.091 81.9862C86.919 72.038 89.8194 73.5886 72.5328 58.7451Z" fill="black" fill-opacity="0.28"/>
<g filter="url(#filter1_d_403_133)">
<path d="M61 48.7736C93.6579 72.8091 99.2868 82.5734 98.5261 81.3215C99.7939 71.5571 97.5119 58.2875 92.6943 51.5275C95.2299 53.7808 98.2725 60.0401 98.2725 60.0401C100.301 63.7956 100.301 72.5586 101.315 82.323C101.822 83.8252 113.486 92.8385 114.247 90.0845C115.261 79.5689 114.247 59.0386 112.725 56.2845C109.683 50.7764 107.731 49.0039 107.147 48.5231C105.626 47.2712 108.136 48.4983 109.429 49.7749C112.472 52.7794 114.924 53.9141 116.275 68.0519C117.543 81.3215 116.021 86.8297 117.036 92.0874C117.393 93.9399 117.974 94.5164 118.811 95.3422C120.585 97.0948 128.699 104.856 129.206 103.604C129.612 102.603 129.454 97.5064 130.474 95.5926C133.01 90.8356 135.596 81.7722 135.799 78.5675C136.052 74.5615 134.526 65.2735 134.277 64.046C133.77 61.5423 131.995 55.7838 133.01 55.7838C134.024 55.7838 135.799 66.049 136.559 67.5512C137.32 69.0534 137.574 76.5645 137.574 77.8163C137.574 79.8193 133.768 93.2224 133.517 94.0904C133.01 95.843 131.995 101.895 131.995 102.603C131.995 103.604 132.249 108.612 134.024 108.111C135.799 107.61 147.462 97.5956 149.491 95.5926C150.456 94.6392 156.429 86.0318 157.097 82.0726C157.604 79.0682 158.112 70.5556 158.619 71.5571V78.5675C158.619 80.0697 157.097 89.083 152.533 94.0904C148.448 98.5722 138.588 109.613 138.334 110.114C137.925 110.921 137.827 115.873 139.349 115.372C140.87 114.871 147.163 112.387 148.984 111.616C150.758 110.865 156.083 109.864 158.872 108.612C162.168 106.859 167.747 102.102 169.014 100.35C170.733 97.9737 172.311 91.8371 172.564 90.5852C172.818 89.3334 172.844 92.3089 172.564 95.3422C172.311 98.0963 173.071 97.8459 169.014 103.354C164.775 109.11 154.815 112.367 153.294 112.618C152.044 112.824 142.645 116.874 142.645 117.375C142.645 117.876 144.807 119.378 145.941 119.378C147.209 119.378 159.113 119.568 160.14 119.378C164.197 118.627 168.339 116.15 168.761 115.873C169.522 115.372 172.818 112.618 173.071 112.618C173.578 112.618 172.818 114.621 171.804 115.873C171.012 116.85 170.536 117.625 168 118.877C165.465 120.129 163.69 120.379 161.661 120.88C159.633 121.381 158.365 121.631 157.351 121.631H152.28H147.716C147.107 121.631 147.853 122.382 148.984 123.884C160.985 139.825 184.988 178.215 181.692 179.967C180.932 180.218 179.917 178.966 179.664 178.465C174.677 166.364 155.83 132.397 148.223 126.138C141.69 120.762 144.673 123.133 143.912 134.4C143.49 139.074 142.898 141.41 133.77 148.421C132.792 149.172 129.064 149.827 129.967 149.172C132.841 147.085 138.414 142.32 139.349 140.659C141.884 136.153 140.363 127.39 142.138 122.382C142.859 120.346 140.363 118.376 140.109 118.877C137.236 121.631 131.742 128.641 130.728 135.401C130.981 140.409 107.147 147.821 107.147 146.918C107.147 146.167 108.668 145.833 109.175 145.667C115.092 143.747 127.229 138.256 128.446 131.646C129.663 125.036 137.574 117.625 137.32 117.375C137.32 116.373 135.292 113.419 134.277 112.618C133.263 111.817 122.022 120.379 116.529 124.886C113.86 127.075 106.741 131.195 90.9194 130.394C83.2114 128.792 84.8341 127.39 86.609 127.89C94.2157 129.893 103.431 128.174 104.865 127.89C109.936 126.889 119.571 118.376 123.375 115.873C128.699 112.367 131.995 111.116 131.235 110.615L124.135 105.858C122.36 104.356 110.697 104.105 108.161 104.856C107.147 105.157 98.6384 108.361 91.4265 108.361C88.1303 108.361 79.5095 105.107 78.2417 104.105C76.55 102.769 73.1706 103.104 71.9028 102.853L71.3957 102.603V102.102L71.9028 101.852H74.1848L76.2132 102.102C79.0023 103.02 84.3786 105.407 85.5948 105.858C87.6232 106.609 96.9606 106.74 97.5119 106.609C103.851 105.107 103.485 102.571 107.908 102.353C112.357 102.133 119.538 101.528 121.576 102.059C118.305 99.6566 101.262 85.0771 100.301 85.0771C99.0332 85.0771 85.0877 87.6482 78.2417 85.8282C76.6932 85.4165 67.5676 78.0874 66.071 76.3141C63.5355 73.3097 65.2281 74.0608 65.8175 74.5615C69.4518 77.6494 78.2417 83.8252 79.2559 84.0756C80.6902 84.4297 96.4977 84.0756 94.7228 81.0712C92.9479 78.0667 61 49.7751 61 48.7736Z" fill="#194224"/>
</g>
<ellipse cx="86.8593" cy="57.7645" rx="6.06818" ry="4.01109" transform="rotate(70.1321 86.8593 57.7645)" fill="white" fill-opacity="0.45"/>
<ellipse cx="80.0645" cy="75.6905" rx="4.36252" ry="3.45704" transform="rotate(38.2662 80.0645 75.6905)" fill="white" fill-opacity="0.45"/>
<ellipse cx="108.091" cy="74.6919" rx="4.05172" ry="2.93732" transform="rotate(97.9115 108.091 74.6919)" fill="white" fill-opacity="0.45"/>
<ellipse cx="125.352" cy="87.4471" rx="5.52927" ry="3.50454" transform="rotate(91.5959 125.352 87.4471)" fill="white" fill-opacity="0.45"/>
<ellipse cx="104.414" cy="95.9897" rx="4.72483" ry="3.50454" transform="rotate(178.544 104.414 95.9897)" fill="white" fill-opacity="0.45"/>
<ellipse cx="127.409" cy="119.435" rx="3.08815" ry="2.29057" transform="rotate(162.937 127.409 119.435)" fill="white" fill-opacity="0.45"/>
<ellipse cx="137.342" cy="98.2102" rx="3.08815" ry="2.29057" transform="rotate(122.741 137.342 98.2102)" fill="white" fill-opacity="0.45"/>
<ellipse cx="144.803" cy="91.8385" rx="2.44357" ry="1.81246" transform="rotate(137.527 144.803 91.8385)" fill="white" fill-opacity="0.45"/>
<ellipse cx="163.512" cy="73.6168" rx="3.7533" ry="2.78393" transform="rotate(105 163.512 73.6168)" fill="white" fill-opacity="0.45"/>
<ellipse cx="163.621" cy="112.471" rx="3.7533" ry="2.78393" transform="rotate(167.412 163.621 112.471)" fill="white" fill-opacity="0.45"/>
<ellipse cx="136.04" cy="133.163" rx="3.7533" ry="2.78393" transform="rotate(120.532 136.04 133.163)" fill="white" fill-opacity="0.45"/>
<ellipse cx="119.287" cy="148.889" rx="3.7533" ry="2.78393" transform="rotate(171.612 119.287 148.889)" fill="white" fill-opacity="0.45"/>
<ellipse cx="141.703" cy="57.3067" rx="2.88654" ry="2.14103" transform="rotate(83.8998 141.703 57.3067)" fill="white" fill-opacity="0.45"/>
<path d="M243.489 50.9062C250.493 54.1577 260.75 47.1539 261 46.9037C257.748 53.9066 251.244 55.4079 253.745 67.6638C254.496 70.6652 257.898 76.268 255.496 84.672C254.746 87.1732 248.242 92.926 239.236 92.926C232.429 92.926 225.143 95.7416 222.225 98.1786C220.557 100.68 223.976 106.933 231.981 103.431C240.737 98.1786 245.99 95.4272 250.993 94.4268C254.996 93.6264 253.114 98.2409 251.244 101.18C249.493 103.931 249.242 105.182 243.238 115.687C241.988 117.688 233.982 119.767 222.225 114.436C215.47 109.434 202.212 113.686 212.468 120.689C213.219 121.94 236.984 117.8 239.236 122.941C240.952 126.859 237.275 134.309 235.483 136.697C233.232 139.699 229.58 144.951 219.973 141.95C210.367 138.948 202.712 130.944 199.21 127.943C197.709 126.942 194.457 125.742 193.456 128.943C192.455 132.145 201.461 137.864 205.964 140.449C209.467 142.2 217.472 140.449 218.723 144.951C219.223 151.955 203.212 160.209 186.952 157.457C172.442 152.955 171.045 147.41 170.691 146.702C169.691 144.701 168.44 134.696 170.191 132.195C171.692 128.943 172.192 125.708 171.942 125.291C171.692 124.791 169.19 126.942 166.188 128.943C164.187 129.944 159.934 130.694 156.932 130.444C153.691 130.174 142.423 126.942 138.17 111.185C134.768 98.5788 139.588 87.9236 142.423 84.1718C143.924 82.6711 147.026 80.9202 147.426 85.9226C147.927 92.1757 153.68 104.432 156.932 104.682C160.184 104.932 161.408 104.068 161.685 102.681C161.936 101.43 160.184 97.8451 158.934 95.9275C159.1 96.3443 157.683 94.5768 150.678 84.1718C143.424 73.6667 153.18 53.8602 164.437 53.1568C168.44 52.9066 167.272 56.7418 166.689 58.6594C164.187 64.9125 161.535 79.6696 170.941 88.674C174.11 90.1747 179.697 90.3748 176.695 81.1703C175.945 77.4185 169.44 69.1645 170.941 56.6585C174.444 44.4025 193.206 42.4016 195.958 41.9014C198.71 41.4012 199.03 43.6572 198.96 44.152C198.71 45.9033 196.708 48.9047 195.708 50.1553C194.869 51.2035 190.954 58.2429 189.203 61.9115C187.119 68.2477 185.001 80.5199 193.206 78.9187C195.708 78.1684 199.86 74.3665 196.458 65.1621C193.456 60.4098 194.957 45.9033 210.717 41.9014C213.969 40.6508 221.474 40.1503 217.972 44.152C212.969 49.1543 205.764 60.31 210.967 68.9149C210.967 69.4151 215.22 71.6662 213.969 61.9115C212.218 50.9062 220.974 43.1515 228.979 44.9027C231.264 45.4026 236.484 47.6546 243.489 50.9062Z" fill="#69A02E" stroke="#F5F3F3"/>
<path d="M245.467 59.7451C251.242 54.7866 260.749 47.2499 261 47C257.743 53.9968 251.229 55.4968 253.735 67.7421C254.486 70.7409 257.893 76.3388 255.488 84.7356C254.737 87.2346 248.223 92.9824 239.204 92.9824C232.387 92.9824 225.091 95.7955 222.168 98.2304C220.498 100.729 223.922 106.977 231.939 103.478C240.707 98.2304 245.968 95.4814 250.979 94.4818C254.987 93.6821 253.103 98.2927 251.229 101.229C249.476 103.978 249.225 105.228 243.212 115.724C241.96 117.723 233.943 119.8 222.168 114.474C215.404 109.476 202.126 113.724 212.397 120.722C213.149 121.971 236.949 117.835 239.204 122.971C240.923 126.886 237.24 134.33 235.446 136.716C233.191 139.715 229.533 144.963 219.913 141.964C210.293 138.965 202.627 130.968 199.119 127.969C197.616 126.969 194.359 125.77 193.357 128.969C192.355 132.167 201.374 137.882 205.884 140.464C209.391 142.214 217.408 140.464 218.661 144.963C219.162 151.96 203.128 160.207 186.843 157.458C172.313 152.959 170.733 147.483 170.559 146.712C167.051 131.218 170.559 132.217 170.559 131.218C171.561 122.721 182.835 109.476 217.909 82.9862C231.081 73.038 228.181 74.5886 245.467 59.7451Z" fill="black" fill-opacity="0.28"/>
<path d="M257 49.7795C224.612 73.9971 219.03 83.8353 219.784 82.574C218.527 72.7356 220.79 59.3654 225.568 52.5542C223.053 54.8246 220.035 61.1313 220.035 61.1313C218.024 64.9153 218.024 73.7446 217.018 83.583C216.515 85.0966 204.948 94.1782 204.194 91.4033C203.188 80.8081 204.194 60.1222 205.702 57.3473C208.72 51.7974 210.655 50.0115 211.234 49.527C212.743 48.2657 210.253 49.5021 208.971 50.7884C205.954 53.8156 203.521 54.9589 202.182 69.2038C200.925 82.574 202.433 88.1238 201.427 93.4214C201.073 95.288 200.497 95.8688 199.667 96.7009C197.907 98.4668 189.86 106.287 189.357 105.026C188.955 104.017 189.112 98.8814 188.1 96.9532C185.586 92.1601 183.021 83.028 182.819 79.799C182.568 75.7628 184.082 66.4044 184.328 65.1676C184.831 62.6449 186.591 56.8428 185.586 56.8428C184.58 56.8428 182.819 67.1857 182.065 68.6993C181.311 70.2129 181.059 77.7809 181.059 79.0422C181.059 81.0604 184.834 94.565 185.083 95.4396C185.586 97.2054 186.591 103.303 186.591 104.017C186.591 105.026 186.34 110.071 184.58 109.566C182.819 109.062 171.252 98.9713 169.241 96.9532C168.283 95.9926 162.36 87.3199 161.697 83.3308C161.194 80.3036 160.691 71.7265 160.188 72.7356V79.799C160.188 81.3126 161.697 90.3942 166.223 95.4396C170.274 99.9554 180.053 111.08 180.305 111.585C180.71 112.398 180.808 117.387 179.299 116.882C177.79 116.378 171.549 113.874 169.744 113.098C167.983 112.341 162.703 111.332 159.937 110.071C156.668 108.305 151.136 103.512 149.878 101.746C148.174 99.3523 146.609 93.1692 146.358 91.9078C146.106 90.6465 146.081 93.6445 146.358 96.7009C146.609 99.4758 145.855 99.2236 149.878 104.773C154.082 110.573 163.96 113.855 165.469 114.107C166.709 114.315 176.03 118.396 176.03 118.9C176.03 119.405 173.886 120.918 172.761 120.918C171.504 120.918 159.698 121.11 158.679 120.918C154.656 120.162 150.548 117.667 150.13 117.387C149.375 116.882 146.106 114.107 145.855 114.107C145.352 114.107 146.106 116.125 147.112 117.387C147.898 118.372 148.369 119.153 150.884 120.414C153.399 121.675 155.159 121.928 157.171 122.432C159.182 122.937 160.44 123.189 161.445 123.189H166.475H171.001C171.604 123.189 170.865 123.946 169.744 125.459C157.841 141.52 134.036 180.201 137.305 181.967C138.06 182.219 139.065 180.958 139.317 180.453C144.262 168.261 162.954 134.036 170.498 127.73C176.977 122.313 174.018 124.702 174.773 136.054C175.192 140.763 175.779 143.118 184.831 150.181C185.801 150.938 189.498 151.599 188.603 150.938C185.753 148.836 180.226 144.035 179.299 142.361C176.784 137.82 178.293 128.991 176.533 123.946C175.817 121.894 178.293 119.909 178.545 120.414C181.395 123.189 186.843 130.252 187.849 137.064C187.597 142.109 211.234 149.577 211.234 148.668C211.234 147.911 209.726 147.575 209.223 147.406C203.355 145.472 191.319 139.939 190.112 133.28C188.905 126.62 181.059 119.153 181.311 118.9C181.311 117.891 183.322 114.915 184.328 114.107C185.334 113.3 196.482 121.928 201.93 126.468C204.576 128.674 211.637 132.825 227.328 132.018C234.972 130.404 233.363 128.991 231.603 129.496C224.059 131.514 214.92 129.781 213.498 129.496C208.468 128.486 198.913 119.909 195.141 117.387C189.86 113.855 186.591 112.594 187.346 112.089L194.387 107.296C196.147 105.782 207.714 105.53 210.229 106.287C211.234 106.59 219.673 109.819 226.825 109.819C230.094 109.819 238.644 106.539 239.901 105.53C241.578 104.184 244.93 104.521 246.187 104.269L246.69 104.017V103.512L246.187 103.26H243.924L241.912 103.512C239.146 104.437 233.815 106.842 232.608 107.296C230.597 108.053 221.337 108.185 220.79 108.053C214.503 106.539 214.866 103.984 210.48 103.764C206.068 103.543 198.945 102.933 196.925 103.469C200.168 101.048 217.071 86.358 218.024 86.358C219.281 86.358 233.111 88.9485 239.901 87.1148C241.437 86.7 250.487 79.3153 251.971 77.5286C254.485 74.5014 252.807 75.2582 252.222 75.7628C248.618 78.8741 239.901 85.0966 238.895 85.3489C237.473 85.7057 221.796 85.3489 223.556 82.3217C225.316 79.2945 257 50.7885 257 49.7795Z" fill="#194224"/>
<ellipse rx="6.06818" ry="4.01109" transform="matrix(-0.339853 0.940479 0.940479 0.339853 231.373 58.9139)" fill="white" fill-opacity="0.45"/>
<ellipse rx="4.36252" ry="3.45704" transform="matrix(-0.785142 0.619316 0.619316 0.785142 238.169 76.8399)" fill="white" fill-opacity="0.45"/>
<ellipse rx="4.05172" ry="2.93732" transform="matrix(0.137644 0.990482 0.990482 -0.137644 210.143 75.8413)" fill="white" fill-opacity="0.45"/>
<ellipse rx="5.52927" ry="3.50454" transform="matrix(0.0278499 0.999612 0.999612 -0.0278499 192.882 88.5965)" fill="white" fill-opacity="0.45"/>
<ellipse rx="4.72483" ry="3.50454" transform="matrix(0.999677 0.0254084 0.0254084 -0.999677 213.818 97.1391)" fill="white" fill-opacity="0.45"/>
<ellipse rx="3.08815" ry="2.29057" transform="matrix(0.955982 0.293425 0.293425 -0.955982 190.825 120.584)" fill="white" fill-opacity="0.45"/>
<ellipse rx="3.08816" ry="2.29057" transform="matrix(0.540847 0.841121 0.841121 -0.540847 180.892 99.3596)" fill="white" fill-opacity="0.45"/>
<ellipse rx="2.44357" ry="1.81246" transform="matrix(0.737595 0.675243 0.675243 -0.737595 173.43 92.9879)" fill="white" fill-opacity="0.45"/>
<ellipse rx="3.7533" ry="2.78393" transform="matrix(0.258819 0.965926 0.965926 -0.258819 154.72 74.7662)" fill="white" fill-opacity="0.45"/>
<ellipse rx="3.7533" ry="2.78393" transform="matrix(0.975964 0.217931 0.217931 -0.975964 154.613 113.62)" fill="white" fill-opacity="0.45"/>
<ellipse rx="3.7533" ry="2.78393" transform="matrix(0.508025 0.861342 0.861342 -0.508025 182.193 134.313)" fill="white" fill-opacity="0.45"/>
<ellipse rx="3.7533" ry="2.78393" transform="matrix(0.989302 0.145882 0.145882 -0.989302 198.946 150.038)" fill="white" fill-opacity="0.45"/>
<ellipse rx="2.88654" ry="2.14103" transform="matrix(-0.106267 0.994338 0.994338 0.106267 176.53 58.4551)" fill="white" fill-opacity="0.45"/>
<path d="M211.181 111.187C211.181 126.131 193.719 120.489 183.012 117.029C174.887 114.404 170.652 113.035 180.886 122.871C190.785 128.856 86 149.155 86 122.871C86 96.5872 169.166 73 200.892 73C232.619 73 239.475 135.125 211.181 111.187Z" fill="#644026"/>
<path d="M211.181 111.187C211.181 126.131 193.719 120.489 183.012 117.029C174.887 114.404 170.652 113.035 180.886 122.871C190.785 128.856 86 149.155 86 122.871C86 96.5872 169.166 73 200.892 73C232.619 73 239.475 135.125 211.181 111.187Z" stroke="#F5F5F5"/>
<path d="M227.5 101.389C227.5 109.163 227.344 115.751 226.674 121.265C226.004 126.781 224.825 131.182 222.803 134.604C218.798 141.385 211.371 144.5 197.343 144.5C183.319 144.5 165.562 141.384 151.329 134.41C137.091 127.432 126.5 116.663 126.5 101.389C126.5 93.6327 127.932 89.4241 130.336 87.3347C132.726 85.2572 136.243 85.1329 140.842 86.0268C143.773 86.5964 147.044 87.5562 150.625 88.6069C152.658 89.2033 154.791 89.8291 157.018 90.4294C163.136 92.0786 169.894 93.5119 177 93.5119C184.106 93.5119 190.864 92.0786 196.982 90.4294C199.209 89.8291 201.342 89.2033 203.375 88.6069C206.956 87.5562 210.227 86.5964 213.158 86.0268C217.757 85.1329 221.274 85.2572 223.664 87.3347C226.068 89.4241 227.5 93.6327 227.5 101.389Z" fill="#D2D0B9" stroke="#F5F5F5"/>
<path d="M181.266 121.386C178.724 122.295 184.663 123.866 186.103 123.512C187.543 123.158 188.028 126.394 186.482 120.105C185.742 117.093 183.114 111.978 176.872 109.272C170.63 106.566 167.176 101.253 165.939 101.401C165.376 101.468 168.664 105.768 171.359 108.301C174.053 110.835 183.808 120.478 181.266 121.386Z" fill="#4C7321"/>
<path d="M188.64 119.62C191.267 119.03 187.104 123.53 185.702 124C188.771 120.693 185.62 127.464 183.561 121.323C182.575 118.382 182.056 112.657 185.868 107.035C189.68 101.414 189.751 95.0795 190.871 94.5435C191.382 94.2992 190.91 99.6891 189.994 103.27C189.077 106.85 186.013 120.21 188.64 119.62Z" fill="#4C7321"/>
<path d="M188.418 118.101C187.673 120.004 186.179 121.645 185.163 121.248C184.148 120.85 184.454 119.179 184.74 116.661C186.163 113.025 191.749 106.081 196.929 103.616C202.109 101.15 201.557 99.2235 202.95 99.0761C204.344 98.9287 198.688 105.626 196.027 107.804C193.366 109.982 189.488 115.366 188.418 118.101Z" fill="#69A02E"/>
<path d="M177.588 118.008C178.192 124.058 178.923 122.105 181.914 123.509C184.905 124.914 185.284 122.931 184.623 117.936C182.454 101.535 176.956 106.008 171.94 95.2113C168.949 93.8069 181.692 114.395 177.588 118.008Z" fill="#69A02E"/>
<path d="M196.194 120.59C195.82 128.98 192.113 135.483 182.295 135.045C173.158 134.637 169.367 127.719 169.738 119.41C169.717 113.755 175.101 115.59 183.251 116.678C190.557 117.004 196.745 114.381 196.194 120.59Z" fill="#644026"/>
<path d="M202.094 99.8672C201.838 100.126 201.674 100.379 201.728 100.433C201.782 100.486 202.033 100.319 202.289 100.06C202.545 99.8008 202.708 99.5477 202.654 99.4945C202.6 99.4412 202.349 99.6081 202.094 99.8672Z" fill="#9AC967"/>
<path d="M186 134C187.166 132.556 192.704 125.044 195.619 121C197.076 122.733 194.453 133.711 186 134Z" fill="black" fill-opacity="0.37"/>
<path d="M198 103C194.095 107 186.286 115 186 115C186.857 112.9 192.571 105.1 198 103L198 103Z" fill="#F5F5F5" fill-opacity="0.2"/>
<path d="M179.667 105C179.111 107.368 178 112.211 178 112.632L178.333 115L182 107.368L181 106.316L179.667 105Z" fill="#F5F5F5" fill-opacity="0.2"/>
<path d="M170.319 125.537C170.353 125.251 173.185 117.989 173.961 115.477L177.5 115.771L177.501 115.77L177.501 115.771L177.5 115.771L171.181 128.122L170.319 125.537Z" fill="#F5F5F5" fill-opacity="0.2"/>
<path d="M158.255 91.0672C151.914 102.22 136.576 123.66 136.424 124.964L145.616 131.858L173.192 93.6528L158.255 91.0672Z" fill="#F5F5F5" fill-opacity="0.2"/>
</g>
<defs>
<filter id="filter0_f_403_133" x="-44" y="-51" width="416" height="311" filterUnits="userSpaceOnUse" color-interpolation-filters="sRGB">
<feFlood flood-opacity="0" result="BackgroundImageFix"/>
<feBlend mode="normal" in="SourceGraphic" in2="BackgroundImageFix" result="shape"/>
<feGaussianBlur stdDeviation="37.5" result="effect1_foregroundBlur_403_133"/>
</filter>
<filter id="filter1_d_403_133" x="57" y="48" width="129" height="140" filterUnits="userSpaceOnUse" color-interpolation-filters="sRGB">
<feFlood flood-opacity="0" result="BackgroundImageFix"/>
<feColorMatrix in="SourceAlpha" type="matrix" values="0 0 0 0 0 0 0 0 0 0 0 0 0 0 0 0 0 0 127 0" result="hardAlpha"/>
<feOffset dy="4"/>
<feGaussianBlur stdDeviation="2"/>
<feComposite in2="hardAlpha" operator="out"/>
<feColorMatrix type="matrix" values="0 0 0 0 0 0 0 0 0 0 0 0 0 0 0 0 0 0 0.25 0"/>
<feBlend mode="normal" in2="BackgroundImageFix" result="effect1_dropShadow_403_133"/>
<feBlend mode="normal" in="SourceGraphic" in2="effect1_dropShadow_403_133" result="shape"/>
</filter>
<clipPath id="clip0_403_133">
<rect width="329" height="209" fill="white"/>
</clipPath>
</defs>
</svg>
