<svg width="180" height="60" viewBox="0 0 180 60" fill="none" xmlns="http://www.w3.org/2000/svg">
<g clip-path="url(#clip0_407_362)">
<path d="M30.2099 42.3021C32.526 43.3859 35.9173 41.0513 36 40.9679C34.9247 43.3022 32.7741 43.8026 33.6013 47.8879C33.8494 48.8884 34.9743 50.756 34.1803 53.5573C33.9321 54.3911 31.7815 56.3087 28.8038 56.3087C26.5532 56.3087 24.1442 57.2472 23.1792 58.0595C22.6277 58.8933 23.7582 60.9776 26.4051 59.8104C29.3001 58.0595 31.0371 57.1424 32.6914 56.8089C34.0148 56.5421 33.3926 58.0803 32.7741 59.06C32.1951 59.9771 32.1124 60.394 30.1272 63.8957C29.7137 64.5627 27.0668 65.2557 23.1792 63.4788C20.9459 61.8113 16.562 63.2287 19.9533 65.5632C20.2014 65.98 28.0594 64.5999 28.8038 66.3135C29.3712 67.6196 28.1554 70.103 27.5631 70.8991C26.8186 71.8996 25.611 73.6504 22.4347 72.6499C19.2585 71.6494 16.7274 68.9815 15.5694 67.981C15.0731 67.6475 13.9978 67.2473 13.6669 68.3145C13.3361 69.3817 16.3138 71.2882 17.8027 72.1497C18.9607 72.7333 21.6076 72.1497 22.0212 73.6504C22.1866 75.9849 16.8928 78.7362 11.5163 77.8191C6.71887 76.3184 6.25684 74.4698 6.13987 74.234C5.80901 73.567 5.39543 70.2321 5.97444 69.3983C6.47073 68.3145 6.63616 67.2359 6.55344 67.0969C6.47073 66.9302 5.64358 67.6475 4.651 68.3145C3.98928 68.648 2.58312 68.8981 1.59054 68.8147C0.518959 68.7247 -3.20693 67.6475 -4.61309 62.395C-5.73801 58.1929 -4.14437 54.6412 -3.20693 53.3906C-2.71064 52.8904 -1.68497 52.3067 -1.55263 53.9742C-1.3872 56.0586 0.515244 60.1439 1.59054 60.2272C2.66584 60.3106 3.07036 60.0227 3.16212 59.5602C3.24484 59.1434 2.66584 57.9484 2.25226 57.3092C2.3074 57.4481 1.83868 56.8589 -0.477337 53.3906C-2.87607 49.8889 0.349815 43.2867 4.07199 43.0523C5.39543 42.9689 5.00943 44.2473 4.81643 44.8865C3.98928 46.9708 3.1125 51.8899 6.22258 54.8913C7.27031 55.3916 9.11761 55.4583 8.12503 52.3901C7.87688 51.1395 5.72629 48.3882 6.22258 44.2195C7.38059 40.1342 13.5842 39.4672 14.4941 39.3005C15.404 39.1337 15.51 39.8857 15.4867 40.0507C15.404 40.6344 14.7422 41.6349 14.4114 42.0518C14.1341 42.4012 12.8398 44.7476 12.2608 45.9705C11.5715 48.0826 10.8712 52.1733 13.5842 51.6396C14.4114 51.3895 15.7844 50.1222 14.6595 47.054C13.6669 45.4699 14.1632 40.6344 19.3743 39.3005C20.4496 38.8836 22.931 38.7168 21.773 40.0507C20.1187 41.7181 17.7365 45.4367 19.457 48.305C19.457 48.4717 20.8631 49.2221 20.4496 45.9705C19.8706 42.3021 22.7656 39.7172 25.4125 40.3009C26.1679 40.4675 27.8939 41.2182 30.2099 42.3021Z" fill="#69A02E" stroke="#486D20"/>
<path d="M30.9349 45.2484C32.818 43.5955 35.9183 41.0833 36 41C34.938 43.3323 32.8139 43.8323 33.6309 47.914C33.8759 48.9136 34.987 50.7796 34.2027 53.5785C33.9576 54.4115 31.8336 56.3275 28.8926 56.3275C26.6698 56.3275 24.2905 57.2652 23.3374 58.0768C22.7927 58.9098 23.9092 60.9924 26.5234 59.8261C29.3828 58.0768 31.0983 57.1605 32.7322 56.8273C34.0393 56.5607 33.4248 58.0976 32.8139 59.0764C32.2421 59.9927 32.1604 60.4092 30.1997 63.9079C29.7912 64.5743 27.177 65.2667 23.3374 63.4914C21.1316 61.8254 16.8018 63.2415 20.1513 65.5739C20.3964 65.9904 28.1573 64.6115 28.8926 66.3236C29.453 67.6286 28.2522 70.1099 27.6672 70.9052C26.9319 71.9048 25.7392 73.6542 22.6021 72.6546C19.4651 71.6549 16.9652 68.9893 15.8215 67.9897C15.3313 67.6565 14.2693 67.2566 13.9425 68.3229C13.6157 69.3891 16.5567 71.294 18.0272 72.1547C19.171 72.7379 21.7852 72.1547 22.1936 73.6542C22.357 75.9866 17.1286 78.7356 11.8185 77.8192C7.08018 76.3198 6.56522 74.4942 6.50832 74.2373C5.3646 69.0726 6.50832 69.4058 6.50832 69.0726C6.8351 66.2403 10.5113 61.8254 21.9486 52.9954C26.2438 49.6793 25.298 50.1962 30.9349 45.2484Z" fill="black" fill-opacity="0.28"/>
<path d="M35 42.2579C24.204 50.2697 22.3432 53.5245 22.5947 53.1072C22.1756 49.8524 22.93 45.4292 24.5225 43.1758C23.6843 43.9269 22.6785 46.0134 22.6785 46.0134C22.0079 47.2652 22.0079 50.1862 21.6727 53.441C21.505 53.9417 17.6493 56.9462 17.3978 56.0282C17.0626 52.523 17.3978 45.6795 17.9008 44.7615C18.9066 42.9255 19.5516 42.3346 19.7448 42.1744C20.2477 41.7571 19.4178 42.1661 18.9904 42.5916C17.9846 43.5931 17.1738 43.9714 16.7273 48.684C16.3082 53.1072 16.8111 54.9432 16.4758 56.6958C16.3577 57.3133 16.1656 57.5055 15.8891 57.7807C15.3023 58.3649 12.6201 60.9521 12.4525 60.5348C12.3184 60.201 12.3706 58.5021 12.0334 57.8642C11.1952 56.2785 10.3402 53.2574 10.2731 52.1892C10.1893 50.8538 10.6939 47.7578 10.7761 47.3487C10.9437 46.5141 11.5304 44.5946 11.1952 44.5946C10.8599 44.5946 10.2731 48.0163 10.0217 48.5171C9.77023 49.0178 9.68641 51.5215 9.68641 51.9388C9.68641 52.6064 10.9445 57.0741 11.0275 57.3635C11.1952 57.9477 11.5304 59.9649 11.5304 60.201C11.5304 60.5348 11.4466 62.2039 10.8599 62.037C10.2731 61.8701 6.41743 58.5319 5.74687 57.8642C5.42769 57.5464 3.45318 54.6773 3.23227 53.3575C3.06463 52.3561 2.897 49.5185 2.72935 49.8524V52.1892C2.72935 52.6899 3.23227 55.6943 4.74103 57.3635C6.09144 58.8574 9.35113 62.5378 9.43495 62.7047C9.5701 62.9738 9.60259 64.6242 9.09967 64.4573C8.59675 64.2904 6.51623 63.4622 5.91451 63.2054C5.32777 62.9551 3.56755 62.6212 2.64553 62.2039C1.55587 61.6198 -0.288162 60.0341 -0.707264 59.4499C-1.27542 58.6579 -1.79692 56.6124 -1.88074 56.1951C-1.96456 55.7778 -1.97306 56.7696 -1.88074 57.7807C-1.79692 58.6988 -2.04838 58.6153 -0.707264 60.4514C0.694122 62.3699 3.98665 63.4558 4.48957 63.5393C4.90297 63.6079 8.01001 64.958 8.01001 65.1249C8.01001 65.2918 7.2952 65.7926 6.92035 65.7926C6.50125 65.7926 2.56611 65.856 2.22643 65.7926C0.885315 65.5422 -0.483959 64.7168 -0.623444 64.6242C-0.874905 64.4573 -1.96456 63.5393 -2.04838 63.5393C-2.21602 63.5393 -1.96456 64.2069 -1.62928 64.6242C-1.36747 64.95 -1.21018 65.2084 -0.371983 65.6257C0.466217 66.043 1.05296 66.1264 1.72351 66.2933C2.39407 66.4602 2.81318 66.5437 3.14845 66.5437H4.82485H6.33361C6.53478 66.5437 6.28841 66.7941 5.91451 67.2948C1.94703 72.6082 -5.98792 85.4049 -4.89826 85.9891C-4.6468 86.0725 -4.31152 85.6553 -4.2277 85.4883C-2.57924 81.4546 3.65137 70.1323 6.16597 68.0459C8.32575 66.2539 7.33945 67.0444 7.59091 70.8C7.73061 72.3578 7.92619 73.1368 10.9437 75.4736C11.267 75.7239 12.4995 75.9424 12.201 75.7239C11.251 75.0285 9.40861 73.4401 9.09967 72.8864C8.26147 71.3842 8.76439 68.4632 8.17765 66.7941C7.93907 66.1153 8.76439 65.4588 8.84821 65.6257C9.79817 66.5437 11.6143 68.8805 11.9495 71.1338C11.8657 72.8029 19.7448 75.2737 19.7448 74.9728C19.7448 74.7224 19.2419 74.6112 19.0742 74.5555C17.1184 73.9157 13.1063 72.0852 12.7039 69.882C12.3016 67.6787 9.68641 65.2084 9.77023 65.1249C9.77023 64.7911 10.4408 63.8063 10.7761 63.5393C11.1113 63.2722 14.8274 66.1264 16.6435 67.6286C17.5255 68.3582 19.8789 69.7317 25.1093 69.4647C27.6574 68.9306 27.121 68.4632 26.5342 68.6301C24.0196 69.2978 20.9733 68.7245 20.4992 68.6301C18.8228 68.2963 15.6376 65.4588 14.3803 64.6242C12.6201 63.4558 11.5304 63.0385 11.7819 62.8716L14.1289 61.2859C14.7156 60.7852 18.5713 60.7017 19.4095 60.9521C19.7448 61.0522 22.5576 62.1205 24.9416 62.1205C26.0313 62.1205 28.8812 61.0356 29.3003 60.7017C29.8595 60.2563 30.9767 60.3679 31.3958 60.2844L31.5634 60.201V60.0341L31.3958 59.9506H30.6414L29.9708 60.0341C29.0488 60.3401 27.2715 61.1358 26.8695 61.2859C26.1989 61.5363 23.1122 61.5798 22.93 61.5363C20.8345 61.0356 20.9554 60.1903 19.4933 60.1175C18.0225 60.0443 15.6485 59.8426 14.975 60.0197C16.0561 59.2189 21.6903 54.359 22.0079 54.359C22.427 54.359 27.0371 55.2161 29.3003 54.6094C29.8122 54.4722 32.8289 52.0291 33.3236 51.438C34.1618 50.4366 33.6023 50.6869 33.4074 50.8538C32.206 51.8831 29.3003 53.9417 28.965 54.0252C28.4908 54.1432 23.2652 54.0252 23.852 53.0237C24.4387 52.0222 35 42.5917 35 42.2579Z" fill="#194224"/>
<ellipse rx="2.00641" ry="1.32625" transform="matrix(-0.339853 0.940479 0.940479 0.339853 26.2041 44.9227)" fill="white" fill-opacity="0.45"/>
<ellipse rx="1.44245" ry="1.14305" transform="matrix(-0.785142 0.619316 0.619316 0.785142 28.4514 50.8504)" fill="white" fill-opacity="0.45"/>
<ellipse rx="1.33968" ry="0.97121" transform="matrix(0.137644 0.990482 0.990482 -0.137644 19.1845 50.5204)" fill="white" fill-opacity="0.45"/>
<ellipse rx="1.82823" ry="1.15876" transform="matrix(0.0278499 0.999612 0.999612 -0.0278499 13.4768 54.7376)" fill="white" fill-opacity="0.45"/>
<ellipse rx="1.56224" ry="1.15876" transform="matrix(0.999677 0.0254084 0.0254084 -0.999677 20.3998 57.562)" fill="white" fill-opacity="0.45"/>
<ellipse rx="1.02108" ry="0.757365" transform="matrix(0.540847 0.841121 0.841121 -0.540847 9.51253 58.2959)" fill="white" fill-opacity="0.45"/>
<ellipse rx="0.807953" ry="0.599281" transform="matrix(0.737595 0.675243 0.675243 -0.737595 7.04552 56.1895)" fill="white" fill-opacity="0.45"/>
<ellipse rx="1.24101" ry="0.920492" transform="matrix(0.258819 0.965926 0.965926 -0.258819 0.858762 50.1646)" fill="white" fill-opacity="0.45"/>
<ellipse rx="0.95442" ry="0.70792" transform="matrix(-0.106267 0.994338 0.994338 0.106267 8.07026 44.7713)" fill="white" fill-opacity="0.45"/>
<path d="M16.5225 58.4644C16.438 58.5501 16.3838 58.6338 16.4017 58.6514C16.4195 58.669 16.5025 58.6138 16.5871 58.5281C16.6717 58.4425 16.7258 58.3588 16.708 58.3412C16.6901 58.3236 16.6071 58.3788 16.5225 58.4644Z" fill="#9AC967"/>
<path d="M30.2099 42.3021C32.526 43.3859 35.9173 41.0513 36 40.9679C34.9247 43.3022 32.7741 43.8026 33.6013 47.8879C33.8494 48.8884 34.9743 50.756 34.1803 53.5573C33.9321 54.3911 31.7815 56.3087 28.8038 56.3087C26.5532 56.3087 24.1442 57.2472 23.1792 58.0595C22.6277 58.8933 23.7582 60.9776 26.4051 59.8104C29.3001 58.0595 31.0371 57.1424 32.6914 56.8089C34.0148 56.5421 33.3926 58.0803 32.7741 59.06C32.1951 59.9771 32.1124 60.394 30.1272 63.8957C29.7137 64.5627 27.0668 65.2557 23.1792 63.4788C20.9459 61.8113 16.562 63.2287 19.9533 65.5632C20.2014 65.98 28.0594 64.5999 28.8038 66.3135C29.3712 67.6196 28.1554 70.103 27.5631 70.8991C26.8186 71.8996 25.611 73.6504 22.4347 72.6499C19.2585 71.6494 16.7274 68.9815 15.5694 67.981C15.0731 67.6475 13.9978 67.2473 13.6669 68.3145C13.3361 69.3817 16.3138 71.2882 17.8027 72.1497C18.9607 72.7333 21.6076 72.1497 22.0212 73.6504C22.1866 75.9849 16.8928 78.7362 11.5163 77.8191C6.71887 76.3184 6.25684 74.4698 6.13987 74.234C5.80901 73.567 5.39543 70.2321 5.97444 69.3983C6.47073 68.3145 6.63616 67.2359 6.55344 67.0969C6.47073 66.9302 5.64358 67.6475 4.651 68.3145C3.98928 68.648 2.58312 68.8981 1.59054 68.8147C0.518959 68.7247 -3.20693 67.6475 -4.61309 62.395C-5.73801 58.1929 -4.14437 54.6412 -3.20693 53.3906C-2.71064 52.8904 -1.68497 52.3067 -1.55263 53.9742C-1.3872 56.0586 0.515244 60.1439 1.59054 60.2272C2.66584 60.3106 3.07036 60.0227 3.16212 59.5602C3.24484 59.1434 2.66584 57.9484 2.25226 57.3092C2.3074 57.4481 1.83868 56.8589 -0.477337 53.3906C-2.87607 49.8889 0.349815 43.2867 4.07199 43.0523C5.39543 42.9689 5.00943 44.2473 4.81643 44.8865C3.98928 46.9708 3.1125 51.8899 6.22258 54.8913C7.27031 55.3916 9.11761 55.4583 8.12503 52.3901C7.87688 51.1395 5.72629 48.3882 6.22258 44.2195C7.38059 40.1342 13.5842 39.4672 14.4941 39.3005C15.404 39.1337 15.51 39.8857 15.4867 40.0507C15.404 40.6344 14.7422 41.6349 14.4114 42.0518C14.1341 42.4012 12.8398 44.7476 12.2608 45.9705C11.5715 48.0826 10.8712 52.1733 13.5842 51.6396C14.4114 51.3895 15.7844 50.1222 14.6595 47.054C13.6669 45.4699 14.1632 40.6344 19.3743 39.3005C20.4496 38.8836 22.931 38.7168 21.773 40.0507C20.1187 41.7181 17.7365 45.4367 19.457 48.305C19.457 48.4717 20.8631 49.2221 20.4496 45.9705C19.8706 42.3021 22.7656 39.7172 25.4125 40.3009C26.1679 40.4675 27.8939 41.2182 30.2099 42.3021Z" fill="#69A02E" stroke="#486D20"/>
<path d="M30.9349 45.2484C32.818 43.5955 35.9183 41.0833 36 41C34.938 43.3323 32.8139 43.8323 33.6309 47.914C33.8759 48.9136 34.987 50.7796 34.2027 53.5785C33.9576 54.4115 31.8336 56.3275 28.8926 56.3275C26.6698 56.3275 24.2905 57.2652 23.3374 58.0768C22.7927 58.9098 23.9092 60.9924 26.5234 59.8261C29.3828 58.0768 31.0983 57.1605 32.7322 56.8273C34.0393 56.5607 33.4248 58.0976 32.8139 59.0764C32.2421 59.9927 32.1604 60.4092 30.1997 63.9079C29.7912 64.5743 27.177 65.2667 23.3374 63.4914C21.1316 61.8254 16.8018 63.2415 20.1513 65.5739C20.3964 65.9904 28.1573 64.6115 28.8926 66.3236C29.453 67.6286 28.2522 70.1099 27.6672 70.9052C26.9319 71.9048 25.7392 73.6542 22.6021 72.6546C19.4651 71.6549 16.9652 68.9893 15.8215 67.9897C15.3313 67.6565 14.2693 67.2566 13.9425 68.3229C13.6157 69.3891 16.5567 71.294 18.0272 72.1547C19.171 72.7379 21.7852 72.1547 22.1936 73.6542C22.357 75.9866 17.1286 78.7356 11.8185 77.8192C7.08018 76.3198 6.56522 74.4942 6.50832 74.2373C5.3646 69.0726 6.50832 69.4058 6.50832 69.0726C6.8351 66.2403 10.5113 61.8254 21.9486 52.9954C26.2438 49.6793 25.298 50.1962 30.9349 45.2484Z" fill="black" fill-opacity="0.28"/>
<path d="M35 42.2579C24.204 50.2697 22.3432 53.5245 22.5947 53.1072C22.1756 49.8524 22.93 45.4292 24.5225 43.1758C23.6843 43.9269 22.6785 46.0134 22.6785 46.0134C22.0079 47.2652 22.0079 50.1862 21.6727 53.441C21.505 53.9417 17.6493 56.9462 17.3978 56.0282C17.0626 52.523 17.3978 45.6795 17.9008 44.7615C18.9066 42.9255 19.5516 42.3346 19.7448 42.1744C20.2477 41.7571 19.4178 42.1661 18.9904 42.5916C17.9846 43.5931 17.1738 43.9714 16.7273 48.684C16.3082 53.1072 16.8111 54.9432 16.4758 56.6958C16.3577 57.3133 16.1656 57.5055 15.8891 57.7807C15.3023 58.3649 12.6201 60.9521 12.4525 60.5348C12.3184 60.201 12.3706 58.5021 12.0334 57.8642C11.1952 56.2785 10.3402 53.2574 10.2731 52.1892C10.1893 50.8538 10.6939 47.7578 10.7761 47.3487C10.9437 46.5141 11.5304 44.5946 11.1952 44.5946C10.8599 44.5946 10.2731 48.0163 10.0217 48.5171C9.77023 49.0178 9.68641 51.5215 9.68641 51.9388C9.68641 52.6064 10.9445 57.0741 11.0275 57.3635C11.1952 57.9477 11.5304 59.9649 11.5304 60.201C11.5304 60.5348 11.4466 62.2039 10.8599 62.037C10.2731 61.8701 6.41743 58.5319 5.74687 57.8642C5.42769 57.5464 3.45318 54.6773 3.23227 53.3575C3.06463 52.3561 2.897 49.5185 2.72935 49.8524V52.1892C2.72935 52.6899 3.23227 55.6943 4.74103 57.3635C6.09144 58.8574 9.35113 62.5378 9.43495 62.7047C9.5701 62.9738 9.60259 64.6242 9.09967 64.4573C8.59675 64.2904 6.51623 63.4622 5.91451 63.2054C5.32777 62.9551 3.56755 62.6212 2.64553 62.2039C1.55587 61.6198 -0.288162 60.0341 -0.707264 59.4499C-1.27542 58.6579 -1.79692 56.6124 -1.88074 56.1951C-1.96456 55.7778 -1.97306 56.7696 -1.88074 57.7807C-1.79692 58.6988 -2.04838 58.6153 -0.707264 60.4514C0.694122 62.3699 3.98665 63.4558 4.48957 63.5393C4.90297 63.6079 8.01001 64.958 8.01001 65.1249C8.01001 65.2918 7.2952 65.7926 6.92035 65.7926C6.50125 65.7926 2.56611 65.856 2.22643 65.7926C0.885315 65.5422 -0.483959 64.7168 -0.623444 64.6242C-0.874905 64.4573 -1.96456 63.5393 -2.04838 63.5393C-2.21602 63.5393 -1.96456 64.2069 -1.62928 64.6242C-1.36747 64.95 -1.21018 65.2084 -0.371983 65.6257C0.466217 66.043 1.05296 66.1264 1.72351 66.2933C2.39407 66.4602 2.81318 66.5437 3.14845 66.5437H4.82485H6.33361C6.53478 66.5437 6.28841 66.7941 5.91451 67.2948C1.94703 72.6082 -5.98792 85.4049 -4.89826 85.9891C-4.6468 86.0725 -4.31152 85.6553 -4.2277 85.4883C-2.57924 81.4546 3.65137 70.1323 6.16597 68.0459C8.32575 66.2539 7.33945 67.0444 7.59091 70.8C7.73061 72.3578 7.92619 73.1368 10.9437 75.4736C11.267 75.7239 12.4995 75.9424 12.201 75.7239C11.251 75.0285 9.40861 73.4401 9.09967 72.8864C8.26147 71.3842 8.76439 68.4632 8.17765 66.7941C7.93907 66.1153 8.76439 65.4588 8.84821 65.6257C9.79817 66.5437 11.6143 68.8805 11.9495 71.1338C11.8657 72.8029 19.7448 75.2737 19.7448 74.9728C19.7448 74.7224 19.2419 74.6112 19.0742 74.5555C17.1184 73.9157 13.1063 72.0852 12.7039 69.882C12.3016 67.6787 9.68641 65.2084 9.77023 65.1249C9.77023 64.7911 10.4408 63.8063 10.7761 63.5393C11.1113 63.2722 14.8274 66.1264 16.6435 67.6286C17.5255 68.3582 19.8789 69.7317 25.1093 69.4647C27.6574 68.9306 27.121 68.4632 26.5342 68.6301C24.0196 69.2978 20.9733 68.7245 20.4992 68.6301C18.8228 68.2963 15.6376 65.4588 14.3803 64.6242C12.6201 63.4558 11.5304 63.0385 11.7819 62.8716L14.1289 61.2859C14.7156 60.7852 18.5713 60.7017 19.4095 60.9521C19.7448 61.0522 22.5576 62.1205 24.9416 62.1205C26.0313 62.1205 28.8812 61.0356 29.3003 60.7017C29.8595 60.2563 30.9767 60.3679 31.3958 60.2844L31.5634 60.201V60.0341L31.3958 59.9506H30.6414L29.9708 60.0341C29.0488 60.3401 27.2715 61.1358 26.8695 61.2859C26.1989 61.5363 23.1122 61.5798 22.93 61.5363C20.8345 61.0356 20.9554 60.1903 19.4933 60.1175C18.0225 60.0443 15.6485 59.8426 14.975 60.0197C16.0561 59.2189 21.6903 54.359 22.0079 54.359C22.427 54.359 27.0371 55.2161 29.3003 54.6094C29.8122 54.4722 32.8289 52.0291 33.3236 51.438C34.1618 50.4366 33.6023 50.6869 33.4074 50.8538C32.206 51.8831 29.3003 53.9417 28.965 54.0252C28.4908 54.1432 23.2652 54.0252 23.852 53.0237C24.4387 52.0222 35 42.5917 35 42.2579Z" fill="#194224"/>
<ellipse rx="2.00641" ry="1.32625" transform="matrix(-0.339853 0.940479 0.940479 0.339853 26.2041 44.9227)" fill="white" fill-opacity="0.45"/>
<ellipse rx="1.44245" ry="1.14305" transform="matrix(-0.785142 0.619316 0.619316 0.785142 28.4514 50.8504)" fill="white" fill-opacity="0.45"/>
<ellipse rx="1.33968" ry="0.97121" transform="matrix(0.137644 0.990482 0.990482 -0.137644 19.1845 50.5204)" fill="white" fill-opacity="0.45"/>
<ellipse rx="1.82823" ry="1.15876" transform="matrix(0.0278499 0.999612 0.999612 -0.0278499 13.4768 54.7376)" fill="white" fill-opacity="0.45"/>
<ellipse rx="1.56224" ry="1.15876" transform="matrix(0.999677 0.0254084 0.0254084 -0.999677 20.3998 57.562)" fill="white" fill-opacity="0.45"/>
<ellipse rx="1.02108" ry="0.757365" transform="matrix(0.540847 0.841121 0.841121 -0.540847 9.51253 58.2959)" fill="white" fill-opacity="0.45"/>
<ellipse rx="0.807953" ry="0.599281" transform="matrix(0.737595 0.675243 0.675243 -0.737595 7.04552 56.1895)" fill="white" fill-opacity="0.45"/>
<ellipse rx="1.24101" ry="0.920492" transform="matrix(0.258819 0.965926 0.965926 -0.258819 0.858762 50.1646)" fill="white" fill-opacity="0.45"/>
<ellipse rx="0.95442" ry="0.70792" transform="matrix(-0.106267 0.994338 0.994338 0.106267 8.07026 44.7713)" fill="white" fill-opacity="0.45"/>
<path d="M16.5225 58.4644C16.438 58.5501 16.3838 58.6338 16.4017 58.6514C16.4195 58.669 16.5025 58.6138 16.5871 58.5281C16.6717 58.4425 16.7258 58.3588 16.708 58.3412C16.6901 58.3236 16.6071 58.3788 16.5225 58.4644Z" fill="#9AC967"/>
<path d="M150.09 25.9581C147.893 24.6493 144.286 26.6351 144.196 26.7098C145.498 24.494 147.688 24.21 147.271 20.0627C147.123 19.0425 146.19 17.0723 147.258 14.3638C147.588 13.5588 149.919 11.8646 152.882 12.1608C155.121 12.3846 157.612 11.6903 158.653 10.978C159.284 10.2032 158.367 8.01679 155.617 8.915C152.562 10.3693 150.743 11.1091 149.063 11.2764C147.72 11.4102 148.492 9.94157 149.205 9.02823C149.872 8.17325 149.996 7.76667 152.32 4.47977C152.797 3.85722 155.5 3.43087 159.192 5.58556C161.248 7.46688 165.751 6.49254 162.609 3.83238C162.403 3.39289 154.447 3.98467 153.877 2.20553C153.442 0.849453 154.899 -1.5007 155.568 -2.23389C156.408 -3.15538 157.784 -4.77745 160.845 -3.46604C163.906 -2.15463 166.159 0.751821 167.212 1.86251C167.672 2.24371 168.702 2.74886 169.138 1.71987C169.573 0.690882 166.8 -1.50229 165.404 -2.50761C164.31 -3.2035 161.618 -2.88602 161.356 -4.42044C161.423 -6.75978 166.964 -8.97099 172.223 -7.52373C176.847 -5.55333 177.123 -3.66802 177.216 -3.42174C177.479 -2.72515 177.559 0.634396 176.9 1.40642C176.298 2.43554 176.026 3.49234 176.095 3.63883C176.161 3.81298 177.055 3.18149 178.109 2.61652C178.801 2.35049 180.225 2.24145 181.204 2.42312C182.261 2.61926 185.862 4.06169 186.738 9.42803C187.44 13.7211 185.501 17.0967 184.444 18.2479C183.9 18.6963 182.822 19.175 182.856 17.5027C182.898 15.4122 181.412 11.1579 180.35 10.968C179.288 10.7781 178.857 11.0244 178.72 11.4754C178.596 11.882 179.053 13.1287 179.401 13.8058C179.36 13.6621 179.768 14.295 181.728 17.9764C183.766 21.6993 179.9 27.9479 176.173 27.8111C174.848 27.7624 175.359 26.5288 175.614 25.9119C176.645 23.9202 178.006 19.1127 175.21 15.8168C174.217 15.2149 172.386 14.9648 173.068 18.1165C173.191 19.3855 175.057 22.3371 174.149 26.4358C172.59 30.3857 166.351 30.4324 165.429 30.5078C164.507 30.5832 164.476 29.8244 164.516 29.6626C164.656 29.09 165.414 28.1602 165.785 27.7784C166.096 27.4583 167.617 25.2522 168.315 24.0929C169.211 22.0599 170.314 18.0591 167.562 18.3203C166.714 18.487 165.221 19.6114 166.036 22.7762C166.866 24.4512 165.891 29.2133 160.573 30.0224C159.462 30.3303 156.976 30.2495 158.261 29.0374C160.073 27.5428 162.813 24.0796 161.386 21.0544C161.403 20.8884 160.078 20.002 160.167 23.2785C160.378 26.9864 157.24 29.2705 154.664 28.4265C153.929 28.1855 152.286 27.2669 150.09 25.9581Z" fill="#69A02E" stroke="#486D20"/>
<path d="M149.662 22.9541C147.624 24.4115 144.289 26.603 144.199 26.6777C145.488 24.4626 147.651 24.1764 147.244 20.0336C147.1 19.0146 146.18 17.0474 147.239 14.3403C147.565 13.5358 149.869 11.8406 152.796 12.1331C155.008 12.3542 157.468 11.6577 158.497 10.9449C159.122 10.1702 158.218 7.98694 155.501 8.8874C152.482 10.3437 150.684 11.0848 149.025 11.2539C147.698 11.3892 148.462 9.92105 149.167 9.0078C149.827 8.1529 149.95 7.74658 152.249 4.46025C152.722 3.83777 155.392 3.40877 159.036 5.55716C161.065 7.4343 165.514 6.4558 162.413 3.80181C162.211 3.36299 154.351 3.96322 153.79 2.18648C153.362 0.832219 154.804 -1.51728 155.465 -2.25052C156.296 -3.17206 157.657 -4.7941 160.679 -3.48745C163.701 -2.1808 165.923 0.720243 166.962 1.82865C167.416 2.20895 168.433 2.71244 168.865 1.68396C169.296 0.655488 166.559 -1.53238 165.181 -2.53514C164.101 -3.2291 161.442 -2.90887 161.185 -4.44149C161.254 -6.77862 166.73 -8.99396 171.923 -7.55409C176.488 -5.59086 176.819 -3.72312 176.85 -3.46178C177.475 1.79105 176.37 1.34576 176.337 1.67731C175.73 4.46302 171.633 8.4905 159.374 16.1392C154.77 19.0117 155.763 18.5915 149.662 22.9541Z" fill="black" fill-opacity="0.28"/>
<path d="M145.319 25.5256C156.858 18.6272 159.033 15.5736 158.741 15.9638C158.835 19.2442 157.644 23.5704 155.835 25.6542C156.744 24.9902 157.953 23.0142 157.953 23.0142C158.744 21.8352 159.035 18.9287 159.692 15.7234C159.909 15.2418 164.044 12.6357 164.203 13.5742C164.188 17.0953 163.174 23.8715 162.582 24.735C161.399 26.4619 160.698 26.9856 160.49 27.1259C159.948 27.4911 160.814 27.1666 161.282 26.7857C162.382 25.8892 163.227 25.5935 164.14 20.9486C164.997 16.589 164.679 14.7121 165.187 13.0015C165.366 12.3988 165.576 12.2267 165.879 11.9803C166.52 11.4574 169.447 9.1498 169.572 9.58169C169.672 9.9272 169.451 11.6125 169.723 12.2807C170.4 13.9419 170.95 17.0331 170.911 18.1027C170.861 19.4397 170.051 22.4702 169.929 22.8692C169.679 23.6829 168.904 25.5346 169.238 25.5679C169.571 25.6013 170.496 22.2549 170.796 21.7816C171.096 21.3084 171.428 18.8254 171.469 18.4102C171.536 17.7458 170.728 13.1752 170.675 12.879C170.566 12.2811 170.433 10.2404 170.456 10.0056C170.489 9.67338 170.739 8.02086 171.306 8.2453C171.873 8.46974 175.378 12.1749 175.979 12.9059C176.265 13.2539 177.944 16.3052 178.033 17.6403C178.1 18.6535 177.985 21.4937 178.185 21.1782L178.417 18.853C178.467 18.3547 178.265 15.3151 176.93 13.5042C175.735 11.8834 172.857 7.89709 172.79 7.72267C172.683 7.44142 172.814 5.79601 173.298 6.01211C173.782 6.22822 175.77 7.25919 176.343 7.57453C176.902 7.882 178.62 8.38923 179.496 8.89614C180.523 9.58581 182.2 11.347 182.559 11.97C183.045 12.8146 183.361 14.9018 183.403 15.3254C183.444 15.7489 183.552 14.7629 183.56 13.7476C183.568 12.8258 183.81 12.9338 182.658 10.9735C181.455 8.92508 178.286 7.51713 177.794 7.38406C177.39 7.27469 174.432 5.62222 174.449 5.45614C174.466 5.29005 175.227 4.86288 175.6 4.90016C176.017 4.94184 179.939 5.2701 180.27 5.36698C181.58 5.74949 182.86 6.70701 182.99 6.813C183.223 7.0041 184.216 8.02594 184.3 8.03427C184.467 8.05095 184.283 7.3616 183.991 6.91304C183.763 6.56277 183.632 6.29006 182.839 5.79148C182.047 5.29291 181.471 5.15151 180.82 4.91874C180.17 4.68596 179.761 4.56124 179.428 4.5279L177.759 4.36118L176.258 4.21113C176.058 4.19112 176.328 3.9665 176.75 3.50542C181.226 -1.38707 190.394 -13.3312 189.368 -14.0208C189.126 -14.1289 188.751 -13.747 188.651 -13.5893C186.61 -9.73947 179.284 0.907038 176.574 2.73303C174.247 4.30137 175.307 3.61284 175.43 -0.149099C175.446 -1.71312 175.329 -2.50764 172.559 -5.13294C172.262 -5.41422 171.058 -5.75422 171.333 -5.50711C172.209 -4.72061 173.884 -2.95688 174.137 -2.37522C174.821 -0.797087 174.03 2.0594 174.448 3.77861C174.618 4.47768 173.732 5.04894 173.665 4.87452C172.811 3.86657 171.236 1.36076 171.127 -0.914744C171.376 -2.56726 163.782 -5.80938 163.752 -5.50997C163.727 -5.26084 164.216 -5.1001 164.377 -5.02806C166.26 -4.19689 170.07 -1.97647 170.251 0.255876C170.433 2.48822 172.789 5.20637 172.697 5.28108C172.664 5.61325 171.899 6.52647 171.539 6.75886C171.179 6.99126 167.765 3.78163 166.107 2.10624C165.302 1.29255 163.097 -0.308211 157.866 -0.562642C155.277 -0.284583 155.765 0.233809 156.365 0.126074C158.934 -0.288187 161.908 0.585161 162.37 0.726268C164.005 1.22516 166.892 4.36539 168.06 5.32086C169.696 6.65851 170.738 7.1821 170.472 7.32317L167.979 8.66758C167.345 9.10748 163.5 8.80707 162.691 8.47458C162.367 8.34159 159.675 6.99891 157.302 6.76181C156.218 6.65344 153.275 7.44957 152.824 7.74006C152.224 8.12768 151.123 7.90551 150.698 7.94687L150.523 8.01325L150.506 8.17933L150.665 8.27905L151.415 8.35407L152.091 8.33771C153.039 8.12492 154.886 7.50989 155.301 7.40051C155.993 7.21806 159.069 7.48171 159.246 7.54317C161.281 8.24983 161.077 9.07885 162.525 9.29668C163.981 9.51581 166.323 9.95262 167.011 9.84339C165.855 10.5327 159.766 14.8081 159.45 14.7766C159.033 14.7349 154.531 13.4236 152.218 13.8022C151.695 13.8878 148.451 16.0187 147.9 16.5577C146.966 17.4708 147.548 17.2774 147.758 17.1307C149.056 16.2259 152.152 14.4665 152.494 14.4168C152.978 14.3465 158.165 14.9837 157.482 15.9218C156.799 16.86 145.352 25.1935 145.319 25.5256Z" fill="#194224"/>
<ellipse rx="2.00641" ry="1.32625" transform="matrix(0.4317 -0.902017 -0.902017 -0.4317 154.336 23.7485)" fill="white" fill-opacity="0.45"/>
<ellipse rx="1.44245" ry="1.14305" transform="matrix(0.842841 -0.538162 -0.538162 -0.842841 152.689 17.6275)" fill="white" fill-opacity="0.45"/>
<ellipse rx="1.33968" ry="0.97121" transform="matrix(-0.0384564 -0.99926 -0.99926 0.0384564 161.877 18.8774)" fill="white" fill-opacity="0.45"/>
<ellipse rx="1.82823" ry="1.15876" transform="matrix(0.0717012 -0.997426 -0.997426 -0.0717012 167.976 15.2487)" fill="white" fill-opacity="0.45"/>
<ellipse rx="1.56224" ry="1.15876" transform="matrix(-0.992194 -0.124702 -0.124702 0.992194 161.369 11.7498)" fill="white" fill-opacity="0.45"/>
<ellipse rx="1.02108" ry="0.757365" transform="matrix(-0.922061 -0.387044 -0.387044 0.922061 169.705 4.79239)" fill="white" fill-opacity="0.45"/>
<ellipse rx="1.02108" ry="0.757365" transform="matrix(-0.454515 -0.890739 -0.890739 0.454515 172.275 12.1017)" fill="white" fill-opacity="0.45"/>
<ellipse rx="0.807953" ry="0.599281" transform="matrix(-0.666785 -0.74525 -0.74525 0.666785 174.521 14.443)" fill="white" fill-opacity="0.45"/>
<ellipse rx="1.24101" ry="0.920492" transform="matrix(-0.161473 -0.986877 -0.986877 0.161473 180.077 21.0538)" fill="white" fill-opacity="0.45"/>
<ellipse rx="1.24101" ry="0.920492" transform="matrix(-0.949452 -0.313912 -0.313912 0.949452 181.389 8.27346)" fill="white" fill-opacity="0.45"/>
<ellipse rx="1.24101" ry="0.920492" transform="matrix(-0.419844 -0.907596 -0.907596 0.419844 172.996 0.558954)" fill="white" fill-opacity="0.45"/>
<ellipse rx="0.95442" ry="0.70792" transform="matrix(0.204629 -0.97884 -0.97884 -0.204629 172.365 25.7031)" fill="white" fill-opacity="0.45"/>
<path d="M165.317 11.2374C165.409 11.1605 165.471 11.0826 165.455 11.0634C165.439 11.0441 165.351 11.0907 165.259 11.1675C165.166 11.2444 165.104 11.3223 165.12 11.3416C165.136 11.3608 165.224 11.3142 165.317 11.2374Z" fill="#9AC967"/>
<path d="M150.09 25.9581C147.893 24.6493 144.286 26.6351 144.196 26.7098C145.498 24.494 147.688 24.21 147.271 20.0627C147.123 19.0425 146.19 17.0723 147.258 14.3638C147.588 13.5588 149.919 11.8646 152.882 12.1608C155.121 12.3846 157.612 11.6903 158.653 10.978C159.284 10.2032 158.367 8.01679 155.617 8.915C152.562 10.3693 150.743 11.1091 149.063 11.2764C147.72 11.4102 148.492 9.94157 149.205 9.02823C149.872 8.17325 149.996 7.76667 152.32 4.47977C152.797 3.85722 155.5 3.43087 159.192 5.58556C161.248 7.46688 165.751 6.49254 162.609 3.83238C162.403 3.39289 154.447 3.98467 153.877 2.20553C153.442 0.849453 154.899 -1.5007 155.568 -2.23389C156.408 -3.15538 157.784 -4.77745 160.845 -3.46604C163.906 -2.15463 166.159 0.751821 167.212 1.86251C167.672 2.24371 168.702 2.74886 169.138 1.71987C169.573 0.690882 166.8 -1.50229 165.404 -2.50761C164.31 -3.2035 161.618 -2.88602 161.356 -4.42044C161.423 -6.75978 166.964 -8.97099 172.223 -7.52373C176.847 -5.55333 177.123 -3.66802 177.216 -3.42174C177.479 -2.72515 177.559 0.634396 176.9 1.40642C176.298 2.43554 176.026 3.49234 176.095 3.63883C176.161 3.81298 177.055 3.18149 178.109 2.61652C178.801 2.35049 180.225 2.24145 181.204 2.42312C182.261 2.61926 185.862 4.06169 186.738 9.42803C187.44 13.7211 185.501 17.0967 184.444 18.2479C183.9 18.6963 182.822 19.175 182.856 17.5027C182.898 15.4122 181.412 11.1579 180.35 10.968C179.288 10.7781 178.857 11.0244 178.72 11.4754C178.596 11.882 179.053 13.1287 179.401 13.8058C179.36 13.6621 179.768 14.295 181.728 17.9764C183.766 21.6993 179.9 27.9479 176.173 27.8111C174.848 27.7624 175.359 26.5288 175.614 25.9119C176.645 23.9202 178.006 19.1127 175.21 15.8168C174.217 15.2149 172.386 14.9648 173.068 18.1165C173.191 19.3855 175.057 22.3371 174.149 26.4358C172.59 30.3857 166.351 30.4324 165.429 30.5078C164.507 30.5832 164.476 29.8244 164.516 29.6626C164.656 29.09 165.414 28.1602 165.785 27.7784C166.096 27.4583 167.617 25.2522 168.315 24.0929C169.211 22.0599 170.314 18.0591 167.562 18.3203C166.714 18.487 165.221 19.6114 166.036 22.7762C166.866 24.4512 165.891 29.2133 160.573 30.0224C159.462 30.3303 156.976 30.2495 158.261 29.0374C160.073 27.5428 162.813 24.0796 161.386 21.0544C161.403 20.8884 160.078 20.002 160.167 23.2785C160.378 26.9864 157.24 29.2705 154.664 28.4265C153.929 28.1855 152.286 27.2669 150.09 25.9581Z" fill="#69A02E" stroke="#486D20"/>
<path d="M149.662 22.9541C147.624 24.4115 144.289 26.603 144.199 26.6777C145.488 24.4626 147.651 24.1764 147.244 20.0336C147.1 19.0146 146.18 17.0474 147.239 14.3403C147.565 13.5358 149.869 11.8406 152.796 12.1331C155.008 12.3542 157.468 11.6577 158.497 10.9449C159.122 10.1702 158.218 7.98694 155.501 8.8874C152.482 10.3437 150.684 11.0848 149.025 11.2539C147.698 11.3892 148.462 9.92105 149.167 9.0078C149.827 8.1529 149.95 7.74658 152.249 4.46025C152.722 3.83777 155.392 3.40877 159.036 5.55716C161.065 7.4343 165.514 6.4558 162.413 3.80181C162.211 3.36299 154.351 3.96322 153.79 2.18648C153.362 0.832219 154.804 -1.51728 155.465 -2.25052C156.296 -3.17206 157.657 -4.7941 160.679 -3.48745C163.701 -2.1808 165.923 0.720243 166.962 1.82865C167.416 2.20895 168.433 2.71244 168.865 1.68396C169.296 0.655488 166.559 -1.53238 165.181 -2.53514C164.101 -3.2291 161.442 -2.90887 161.185 -4.44149C161.254 -6.77862 166.73 -8.99396 171.923 -7.55409C176.488 -5.59086 176.819 -3.72312 176.85 -3.46178C177.475 1.79105 176.37 1.34576 176.337 1.67731C175.73 4.46302 171.633 8.4905 159.374 16.1392C154.77 19.0117 155.763 18.5915 149.662 22.9541Z" fill="black" fill-opacity="0.28"/>
<path d="M145.319 25.5256C156.858 18.6272 159.033 15.5736 158.741 15.9638C158.835 19.2442 157.644 23.5704 155.835 25.6542C156.744 24.9902 157.953 23.0142 157.953 23.0142C158.744 21.8352 159.035 18.9287 159.692 15.7234C159.909 15.2418 164.044 12.6357 164.203 13.5742C164.188 17.0953 163.174 23.8715 162.582 24.735C161.399 26.4619 160.698 26.9856 160.49 27.1259C159.948 27.4911 160.814 27.1666 161.282 26.7857C162.382 25.8892 163.227 25.5935 164.14 20.9486C164.997 16.589 164.679 14.7121 165.187 13.0015C165.366 12.3988 165.576 12.2267 165.879 11.9803C166.52 11.4574 169.447 9.1498 169.572 9.58169C169.672 9.9272 169.451 11.6125 169.723 12.2807C170.4 13.9419 170.95 17.0331 170.911 18.1027C170.861 19.4397 170.051 22.4702 169.929 22.8692C169.679 23.6829 168.904 25.5346 169.238 25.5679C169.571 25.6013 170.496 22.2549 170.796 21.7816C171.096 21.3084 171.428 18.8254 171.469 18.4102C171.536 17.7458 170.728 13.1752 170.675 12.879C170.566 12.2811 170.433 10.2404 170.456 10.0056C170.489 9.67338 170.739 8.02086 171.306 8.2453C171.873 8.46974 175.378 12.1749 175.979 12.9059C176.265 13.2539 177.944 16.3052 178.033 17.6403C178.1 18.6535 177.985 21.4937 178.185 21.1782L178.417 18.853C178.467 18.3547 178.265 15.3151 176.93 13.5042C175.735 11.8834 172.857 7.89709 172.79 7.72267C172.683 7.44142 172.814 5.79601 173.298 6.01211C173.782 6.22822 175.77 7.25919 176.343 7.57453C176.902 7.882 178.62 8.38923 179.496 8.89614C180.523 9.58581 182.2 11.347 182.559 11.97C183.045 12.8146 183.361 14.9018 183.403 15.3254C183.444 15.7489 183.552 14.7629 183.56 13.7476C183.568 12.8258 183.81 12.9338 182.658 10.9735C181.455 8.92508 178.286 7.51713 177.794 7.38406C177.39 7.27469 174.432 5.62222 174.449 5.45614C174.466 5.29005 175.227 4.86288 175.6 4.90016C176.017 4.94184 179.939 5.2701 180.27 5.36698C181.58 5.74949 182.86 6.70701 182.99 6.813C183.223 7.0041 184.216 8.02594 184.3 8.03427C184.467 8.05095 184.283 7.3616 183.991 6.91304C183.763 6.56277 183.632 6.29006 182.839 5.79148C182.047 5.29291 181.471 5.15151 180.82 4.91874C180.17 4.68596 179.761 4.56124 179.428 4.5279L177.759 4.36118L176.258 4.21113C176.058 4.19112 176.328 3.9665 176.75 3.50542C181.226 -1.38707 190.394 -13.3312 189.368 -14.0208C189.126 -14.1289 188.751 -13.747 188.651 -13.5893C186.61 -9.73947 179.284 0.907038 176.574 2.73303C174.247 4.30137 175.307 3.61284 175.43 -0.149099C175.446 -1.71312 175.329 -2.50764 172.559 -5.13294C172.262 -5.41422 171.058 -5.75422 171.333 -5.50711C172.209 -4.72061 173.884 -2.95688 174.137 -2.37522C174.821 -0.797087 174.03 2.0594 174.448 3.77861C174.618 4.47768 173.732 5.04894 173.665 4.87452C172.811 3.86657 171.236 1.36076 171.127 -0.914744C171.376 -2.56726 163.782 -5.80938 163.752 -5.50997C163.727 -5.26084 164.216 -5.1001 164.377 -5.02806C166.26 -4.19689 170.07 -1.97647 170.251 0.255876C170.433 2.48822 172.789 5.20637 172.697 5.28108C172.664 5.61325 171.899 6.52647 171.539 6.75886C171.179 6.99126 167.765 3.78163 166.107 2.10624C165.302 1.29255 163.097 -0.308211 157.866 -0.562642C155.277 -0.284583 155.765 0.233809 156.365 0.126074C158.934 -0.288187 161.908 0.585161 162.37 0.726268C164.005 1.22516 166.892 4.36539 168.06 5.32086C169.696 6.65851 170.738 7.1821 170.472 7.32317L167.979 8.66758C167.345 9.10748 163.5 8.80707 162.691 8.47458C162.367 8.34159 159.675 6.99891 157.302 6.76181C156.218 6.65344 153.275 7.44957 152.824 7.74006C152.224 8.12768 151.123 7.90551 150.698 7.94687L150.523 8.01325L150.506 8.17933L150.665 8.27905L151.415 8.35407L152.091 8.33771C153.039 8.12492 154.886 7.50989 155.301 7.40051C155.993 7.21806 159.069 7.48171 159.246 7.54317C161.281 8.24983 161.077 9.07885 162.525 9.29668C163.981 9.51581 166.323 9.95262 167.011 9.84339C165.855 10.5327 159.766 14.8081 159.45 14.7766C159.033 14.7349 154.531 13.4236 152.218 13.8022C151.695 13.8878 148.451 16.0187 147.9 16.5577C146.966 17.4708 147.548 17.2774 147.758 17.1307C149.056 16.2259 152.152 14.4665 152.494 14.4168C152.978 14.3465 158.165 14.9837 157.482 15.9218C156.799 16.86 145.352 25.1935 145.319 25.5256Z" fill="#194224"/>
<ellipse rx="2.00641" ry="1.32625" transform="matrix(0.4317 -0.902017 -0.902017 -0.4317 154.336 23.7485)" fill="white" fill-opacity="0.45"/>
<ellipse rx="1.44245" ry="1.14305" transform="matrix(0.842841 -0.538162 -0.538162 -0.842841 152.689 17.6275)" fill="white" fill-opacity="0.45"/>
<ellipse rx="1.33968" ry="0.97121" transform="matrix(-0.0384564 -0.99926 -0.99926 0.0384564 161.877 18.8774)" fill="white" fill-opacity="0.45"/>
<ellipse rx="1.82823" ry="1.15876" transform="matrix(0.0717012 -0.997426 -0.997426 -0.0717012 167.976 15.2487)" fill="white" fill-opacity="0.45"/>
<ellipse rx="1.56224" ry="1.15876" transform="matrix(-0.992194 -0.124702 -0.124702 0.992194 161.369 11.7498)" fill="white" fill-opacity="0.45"/>
<ellipse rx="1.02108" ry="0.757365" transform="matrix(-0.922061 -0.387044 -0.387044 0.922061 169.705 4.79239)" fill="white" fill-opacity="0.45"/>
<ellipse rx="1.02108" ry="0.757365" transform="matrix(-0.454515 -0.890739 -0.890739 0.454515 172.275 12.1017)" fill="white" fill-opacity="0.45"/>
<ellipse rx="0.807953" ry="0.599281" transform="matrix(-0.666785 -0.74525 -0.74525 0.666785 174.521 14.443)" fill="white" fill-opacity="0.45"/>
<ellipse rx="1.24101" ry="0.920492" transform="matrix(-0.161473 -0.986877 -0.986877 0.161473 180.077 21.0538)" fill="white" fill-opacity="0.45"/>
<ellipse rx="1.24101" ry="0.920492" transform="matrix(-0.949452 -0.313912 -0.313912 0.949452 181.389 8.27346)" fill="white" fill-opacity="0.45"/>
<ellipse rx="1.24101" ry="0.920492" transform="matrix(-0.419844 -0.907596 -0.907596 0.419844 172.996 0.558954)" fill="white" fill-opacity="0.45"/>
<ellipse rx="0.95442" ry="0.70792" transform="matrix(0.204629 -0.97884 -0.97884 -0.204629 172.365 25.7031)" fill="white" fill-opacity="0.45"/>
<path d="M165.317 11.2374C165.409 11.1605 165.471 11.0826 165.455 11.0634C165.439 11.0441 165.351 11.0907 165.259 11.1675C165.166 11.2444 165.104 11.3223 165.12 11.3416C165.136 11.3608 165.224 11.3142 165.317 11.2374Z" fill="#9AC967"/>
<path d="M26.5265 24.3633C25.6429 26.7629 28.2567 29.9441 28.3468 30.0194C25.9297 29.1459 25.2488 27.0455 21.2483 28.2161C20.2725 28.5482 18.507 29.8274 15.6484 29.2737C14.7966 29.0972 12.7036 27.1169 12.4511 24.1499C12.2603 21.9074 11.1209 19.5866 10.2296 18.694C9.35214 18.2152 7.37116 19.5183 8.75862 22.0567C10.7486 24.7928 11.8097 26.4458 12.2823 28.0659C12.6603 29.362 11.075 28.8724 10.0463 28.3392C9.08342 27.84 8.66104 27.793 5.00363 26.1119C4.30398 25.7563 3.38902 23.1778 4.82986 19.1535C6.30196 16.7868 4.51799 12.5389 2.47949 16.116C2.08517 16.3986 4.12658 24.1112 2.48228 24.9982C1.22897 25.6743 -1.34855 24.6735 -2.19196 24.1508C-3.25196 23.4939 -5.0989 22.439 -4.37134 19.1894C-3.64378 15.9397 -1.20005 13.1915 -0.301356 11.9529C-0.0111442 11.4301 0.296432 10.3247 -0.794963 10.0855C-1.88636 9.84636 -3.53348 12.975 -4.26566 14.5316C-4.74898 15.7349 -3.94304 18.3228 -5.40329 18.8621C-7.71532 19.2249 -10.9056 14.1835 -10.4477 8.74861C-9.35915 3.84116 -7.55646 3.22406 -7.33141 3.08751C-6.69488 2.70128 -3.40701 2.00642 -2.52718 2.51265C-1.40514 2.91525 -0.316407 2.98863 -0.184965 2.89442C-0.0258332 2.79787 -0.810692 2.03452 -1.55944 1.10207C-1.94784 0.47101 -2.3163 -0.908876 -2.31739 -1.90495C-2.31856 -2.9803 -1.56114 -6.78412 3.55325 -8.63058C7.64477 -10.1078 11.3188 -8.82101 12.6444 -7.99299C13.1849 -7.5409 13.8534 -6.56841 12.2032 -6.29516C10.1404 -5.95359 6.23108 -3.71159 6.23918 -2.6331C6.24728 -1.55461 6.56844 -1.17595 7.03703 -1.12373C7.45941 -1.07666 8.60103 -1.75491 9.20286 -2.22119C9.06908 -2.15447 9.61639 -2.67145 12.8759 -5.27322C16.1616 -7.96023 23.0135 -5.30577 23.5627 -1.61689C23.758 -0.305282 22.4515 -0.581497 21.7982 -0.719604C19.6513 -1.36704 14.6756 -1.82357 11.9486 1.52982C11.539 2.61618 11.6292 4.46249 14.6022 3.21333C15.8272 2.86004 18.3863 0.4839 22.582 0.624931C26.7508 1.43237 27.9414 7.5571 28.1847 8.44955C28.428 9.34201 27.6877 9.51147 27.5214 9.50217C26.9327 9.46925 25.8797 8.89475 25.4363 8.60042C25.0647 8.35375 22.6169 7.26309 21.3493 6.78986C19.1864 6.28213 15.051 5.9312 15.8129 8.58922C16.1322 9.39219 17.5114 10.6529 20.4731 9.27183C21.9673 8.1485 26.8275 8.23299 28.5985 13.3122C29.1051 14.3482 29.4817 16.8066 28.0544 15.7659C26.2527 14.2589 22.3455 12.2006 19.6334 14.1581C19.4673 14.1722 18.8389 15.6369 22.0437 14.9492C25.6498 14.0612 28.4709 16.7266 28.1137 19.4134C28.0117 20.1803 27.4101 21.9637 26.5265 24.3633Z" fill="#69A02E" stroke="#486D20"/>
<path d="M23.6519 25.3349C25.4585 27.071 28.2245 29.9471 28.3145 30.0215C25.9005 29.161 25.2222 27.087 21.2244 28.2471C20.2492 28.5761 18.4842 29.8414 15.6288 29.2972C14.778 29.1237 12.6889 27.1697 12.4395 24.2393C12.2511 22.0245 11.115 19.7333 10.2255 18.8524C9.34927 18.3804 7.3689 19.6694 8.75259 22.1754C10.7381 24.876 11.7965 26.5078 12.2671 28.1075C12.6435 29.3873 11.0601 28.9053 10.033 28.3796C9.07148 27.8875 8.64954 27.8414 4.99723 26.1845C4.29858 25.834 3.38699 23.2879 4.83037 19.3115C6.30337 16.9725 4.52521 12.7783 2.48518 16.3135C2.09095 16.593 4.12296 24.2091 2.47936 25.0869C1.22658 25.756 -1.34753 24.7699 -2.18963 24.2544C-3.24799 23.6065 -5.09216 22.5664 -4.36214 19.3559C-3.63212 16.1454 -1.18804 13.4285 -0.288998 12.2041C0.00144628 11.6875 0.309802 10.5954 -0.780326 10.3602C-1.87045 10.125 -3.51905 13.2169 -4.25204 14.7551C-4.73607 15.9442 -3.9334 18.4995 -5.39279 19.0337C-7.70298 19.3942 -10.8854 14.4177 -10.4226 9.04901C-9.33034 4.20066 -7.55499 3.53276 -7.30379 3.45427C-2.25468 1.87674 -2.4897 3.0446 -2.1577 3.01635C0.692059 3.1018 5.40285 6.39045 15.1708 17.0378C18.8391 21.0363 18.2439 20.1378 23.6519 25.3349Z" fill="black" fill-opacity="0.28"/>
<path d="M26.9765 29.1322C18.0781 19.0544 14.6772 17.4763 15.1144 17.6915C18.3219 16.9979 22.7931 17.3745 25.1734 18.7703C24.3539 17.9988 22.1897 17.1735 22.1897 17.1735C20.8855 16.6115 17.9751 16.8592 14.7035 16.8011C14.1904 16.6765 10.8698 13.0895 11.7632 12.7611C15.2274 12.1298 22.0746 11.8836 23.032 12.3068C24.9467 13.1534 25.5901 13.746 25.7661 13.9249C26.2246 14.3906 25.7467 13.5984 25.2864 13.2086C24.2032 12.2913 23.7576 11.5155 19.0241 11.4702C14.5813 11.4277 12.7945 12.0844 11.0198 11.899C10.3945 11.8336 10.1868 11.6585 9.88903 11.4063C9.25719 10.8713 6.45192 8.41804 6.85348 8.21562C7.17474 8.05369 8.87192 7.96167 9.47894 7.57159C10.9878 6.60195 13.9256 5.4939 14.9843 5.33651C16.3077 5.13977 19.4353 5.37998 19.85 5.42718C20.6958 5.52345 22.6581 5.94532 22.6297 5.61125C22.6013 5.27718 19.1421 4.98269 18.6218 4.77459C18.1016 4.56649 15.5998 4.69527 15.184 4.73065C14.5188 4.78727 10.1738 6.41965 9.89259 6.52691C9.32471 6.74348 7.34313 7.2486 7.10793 7.26862C6.7753 7.29693 5.10507 7.35494 5.22164 6.75616C5.3382 6.15738 8.33751 2.03249 8.9459 1.30773C9.23548 0.962758 11.9269 -1.24792 13.2231 -1.57994C14.2068 -1.83189 17.0199 -2.23953 16.673 -2.37826L14.3446 -2.18012C13.8457 -2.13766 10.8947 -1.3818 9.35954 0.263056C7.98548 1.73527 4.59477 5.29529 4.43556 5.39296C4.17885 5.55045 2.53719 5.72276 2.66086 5.20749C2.78453 4.69223 3.43331 2.54899 3.63812 1.92766C3.83784 1.32181 4.02121 -0.46038 4.35881 -1.41446C4.84851 -2.54973 6.27211 -4.52158 6.81867 -4.98871C7.55962 -5.62197 9.55358 -6.31504 9.96226 -6.43394C10.3709 -6.55284 9.38195 -6.47721 8.38229 -6.29949C7.47468 -6.13813 7.53652 -6.39576 5.8208 -4.90379C4.02798 -3.34477 3.22519 0.0279747 3.18467 0.53616C3.15137 0.953885 2.06953 4.16422 1.90321 4.17837C1.7369 4.19252 1.17736 3.52275 1.14557 3.14925C1.11003 2.73166 0.713181 -1.18393 0.747564 -1.52776C0.883317 -2.88528 1.58968 -4.31962 1.6701 -4.46645C1.81509 -4.73116 2.63741 -5.89473 2.63031 -5.97825C2.61609 -6.14529 1.97217 -5.83812 1.58481 -5.46867C1.28234 -5.18017 1.03826 -5.00154 0.693552 -4.13098C0.348844 -3.26041 0.315439 -2.66871 0.205984 -1.98641C0.0965293 -1.30412 0.0489103 -0.879447 0.0773391 -0.545377L0.219484 1.12498L0.347415 2.62831C0.364473 2.82875 0.0941141 2.6045 -0.436526 2.27441C-6.06721 -1.22825 -19.4906 -8.04957 -19.9803 -6.9143C-20.0422 -6.65667 -19.5979 -6.35798 -19.4245 -6.28861C-15.2655 -4.98812 -3.45573 0.260019 -1.16361 2.58865C0.805088 4.5887 -0.0662344 3.67299 -3.78694 4.24198C-5.32734 4.51327 -6.08688 4.77419 -8.15939 7.97898C-8.38144 8.32236 -8.49466 9.56891 -8.30224 9.25298C-7.68983 8.24748 -6.2634 6.27699 -5.73791 5.92222C-4.31217 4.95966 -1.35906 5.21309 0.254307 4.48694C0.910347 4.19166 1.63455 4.95834 1.47535 5.05601C0.641182 6.08039 -1.5332 8.08809 -3.74998 8.61323C-5.42021 8.67124 -7.21401 16.7314 -6.91419 16.7059C-6.66472 16.6847 -6.59649 16.1741 -6.55526 16.0024C-6.08357 13.9994 -4.59988 9.84645 -2.43868 9.25874C-0.27747 8.67104 1.9622 5.85581 2.05247 5.93225C2.38509 5.90394 3.42319 6.48859 3.71772 6.80002C4.01225 7.11144 1.4834 11.0561 0.140579 12.993C-0.511592 13.9337 -1.68061 16.3952 -0.971021 21.584C-0.222762 24.0777 0.197426 23.5035 -0.0186373 22.9331C-0.897103 20.4841 -0.584235 17.4002 -0.53036 16.9198C-0.33988 15.2211 2.21735 11.8068 2.9423 10.4833C3.95724 8.63034 4.28062 7.50922 4.46825 7.74562L6.24722 9.94967C6.79591 10.4918 7.206 14.3266 7.02761 15.183C6.95625 15.5256 6.13035 18.4188 6.3325 20.7943C6.42489 21.88 7.74757 24.6276 8.11573 25.0169C8.60698 25.5363 8.5905 26.659 8.70919 27.0695L8.80656 27.2294L8.97287 27.2153L9.04182 27.0412L8.97785 26.2895L8.83784 25.6284C8.45475 24.7357 7.51118 23.0323 7.32753 22.6444C7.0212 21.9975 6.71608 18.9256 6.74402 18.7403C7.06527 16.6099 7.91772 16.6587 7.86627 15.1958C7.81452 13.7241 7.81419 11.3414 7.58065 10.6854C8.47025 11.6947 13.7903 16.8966 13.8173 17.213C13.8528 17.6306 13.3897 22.2968 14.1861 24.5003C14.3663 24.9987 17.0563 27.7975 17.6872 28.2403C18.7561 28.9906 18.4592 28.4542 18.2764 28.2743C17.1489 27.1645 14.8514 24.4437 14.7398 24.1167C14.582 23.6543 14.2565 18.4375 15.3041 18.9372C16.3517 19.4369 26.6438 29.1605 26.9765 29.1322Z" fill="#194224"/>
<ellipse rx="2.00641" ry="1.32625" transform="matrix(-0.965908 -0.258884 -0.258884 0.965908 23.5751 20.5946)" fill="white" fill-opacity="0.45"/>
<ellipse rx="1.44245" ry="1.14305" transform="matrix(-0.683659 -0.729801 -0.729801 0.683659 17.8603 23.3362)" fill="white" fill-opacity="0.45"/>
<ellipse rx="1.33968" ry="0.97121" transform="matrix(-0.975244 0.221133 0.221133 0.975244 17.4034 14.0745)" fill="white" fill-opacity="0.45"/>
<ellipse rx="1.82823" ry="1.15876" transform="matrix(-0.993651 0.112509 0.112509 0.993651 12.7171 8.74479)" fill="white" fill-opacity="0.45"/>
<ellipse rx="1.56224" ry="1.15876" transform="matrix(0.0594478 0.998231 0.998231 -0.0594478 10.4898 15.8822)" fill="white" fill-opacity="0.45"/>
<ellipse rx="1.02108" ry="0.757365" transform="matrix(-0.211309 0.977419 0.977419 0.211309 2.12118 8.96373)" fill="white" fill-opacity="0.45"/>
<ellipse rx="1.02108" ry="0.757365" transform="matrix(-0.792232 0.61022 0.61022 0.792232 8.83486 5.09614)" fill="white" fill-opacity="0.45"/>
<ellipse rx="0.807953" ry="0.599281" transform="matrix(-0.610269 0.792194 0.792194 0.610269 10.7239 2.45988)" fill="white" fill-opacity="0.45"/>
<ellipse rx="0.95442" ry="0.70792" transform="matrix(-0.999767 -0.0215726 -0.0215726 0.999767 22.1887 2.51334)" fill="white" fill-opacity="0.45"/>
<path d="M9.26159 12.0955C9.16907 12.0185 9.08107 11.9717 9.06505 11.9909C9.04903 12.0102 9.11104 12.0882 9.20357 12.1652C9.29609 12.2423 9.38408 12.2891 9.40011 12.2698C9.41613 12.2506 9.35411 12.1725 9.26159 12.0955Z" fill="#9AC967"/>
<path d="M26.5265 24.3633C25.6429 26.7629 28.2567 29.9441 28.3468 30.0194C25.9297 29.1459 25.2488 27.0455 21.2483 28.2161C20.2725 28.5482 18.507 29.8274 15.6484 29.2737C14.7966 29.0972 12.7036 27.1169 12.4511 24.1499C12.2603 21.9074 11.1209 19.5866 10.2296 18.694C9.35214 18.2152 7.37116 19.5183 8.75862 22.0567C10.7486 24.7928 11.8097 26.4458 12.2823 28.0659C12.6603 29.362 11.075 28.8724 10.0463 28.3392C9.08342 27.84 8.66104 27.793 5.00363 26.1119C4.30398 25.7563 3.38902 23.1778 4.82986 19.1535C6.30196 16.7868 4.51799 12.5389 2.47949 16.116C2.08517 16.3986 4.12658 24.1112 2.48228 24.9982C1.22897 25.6743 -1.34855 24.6735 -2.19196 24.1508C-3.25196 23.4939 -5.0989 22.439 -4.37134 19.1894C-3.64378 15.9397 -1.20005 13.1915 -0.301356 11.9529C-0.0111442 11.4301 0.296432 10.3247 -0.794963 10.0855C-1.88636 9.84636 -3.53348 12.975 -4.26566 14.5316C-4.74898 15.7349 -3.94304 18.3228 -5.40329 18.8621C-7.71532 19.2249 -10.9056 14.1835 -10.4477 8.74861C-9.35915 3.84116 -7.55646 3.22406 -7.33141 3.08751C-6.69488 2.70128 -3.40701 2.00642 -2.52718 2.51265C-1.40514 2.91525 -0.316407 2.98863 -0.184965 2.89442C-0.0258332 2.79787 -0.810692 2.03452 -1.55944 1.10207C-1.94784 0.47101 -2.3163 -0.908876 -2.31739 -1.90495C-2.31856 -2.9803 -1.56114 -6.78412 3.55325 -8.63058C7.64477 -10.1078 11.3188 -8.82101 12.6444 -7.99299C13.1849 -7.5409 13.8534 -6.56841 12.2032 -6.29516C10.1404 -5.95359 6.23108 -3.71159 6.23918 -2.6331C6.24728 -1.55461 6.56844 -1.17595 7.03703 -1.12373C7.45941 -1.07666 8.60103 -1.75491 9.20286 -2.22119C9.06908 -2.15447 9.61639 -2.67145 12.8759 -5.27322C16.1616 -7.96023 23.0135 -5.30577 23.5627 -1.61689C23.758 -0.305282 22.4515 -0.581497 21.7982 -0.719604C19.6513 -1.36704 14.6756 -1.82357 11.9486 1.52982C11.539 2.61618 11.6292 4.46249 14.6022 3.21333C15.8272 2.86004 18.3863 0.4839 22.582 0.624931C26.7508 1.43237 27.9414 7.5571 28.1847 8.44955C28.428 9.34201 27.6877 9.51147 27.5214 9.50217C26.9327 9.46925 25.8797 8.89475 25.4363 8.60042C25.0647 8.35375 22.6169 7.26309 21.3493 6.78986C19.1864 6.28213 15.051 5.9312 15.8129 8.58922C16.1322 9.39219 17.5114 10.6529 20.4731 9.27183C21.9673 8.1485 26.8275 8.23299 28.5985 13.3122C29.1051 14.3482 29.4817 16.8066 28.0544 15.7659C26.2527 14.2589 22.3455 12.2006 19.6334 14.1581C19.4673 14.1722 18.8389 15.6369 22.0437 14.9492C25.6498 14.0612 28.4709 16.7266 28.1137 19.4134C28.0117 20.1803 27.4101 21.9637 26.5265 24.3633Z" fill="#69A02E" stroke="#486D20"/>
<path d="M23.6519 25.3349C25.4585 27.071 28.2245 29.9471 28.3145 30.0215C25.9005 29.161 25.2222 27.087 21.2244 28.2471C20.2492 28.5761 18.4842 29.8414 15.6288 29.2972C14.778 29.1237 12.6889 27.1697 12.4395 24.2393C12.2511 22.0245 11.115 19.7333 10.2255 18.8524C9.34927 18.3804 7.3689 19.6694 8.75259 22.1754C10.7381 24.876 11.7965 26.5078 12.2671 28.1075C12.6435 29.3873 11.0601 28.9053 10.033 28.3796C9.07148 27.8875 8.64954 27.8414 4.99723 26.1845C4.29858 25.834 3.38699 23.2879 4.83037 19.3115C6.30337 16.9725 4.52521 12.7783 2.48518 16.3135C2.09095 16.593 4.12296 24.2091 2.47936 25.0869C1.22658 25.756 -1.34753 24.7699 -2.18963 24.2544C-3.24799 23.6065 -5.09216 22.5664 -4.36214 19.3559C-3.63212 16.1454 -1.18804 13.4285 -0.288998 12.2041C0.00144628 11.6875 0.309802 10.5954 -0.780326 10.3602C-1.87045 10.125 -3.51905 13.2169 -4.25204 14.7551C-4.73607 15.9442 -3.9334 18.4995 -5.39279 19.0337C-7.70298 19.3942 -10.8854 14.4177 -10.4226 9.04901C-9.33034 4.20066 -7.55499 3.53276 -7.30379 3.45427C-2.25468 1.87674 -2.4897 3.0446 -2.1577 3.01635C0.692059 3.1018 5.40285 6.39045 15.1708 17.0378C18.8391 21.0363 18.2439 20.1378 23.6519 25.3349Z" fill="black" fill-opacity="0.28"/>
<path d="M26.9765 29.1322C18.0781 19.0544 14.6772 17.4763 15.1144 17.6915C18.3219 16.9979 22.7931 17.3745 25.1734 18.7703C24.3539 17.9988 22.1897 17.1735 22.1897 17.1735C20.8855 16.6115 17.9751 16.8592 14.7035 16.8011C14.1904 16.6765 10.8698 13.0895 11.7632 12.7611C15.2274 12.1298 22.0746 11.8836 23.032 12.3068C24.9467 13.1534 25.5901 13.746 25.7661 13.9249C26.2246 14.3906 25.7467 13.5984 25.2864 13.2086C24.2032 12.2913 23.7576 11.5155 19.0241 11.4702C14.5813 11.4277 12.7945 12.0844 11.0198 11.899C10.3945 11.8336 10.1868 11.6585 9.88903 11.4063C9.25719 10.8713 6.45192 8.41804 6.85348 8.21562C7.17474 8.05369 8.87192 7.96167 9.47894 7.57159C10.9878 6.60195 13.9256 5.4939 14.9843 5.33651C16.3077 5.13977 19.4353 5.37998 19.85 5.42718C20.6958 5.52345 22.6581 5.94532 22.6297 5.61125C22.6013 5.27718 19.1421 4.98269 18.6218 4.77459C18.1016 4.56649 15.5998 4.69527 15.184 4.73065C14.5188 4.78727 10.1738 6.41965 9.89259 6.52691C9.32471 6.74348 7.34313 7.2486 7.10793 7.26862C6.7753 7.29693 5.10507 7.35494 5.22164 6.75616C5.3382 6.15738 8.33751 2.03249 8.9459 1.30773C9.23548 0.962758 11.9269 -1.24792 13.2231 -1.57994C14.2068 -1.83189 17.0199 -2.23953 16.673 -2.37826L14.3446 -2.18012C13.8457 -2.13766 10.8947 -1.3818 9.35954 0.263056C7.98548 1.73527 4.59477 5.29529 4.43556 5.39296C4.17885 5.55045 2.53719 5.72276 2.66086 5.20749C2.78453 4.69223 3.43331 2.54899 3.63812 1.92766C3.83784 1.32181 4.02121 -0.46038 4.35881 -1.41446C4.84851 -2.54973 6.27211 -4.52158 6.81867 -4.98871C7.55962 -5.62197 9.55358 -6.31504 9.96226 -6.43394C10.3709 -6.55284 9.38195 -6.47721 8.38229 -6.29949C7.47468 -6.13813 7.53652 -6.39576 5.8208 -4.90379C4.02798 -3.34477 3.22519 0.0279747 3.18467 0.53616C3.15137 0.953885 2.06953 4.16422 1.90321 4.17837C1.7369 4.19252 1.17736 3.52275 1.14557 3.14925C1.11003 2.73166 0.713181 -1.18393 0.747564 -1.52776C0.883317 -2.88528 1.58968 -4.31962 1.6701 -4.46645C1.81509 -4.73116 2.63741 -5.89473 2.63031 -5.97825C2.61609 -6.14529 1.97217 -5.83812 1.58481 -5.46867C1.28234 -5.18017 1.03826 -5.00154 0.693552 -4.13098C0.348844 -3.26041 0.315439 -2.66871 0.205984 -1.98641C0.0965293 -1.30412 0.0489103 -0.879447 0.0773391 -0.545377L0.219484 1.12498L0.347415 2.62831C0.364473 2.82875 0.0941141 2.6045 -0.436526 2.27441C-6.06721 -1.22825 -19.4906 -8.04957 -19.9803 -6.9143C-20.0422 -6.65667 -19.5979 -6.35798 -19.4245 -6.28861C-15.2655 -4.98812 -3.45573 0.260019 -1.16361 2.58865C0.805088 4.5887 -0.0662344 3.67299 -3.78694 4.24198C-5.32734 4.51327 -6.08688 4.77419 -8.15939 7.97898C-8.38144 8.32236 -8.49466 9.56891 -8.30224 9.25298C-7.68983 8.24748 -6.2634 6.27699 -5.73791 5.92222C-4.31217 4.95966 -1.35906 5.21309 0.254307 4.48694C0.910347 4.19166 1.63455 4.95834 1.47535 5.05601C0.641182 6.08039 -1.5332 8.08809 -3.74998 8.61323C-5.42021 8.67124 -7.21401 16.7314 -6.91419 16.7059C-6.66472 16.6847 -6.59649 16.1741 -6.55526 16.0024C-6.08357 13.9994 -4.59988 9.84645 -2.43868 9.25874C-0.27747 8.67104 1.9622 5.85581 2.05247 5.93225C2.38509 5.90394 3.42319 6.48859 3.71772 6.80002C4.01225 7.11144 1.4834 11.0561 0.140579 12.993C-0.511592 13.9337 -1.68061 16.3952 -0.971021 21.584C-0.222762 24.0777 0.197426 23.5035 -0.0186373 22.9331C-0.897103 20.4841 -0.584235 17.4002 -0.53036 16.9198C-0.33988 15.2211 2.21735 11.8068 2.9423 10.4833C3.95724 8.63034 4.28062 7.50922 4.46825 7.74562L6.24722 9.94967C6.79591 10.4918 7.206 14.3266 7.02761 15.183C6.95625 15.5256 6.13035 18.4188 6.3325 20.7943C6.42489 21.88 7.74757 24.6276 8.11573 25.0169C8.60698 25.5363 8.5905 26.659 8.70919 27.0695L8.80656 27.2294L8.97287 27.2153L9.04182 27.0412L8.97785 26.2895L8.83784 25.6284C8.45475 24.7357 7.51118 23.0323 7.32753 22.6444C7.0212 21.9975 6.71608 18.9256 6.74402 18.7403C7.06527 16.6099 7.91772 16.6587 7.86627 15.1958C7.81452 13.7241 7.81419 11.3414 7.58065 10.6854C8.47025 11.6947 13.7903 16.8966 13.8173 17.213C13.8528 17.6306 13.3897 22.2968 14.1861 24.5003C14.3663 24.9987 17.0563 27.7975 17.6872 28.2403C18.7561 28.9906 18.4592 28.4542 18.2764 28.2743C17.1489 27.1645 14.8514 24.4437 14.7398 24.1167C14.582 23.6543 14.2565 18.4375 15.3041 18.9372C16.3517 19.4369 26.6438 29.1605 26.9765 29.1322Z" fill="#194224"/>
<ellipse rx="2.00641" ry="1.32625" transform="matrix(-0.965908 -0.258884 -0.258884 0.965908 23.5751 20.5946)" fill="white" fill-opacity="0.45"/>
<ellipse rx="1.44245" ry="1.14305" transform="matrix(-0.683659 -0.729801 -0.729801 0.683659 17.8603 23.3362)" fill="white" fill-opacity="0.45"/>
<ellipse rx="1.33968" ry="0.97121" transform="matrix(-0.975244 0.221133 0.221133 0.975244 17.4034 14.0745)" fill="white" fill-opacity="0.45"/>
<ellipse rx="1.82823" ry="1.15876" transform="matrix(-0.993651 0.112509 0.112509 0.993651 12.7171 8.74479)" fill="white" fill-opacity="0.45"/>
<ellipse rx="1.56224" ry="1.15876" transform="matrix(0.0594478 0.998231 0.998231 -0.0594478 10.4898 15.8822)" fill="white" fill-opacity="0.45"/>
<ellipse rx="1.02108" ry="0.757365" transform="matrix(-0.211309 0.977419 0.977419 0.211309 2.12118 8.96373)" fill="white" fill-opacity="0.45"/>
<ellipse rx="1.02108" ry="0.757365" transform="matrix(-0.792232 0.61022 0.61022 0.792232 8.83486 5.09614)" fill="white" fill-opacity="0.45"/>
<ellipse rx="0.807953" ry="0.599281" transform="matrix(-0.610269 0.792194 0.792194 0.610269 10.7239 2.45988)" fill="white" fill-opacity="0.45"/>
<ellipse rx="0.95442" ry="0.70792" transform="matrix(-0.999767 -0.0215726 -0.0215726 0.999767 22.1887 2.51334)" fill="white" fill-opacity="0.45"/>
<path d="M9.26159 12.0955C9.16907 12.0185 9.08107 11.9717 9.06505 11.9909C9.04903 12.0102 9.11104 12.0882 9.20357 12.1652C9.29609 12.2423 9.38408 12.2891 9.40011 12.2698C9.41613 12.2506 9.35411 12.1725 9.26159 12.0955Z" fill="#9AC967"/>
<path d="M157.076 44.2562C158.528 42.1511 156.786 38.4206 156.717 38.3252C158.842 39.7715 158.98 41.9753 163.146 41.8347C164.173 41.7553 166.201 40.9545 168.833 42.2006C169.614 42.5832 171.15 45.0211 170.658 47.9579C170.286 50.1775 170.813 52.7086 171.455 53.7946C172.186 54.4762 174.428 53.7058 173.715 50.9024C172.466 47.7578 171.849 45.8931 171.794 44.2064C171.749 42.8571 173.163 43.725 174.027 44.4969C174.836 45.2195 175.234 45.37 178.359 47.9066C178.949 48.4247 179.195 51.1497 176.8 54.6902C174.786 56.6172 175.459 61.1751 178.322 58.2162C178.774 58.0404 178.712 50.0624 180.525 49.6114C181.907 49.2677 184.155 50.8772 184.842 51.593C185.706 52.4925 187.233 53.9729 185.722 56.9402C184.21 59.9074 181.16 61.9627 179.982 62.9394C179.571 63.3738 178.999 64.3682 179.997 64.8708C180.994 65.3735 183.367 62.7518 184.463 61.4258C185.23 60.3802 185.091 57.6733 186.64 57.5134C188.97 57.7361 190.808 63.4117 189.015 68.5627C186.742 73.0462 184.843 73.1963 184.591 73.2727C183.878 73.4888 180.521 73.3455 179.794 72.6367C178.807 71.9681 177.771 71.6267 177.62 71.6853C177.442 71.7393 178.013 72.6736 178.507 73.7628C178.726 74.4705 178.74 75.8987 178.494 76.8638C178.228 77.9058 176.55 81.4024 171.137 81.9211C166.807 82.3361 163.568 80.1774 162.489 79.0461C162.078 78.474 161.672 77.366 163.338 77.511C165.421 77.6924 169.765 76.4913 170.025 75.4446C170.285 74.3978 170.068 73.9513 169.627 73.7843C169.229 73.6339 167.955 74.0074 167.256 74.3097C167.402 74.2782 166.744 74.6431 162.94 76.3541C159.09 78.1411 153.112 73.8684 153.496 70.1587C153.633 68.8396 154.83 69.4316 155.428 69.7276C157.347 70.8879 162.054 72.5656 165.528 69.9943C166.194 69.0437 166.565 67.2328 163.375 67.7047C162.101 67.7427 159.032 69.409 155.003 68.2306C151.165 66.4133 151.532 60.1847 151.518 59.2598C151.504 58.3349 152.263 58.3546 152.422 58.4049C152.984 58.5829 153.862 59.4009 154.218 59.7961C154.517 60.1273 156.617 61.7916 157.728 62.5648C159.697 63.5937 163.615 64.9605 163.537 62.1965C163.427 61.3394 162.404 59.7757 159.193 60.3781C157.466 61.0952 152.779 59.8066 152.325 54.4467C152.091 53.3173 152.337 50.8424 153.461 52.205C154.832 54.1121 158.106 57.0761 161.219 55.8534C161.384 55.8809 162.356 54.6181 159.081 54.4886C155.367 54.4534 153.296 51.1709 154.31 48.6569C154.599 47.9394 155.624 46.3612 157.076 44.2562Z" fill="#69A02E" stroke="#486D20"/>
<path d="M160.102 44.0276C158.783 41.8973 156.818 38.4244 156.749 38.3301C158.874 39.763 159.016 41.9404 163.176 41.8093C164.203 41.7328 166.227 40.9455 168.858 42.1815C169.639 42.5609 171.177 44.9724 170.691 47.873C170.324 50.0652 170.855 52.5668 171.498 53.6409C172.23 54.3157 174.468 53.5588 173.75 50.7878C172.497 47.6787 171.877 45.8352 171.819 44.1687C171.772 42.8356 173.186 43.6956 174.05 44.4599C174.859 45.1753 175.257 45.3247 178.383 47.8367C178.973 48.3497 179.224 51.0424 176.838 54.5358C174.831 56.4359 175.512 60.9402 178.366 58.0223C178.817 57.8494 178.74 49.9672 180.55 49.5251C181.929 49.188 184.178 50.7824 184.866 51.4909C185.73 52.3812 187.258 53.8467 185.754 56.7754C184.25 59.7041 181.207 61.729 180.033 62.6918C179.623 63.1201 179.053 64.1015 180.051 64.6C181.048 65.0985 183.413 62.5127 184.505 61.2047C185.269 60.1731 185.126 57.4985 186.672 57.3434C189 57.5678 190.847 63.1786 189.065 68.2643C186.803 72.6896 184.918 72.8958 184.655 72.9094C179.372 73.1838 179.89 72.1109 179.561 72.0558C176.822 71.2655 173.075 66.9101 166.257 54.1708C163.697 49.3866 164.05 50.4048 160.102 44.0276Z" fill="black" fill-opacity="0.28"/>
<path d="M157.824 39.5241C163.941 51.4957 166.843 53.8689 166.473 53.5519C163.194 53.4273 158.956 51.9522 156.997 50.0092C157.6 50.96 159.491 52.2968 159.491 52.2968C160.615 53.165 163.496 53.6478 166.65 54.5164C167.116 54.7645 169.442 59.0637 168.495 59.16C164.983 58.9114 158.289 57.4497 157.467 56.8019C155.822 55.5065 155.346 54.7727 155.22 54.5557C154.892 53.9907 155.158 54.8768 155.507 55.3686C156.328 56.5262 156.567 57.3883 161.141 58.6076C165.435 59.7519 167.328 59.5594 169.001 60.1797C169.591 60.3983 169.749 60.6195 169.975 60.9377C170.454 61.6129 172.562 64.6858 172.123 64.7822C171.771 64.8593 170.104 64.527 169.42 64.7542C167.717 65.3188 164.596 65.6627 163.532 65.5522C162.201 65.4142 159.231 64.4049 158.841 64.2562C158.045 63.953 156.249 63.0571 156.194 63.3877C156.139 63.7184 159.416 64.8626 159.869 65.1933C160.321 65.5241 162.776 66.0206 163.188 66.0895C163.846 66.1999 168.46 65.6975 168.76 65.6634C169.363 65.5946 171.408 65.5974 171.641 65.6364C171.97 65.6916 173.603 66.0501 173.341 66.6012C173.08 67.1523 169.15 70.4032 168.381 70.9542C168.014 71.2165 164.858 72.6896 163.52 72.6894C162.505 72.6892 159.679 72.3856 159.98 72.6061L162.285 72.9923C162.779 73.0751 165.825 73.0756 167.721 71.8635C169.417 70.7785 173.586 68.1719 173.764 68.1169C174.052 68.028 175.685 68.2688 175.437 68.7372C175.189 69.2056 174.029 71.1206 173.676 71.6716C173.332 72.2089 172.712 73.8898 172.148 74.7301C171.392 75.7083 169.523 77.2649 168.878 77.5817C168.003 78.0111 165.899 78.1874 165.474 78.2011C165.048 78.2148 166.025 78.3871 167.038 78.4631C167.957 78.5322 167.833 78.7664 169.865 77.7472C171.989 76.6821 173.604 73.6144 173.77 73.1322C173.906 72.7358 175.751 69.8946 175.916 69.9222C176.08 69.9498 176.456 70.7375 176.394 71.1072C176.325 71.5206 175.737 75.4121 175.618 75.7366C175.15 77.0179 174.109 78.2319 173.995 78.3542C173.789 78.5746 172.703 79.4975 172.689 79.5802C172.662 79.7455 173.362 79.6079 173.829 79.3462C174.193 79.1418 174.474 79.0294 175.024 78.2717C175.574 77.514 175.753 76.9491 176.029 76.3153C176.304 75.6816 176.456 75.2821 176.511 74.9514L176.788 73.298L177.038 71.81C177.071 71.6116 177.277 71.896 177.709 72.3475C182.294 77.1386 193.603 87.0794 194.359 86.1012C194.483 85.867 194.127 85.4674 193.976 85.3571C190.271 83.0647 180.134 75.0485 178.492 72.2236C177.081 69.7974 177.698 70.9008 181.443 71.2735C183.003 71.3932 183.803 71.329 186.607 68.7392C186.907 68.4617 187.326 67.2823 187.061 67.5406C186.218 68.3625 184.347 69.9171 183.75 70.1303C182.13 70.7087 179.333 69.7299 177.589 70.0327C176.881 70.1559 176.369 69.2334 176.548 69.1783C177.61 68.3931 180.215 66.9882 182.493 67.0299C184.125 67.3885 187.864 60.0261 187.567 59.9764C187.32 59.935 187.128 60.4126 187.045 60.5688C186.091 62.3919 183.622 66.0464 181.383 66.079C179.143 66.1117 176.275 68.2826 176.206 68.1862C175.877 68.131 175.017 67.3069 174.809 66.9321C174.601 66.5573 178.03 63.3641 179.812 61.8213C180.677 61.072 182.421 58.9779 183.022 53.7753C182.916 51.174 182.366 51.6258 182.434 52.2321C182.677 54.8224 181.608 57.7321 181.437 58.1841C180.83 59.7823 177.505 62.4547 176.475 63.5567C175.031 65.0996 174.44 66.1053 174.317 65.8298L173.141 63.253C172.744 62.5916 173.299 58.7751 173.684 57.9898C173.838 57.6757 175.357 55.0782 175.751 52.7269C175.931 51.6522 175.332 48.6622 175.072 48.1937C174.725 47.5685 175.02 46.4852 175.007 46.058L174.952 45.8789L174.787 45.8513L174.677 46.0029L174.553 46.7469L174.524 47.422C174.674 48.3819 175.165 50.2663 175.246 50.6876C175.382 51.3903 174.915 54.4418 174.842 54.6143C174.002 56.5983 173.188 56.3393 172.875 57.7692C172.56 59.2077 171.968 61.5158 172.032 62.2092C171.42 61.0106 167.559 54.6507 167.611 54.3375C167.68 53.9241 169.288 49.5191 169.063 47.1868C169.013 46.6593 167.102 43.2802 166.601 42.6946C165.751 41.7024 165.906 42.2957 166.038 42.5154C166.855 43.8704 168.405 47.0764 168.432 47.4209C168.47 47.908 167.49 53.0423 166.599 52.2981C165.708 51.5539 158.153 39.5792 157.824 39.5241Z" fill="#194224"/>
<ellipse rx="2.00641" ry="1.32625" transform="matrix(0.871376 0.490615 0.490615 -0.871376 158.999 48.6393)" fill="white" fill-opacity="0.45"/>
<ellipse rx="1.44245" ry="1.14305" transform="matrix(0.481036 0.876701 0.876701 -0.481036 165.216 47.4022)" fill="white" fill-opacity="0.45"/>
<ellipse rx="1.33968" ry="0.97121" transform="matrix(0.999609 0.0279495 0.0279495 -0.999609 163.358 56.4875)" fill="white" fill-opacity="0.45"/>
<ellipse rx="1.56224" ry="1.15876" transform="matrix(0.190279 -0.98173 -0.98173 -0.190279 170.504 56.4528)" fill="white" fill-opacity="0.45"/>
<path d="M157.076 44.2562C158.528 42.1511 156.786 38.4206 156.717 38.3252C158.842 39.7715 158.98 41.9753 163.146 41.8347C164.173 41.7553 166.201 40.9545 168.833 42.2006C169.614 42.5832 171.15 45.0211 170.658 47.9579C170.286 50.1775 170.813 52.7086 171.455 53.7946C172.186 54.4762 174.428 53.7058 173.715 50.9024C172.466 47.7578 171.849 45.8931 171.794 44.2064C171.749 42.8571 173.163 43.725 174.027 44.4969C174.836 45.2195 175.234 45.37 178.359 47.9066C178.949 48.4247 179.195 51.1497 176.8 54.6902C174.786 56.6172 175.459 61.1751 178.322 58.2162C178.774 58.0404 178.712 50.0624 180.525 49.6114C181.907 49.2677 184.155 50.8772 184.842 51.593C185.706 52.4925 187.233 53.9729 185.722 56.9402C184.21 59.9074 181.16 61.9627 179.982 62.9394C179.571 63.3738 178.999 64.3682 179.997 64.8708C180.994 65.3735 183.367 62.7518 184.463 61.4258C185.23 60.3802 185.091 57.6733 186.64 57.5134C188.97 57.7361 190.808 63.4117 189.015 68.5627C186.742 73.0462 184.843 73.1963 184.591 73.2727C183.878 73.4888 180.521 73.3455 179.794 72.6367C178.807 71.9681 177.771 71.6267 177.62 71.6853C177.442 71.7393 178.013 72.6736 178.507 73.7628C178.726 74.4705 178.74 75.8987 178.494 76.8638C178.228 77.9058 176.55 81.4024 171.137 81.9211C166.807 82.3361 163.568 80.1774 162.489 79.0461C162.078 78.474 161.672 77.366 163.338 77.511C165.421 77.6924 169.765 76.4913 170.025 75.4446C170.285 74.3978 170.068 73.9513 169.627 73.7843C169.229 73.6339 167.955 74.0074 167.256 74.3097C167.402 74.2782 166.744 74.6431 162.94 76.3541C159.09 78.1411 153.112 73.8684 153.496 70.1587C153.633 68.8396 154.83 69.4316 155.428 69.7276C157.347 70.8879 162.054 72.5656 165.528 69.9943C166.194 69.0437 166.565 67.2328 163.375 67.7047C162.101 67.7427 159.032 69.409 155.003 68.2306C151.165 66.4133 151.532 60.1847 151.518 59.2598C151.504 58.3349 152.263 58.3546 152.422 58.4049C152.984 58.5829 153.862 59.4009 154.218 59.7961C154.517 60.1273 156.617 61.7916 157.728 62.5648C159.697 63.5937 163.615 64.9605 163.537 62.1965C163.427 61.3394 162.404 59.7757 159.193 60.3781C157.466 61.0952 152.779 59.8066 152.325 54.4467C152.091 53.3173 152.337 50.8424 153.461 52.205C154.832 54.1121 158.106 57.0761 161.219 55.8534C161.384 55.8809 162.356 54.6181 159.081 54.4886C155.367 54.4534 153.296 51.1709 154.31 48.6569C154.599 47.9394 155.624 46.3612 157.076 44.2562Z" fill="#69A02E" stroke="#486D20"/>
<path d="M160.102 44.0276C158.783 41.8973 156.818 38.4244 156.749 38.3301C158.874 39.763 159.016 41.9404 163.176 41.8093C164.203 41.7328 166.227 40.9455 168.858 42.1815C169.639 42.5609 171.177 44.9724 170.691 47.873C170.324 50.0652 170.855 52.5668 171.498 53.6409C172.23 54.3157 174.468 53.5588 173.75 50.7878C172.497 47.6787 171.877 45.8352 171.819 44.1687C171.772 42.8356 173.186 43.6956 174.05 44.4599C174.859 45.1753 175.257 45.3247 178.383 47.8367C178.973 48.3497 179.224 51.0424 176.838 54.5358C174.831 56.4359 175.512 60.9402 178.366 58.0223C178.817 57.8494 178.74 49.9672 180.55 49.5251C181.929 49.188 184.178 50.7824 184.866 51.4909C185.73 52.3812 187.258 53.8467 185.754 56.7754C184.25 59.7041 181.207 61.729 180.033 62.6918C179.623 63.1201 179.053 64.1015 180.051 64.6C181.048 65.0985 183.413 62.5127 184.505 61.2047C185.269 60.1731 185.126 57.4985 186.672 57.3434C189 57.5678 190.847 63.1786 189.065 68.2643C186.803 72.6896 184.918 72.8958 184.655 72.9094C179.372 73.1838 179.89 72.1109 179.561 72.0558C176.822 71.2655 173.075 66.9101 166.257 54.1708C163.697 49.3866 164.05 50.4048 160.102 44.0276Z" fill="black" fill-opacity="0.28"/>
<path d="M157.824 39.5241C163.941 51.4957 166.843 53.8689 166.473 53.5519C163.194 53.4273 158.956 51.9522 156.997 50.0092C157.6 50.96 159.491 52.2968 159.491 52.2968C160.615 53.165 163.496 53.6478 166.65 54.5164C167.116 54.7645 169.442 59.0637 168.495 59.16C164.983 58.9114 158.289 57.4497 157.467 56.8019C155.822 55.5065 155.346 54.7727 155.22 54.5557C154.892 53.9907 155.158 54.8768 155.507 55.3686C156.328 56.5262 156.567 57.3883 161.141 58.6076C165.435 59.7519 167.328 59.5594 169.001 60.1797C169.591 60.3983 169.749 60.6195 169.975 60.9377C170.454 61.6129 172.562 64.6858 172.123 64.7822C171.771 64.8593 170.104 64.527 169.42 64.7542C167.717 65.3188 164.596 65.6627 163.532 65.5522C162.201 65.4142 159.231 64.4049 158.841 64.2562C158.045 63.953 156.249 63.0571 156.194 63.3877C156.139 63.7184 159.416 64.8626 159.869 65.1933C160.321 65.5241 162.776 66.0206 163.188 66.0895C163.846 66.1999 168.46 65.6975 168.76 65.6634C169.363 65.5946 171.408 65.5974 171.641 65.6364C171.97 65.6916 173.603 66.0501 173.341 66.6012C173.08 67.1523 169.15 70.4032 168.381 70.9542C168.014 71.2165 164.858 72.6896 163.52 72.6894C162.505 72.6892 159.679 72.3856 159.98 72.6061L162.285 72.9923C162.779 73.0751 165.825 73.0756 167.721 71.8635C169.417 70.7785 173.586 68.1719 173.764 68.1169C174.052 68.028 175.685 68.2688 175.437 68.7372C175.189 69.2056 174.029 71.1206 173.676 71.6716C173.332 72.2089 172.712 73.8898 172.148 74.7301C171.392 75.7083 169.523 77.2649 168.878 77.5817C168.003 78.0111 165.899 78.1874 165.474 78.2011C165.048 78.2148 166.025 78.3871 167.038 78.4631C167.957 78.5322 167.833 78.7664 169.865 77.7472C171.989 76.6821 173.604 73.6144 173.77 73.1322C173.906 72.7358 175.751 69.8946 175.916 69.9222C176.08 69.9498 176.456 70.7375 176.394 71.1072C176.325 71.5206 175.737 75.4121 175.618 75.7366C175.15 77.0179 174.109 78.2319 173.995 78.3542C173.789 78.5746 172.703 79.4975 172.689 79.5802C172.662 79.7455 173.362 79.6079 173.829 79.3462C174.193 79.1418 174.474 79.0294 175.024 78.2717C175.574 77.514 175.753 76.9491 176.029 76.3153C176.304 75.6816 176.456 75.2821 176.511 74.9514L176.788 73.298L177.038 71.81C177.071 71.6116 177.277 71.896 177.709 72.3475C182.294 77.1386 193.603 87.0794 194.359 86.1012C194.483 85.867 194.127 85.4674 193.976 85.3571C190.271 83.0647 180.134 75.0485 178.492 72.2236C177.081 69.7974 177.698 70.9008 181.443 71.2735C183.003 71.3932 183.803 71.329 186.607 68.7392C186.907 68.4617 187.326 67.2823 187.061 67.5406C186.218 68.3625 184.347 69.9171 183.75 70.1303C182.13 70.7087 179.333 69.7299 177.589 70.0327C176.881 70.1559 176.369 69.2334 176.548 69.1783C177.61 68.3931 180.215 66.9882 182.493 67.0299C184.125 67.3885 187.864 60.0261 187.567 59.9764C187.32 59.935 187.128 60.4126 187.045 60.5688C186.091 62.3919 183.622 66.0464 181.383 66.079C179.143 66.1117 176.275 68.2826 176.206 68.1862C175.877 68.131 175.017 67.3069 174.809 66.9321C174.601 66.5573 178.03 63.3641 179.812 61.8213C180.677 61.072 182.421 58.9779 183.022 53.7753C182.916 51.174 182.366 51.6258 182.434 52.2321C182.677 54.8224 181.608 57.7321 181.437 58.1841C180.83 59.7823 177.505 62.4547 176.475 63.5567C175.031 65.0996 174.44 66.1053 174.317 65.8298L173.141 63.253C172.744 62.5916 173.299 58.7751 173.684 57.9898C173.838 57.6757 175.357 55.0782 175.751 52.7269C175.931 51.6522 175.332 48.6622 175.072 48.1937C174.725 47.5685 175.02 46.4852 175.007 46.058L174.952 45.8789L174.787 45.8513L174.677 46.0029L174.553 46.7469L174.524 47.422C174.674 48.3819 175.165 50.2663 175.246 50.6876C175.382 51.3903 174.915 54.4418 174.842 54.6143C174.002 56.5983 173.188 56.3393 172.875 57.7692C172.56 59.2077 171.968 61.5158 172.032 62.2092C171.42 61.0106 167.559 54.6507 167.611 54.3375C167.68 53.9241 169.288 49.5191 169.063 47.1868C169.013 46.6593 167.102 43.2802 166.601 42.6946C165.751 41.7024 165.906 42.2957 166.038 42.5154C166.855 43.8704 168.405 47.0764 168.432 47.4209C168.47 47.908 167.49 53.0423 166.599 52.2981C165.708 51.5539 158.153 39.5792 157.824 39.5241Z" fill="#194224"/>
<ellipse rx="2.00641" ry="1.32625" transform="matrix(0.871376 0.490615 0.490615 -0.871376 158.999 48.6393)" fill="white" fill-opacity="0.45"/>
<ellipse rx="1.44245" ry="1.14305" transform="matrix(0.481036 0.876701 0.876701 -0.481036 165.216 47.4022)" fill="white" fill-opacity="0.45"/>
<ellipse rx="1.33968" ry="0.97121" transform="matrix(0.999609 0.0279495 0.0279495 -0.999609 163.358 56.4875)" fill="white" fill-opacity="0.45"/>
<ellipse rx="1.56224" ry="1.15876" transform="matrix(0.190279 -0.98173 -0.98173 -0.190279 170.504 56.4528)" fill="white" fill-opacity="0.45"/>
</g>
<defs>
<clipPath id="clip0_407_362">
<rect width="180" height="60" fill="white"/>
</clipPath>
</defs>
</svg>
