<svg width="133" height="155" viewBox="0 0 133 155" fill="none" xmlns="http://www.w3.org/2000/svg">
<ellipse cx="65.5" cy="63" rx="64.5" ry="63" fill="#D2D0B9" fill-opacity="0.3"/>
<path d="M101.054 98.4974L66.4294 90.3748C66.4294 90.3748 29.11 117.425 30.5274 98.4974C31.9447 79.5696 48.7216 65.3537 67.9995 66.7454C107.054 69.5627 101.054 98.4974 101.054 98.4974Z" fill="#D2D0B9"/>
<path d="M58.8927 107.74C50.3973 111.148 70.8024 115.504 75.6401 114.109C80.4779 112.714 82.6154 123.433 76.4117 102.689C73.4412 92.7567 63.7425 76.0937 42.1334 67.9985C20.5243 59.9032 7.98724 42.7031 3.80914 43.3791C1.90485 43.6872 13.7234 57.5357 23.26 65.5826C32.7966 73.6295 67.3881 104.331 58.8927 107.74Z" fill="#644026"/>
<path d="M83.6645 100.752C92.4968 98.3934 79.0419 114.017 74.3503 115.794C84.2733 104.309 74.598 127.356 66.6744 107.185C62.8804 97.527 60.2475 78.5126 72.3415 59.2011C84.4356 39.8896 83.7168 18.7565 87.4417 16.8023C89.1394 15.9117 88.3534 33.9549 85.7841 46.0305C83.2148 58.1062 74.8321 103.11 83.6645 100.752Z" fill="#644026"/>
<path d="M82.6826 95.7167C80.4405 102.174 75.6164 107.869 72.1073 106.695C68.5981 105.52 69.3834 99.9023 69.9748 91.4633C74.2578 79.1277 92.175 55.1395 109.393 46.1487C126.611 37.1579 124.445 30.8143 129.155 30.1156C133.864 29.4169 115.672 52.5899 106.964 60.2484C98.2564 67.9068 85.9042 86.4382 82.6826 95.7167Z" fill="#644026"/>
<path d="M45.8903 97.0184C48.8565 117.101 51.043 110.481 61.4149 114.719C71.7867 118.957 72.7721 112.29 69.7709 95.7325C59.9177 41.3648 41.9237 57.0985 23.2516 21.8431C12.8798 17.6055 59.2778 84.3609 45.8903 97.0184Z" fill="#644026"/>
<path d="M109.97 102.702C109.97 130.75 98.2503 153 64.5016 153C33.0952 153 19.0337 130.481 19.0337 102.702C18.0955 83.8382 36.8451 89.1582 64.9704 91.5763C90.0816 91.5763 110.906 81.9037 109.97 102.702Z" fill="#644026"/>
</svg>
