<svg width="476" height="140" viewBox="0 0 476 140" fill="none" xmlns="http://www.w3.org/2000/svg">
<g clip-path="url(#clip0_391_28)">
<path d="M58.8917 93.9024C50.3963 97.374 70.8014 101.81 75.6391 100.389C80.4769 98.969 82.6144 109.886 76.4107 88.7582C73.4402 78.642 63.7415 61.6708 42.1324 53.4258C20.5233 45.1809 7.98627 27.6626 3.80816 28.3511C1.90388 28.6649 13.7224 42.7695 23.2591 50.9652C32.7957 59.161 67.3871 90.4309 58.8917 93.9024Z" fill="#F5F5F5"/>
<path d="M83.6635 86.7846C92.4958 84.3828 79.041 100.296 74.3493 102.105C84.2724 90.4079 74.597 113.882 66.6734 93.3374C62.8795 83.5003 60.2465 64.1342 72.3406 44.4655C84.4347 24.7968 83.7158 3.27276 87.4407 1.2825C89.1385 0.375381 88.3524 18.7523 85.7831 31.0513C83.2138 43.3504 74.8311 89.1863 83.6635 86.7846Z" fill="#F5F5F5"/>
<path d="M82.6816 81.658C80.4395 88.235 75.6155 94.0353 72.1063 92.8391C68.5971 91.6428 69.3824 85.9209 69.9738 77.3259C74.2568 64.7621 92.174 40.3302 109.392 31.1731C126.61 22.016 124.444 15.5551 129.154 14.8434C133.863 14.1317 115.671 37.7335 106.963 45.5336C98.2554 53.3337 85.9032 72.2078 82.6816 81.658Z" fill="#F5F5F5"/>
<path d="M45.8894 82.9821C48.8555 103.436 51.042 96.694 61.4139 101.01C71.7858 105.326 72.7712 98.5362 69.7699 81.6724C59.9168 26.2991 41.9227 42.3238 23.2507 6.4163C12.8788 2.10027 59.2769 70.0905 45.8894 82.9821Z" fill="#F5F5F5"/>
<path d="M109.97 88.9165C109.97 117.403 98.2503 140 64.5016 140C33.0952 140 19.0337 117.129 19.0337 88.9165C18.0955 69.7575 36.8451 75.1606 64.9704 77.6165C90.0816 77.6165 110.906 67.7929 109.97 88.9165Z" fill="#F5F5F5"/>
<rect x="174" y="32" width="4" height="84" fill="#F5F5F5"/>
<path d="M252.4 66V44.85L244.75 60.25H240.25L232.6 44.85V66H224.4V30.5H233.3L242.5 49.05L251.75 30.5H260.6V66H252.4ZM276.368 30.5H285.218L297.418 66H289.018L286.268 58.05H275.218L272.518 66H264.118L276.368 30.5ZM284.918 52.4L280.768 38.75L276.518 52.4H284.918ZM300.914 66V30.5H314.164C318.064 30.5 321.314 31.3 323.914 32.9C326.547 34.4667 328.53 36.6 329.864 39.3C331.197 41.9667 331.864 44.9333 331.864 48.2C331.864 51.8 331.13 54.9333 329.664 57.6C328.197 60.2667 326.13 62.3333 323.464 63.8C320.83 65.2667 317.73 66 314.164 66H300.914ZM323.514 48.2C323.514 46.1333 323.147 44.3167 322.414 42.75C321.68 41.15 320.614 39.9167 319.214 39.05C317.814 38.15 316.13 37.7 314.164 37.7H309.114V58.8H314.164C316.164 58.8 317.847 58.35 319.214 57.45C320.614 56.5167 321.68 55.25 322.414 53.65C323.147 52.0167 323.514 50.2 323.514 48.2ZM361.655 58.8V66H336.705V30.5H361.205V37.7H344.905V44.6H358.905V51.25H344.905V58.8H361.655ZM366.636 66V30.5H374.836V66H366.636ZM381.627 66V30.5H397.627C399.293 30.5 400.827 30.85 402.227 31.55C403.66 32.2167 404.893 33.1333 405.927 34.3C406.96 35.4333 407.76 36.7167 408.327 38.15C408.927 39.5833 409.227 41.0333 409.227 42.5C409.227 43.9667 408.993 45.3667 408.527 46.7C408.06 48 407.393 49.1833 406.527 50.25C405.66 51.2833 404.627 52.1333 403.427 52.8L411.227 66H402.177L395.377 54.55H389.827V66H381.627ZM389.827 47.4H397.327C397.993 47.4 398.577 47.2 399.077 46.8C399.61 46.3667 400.043 45.7833 400.377 45.05C400.71 44.3167 400.877 43.4667 400.877 42.5C400.877 41.5333 400.677 40.7 400.277 40C399.91 39.2667 399.443 38.7 398.877 38.3C398.31 37.9 397.71 37.7 397.077 37.7H389.827V47.4ZM424.073 30.5H432.923L445.123 66H436.723L433.973 58.05H422.923L420.223 66H411.823L424.073 30.5ZM432.623 52.4L428.473 38.75L424.223 52.4H432.623ZM233.35 89.5H242.2L254.4 125H246L243.25 117.05H232.2L229.5 125H221.1L233.35 89.5ZM241.9 111.4L237.75 97.75L233.5 111.4H241.9ZM257.896 125V89.5H273.896C275.563 89.5 277.096 89.85 278.496 90.55C279.929 91.2167 281.163 92.1333 282.196 93.3C283.229 94.4333 284.029 95.7167 284.596 97.15C285.196 98.5833 285.496 100.033 285.496 101.5C285.496 102.967 285.263 104.367 284.796 105.7C284.329 107 283.663 108.183 282.796 109.25C281.929 110.283 280.896 111.133 279.696 111.8L287.496 125H278.446L271.646 113.55H266.096V125H257.896ZM266.096 106.4H273.596C274.263 106.4 274.846 106.2 275.346 105.8C275.879 105.367 276.313 104.783 276.646 104.05C276.979 103.317 277.146 102.467 277.146 101.5C277.146 100.533 276.946 99.7 276.546 99C276.179 98.2667 275.713 97.7 275.146 97.3C274.579 96.9 273.979 96.7 273.346 96.7H266.096V106.4ZM318.003 96.7H307.203V125H299.003V96.7H288.153V89.5H318.003V96.7ZM322.007 125V89.5H330.207V125H322.007ZM328.707 87.15L323.607 85.75L326.207 79.25H333.457L328.707 87.15ZM358.298 99.9C358.198 99.7333 357.848 99.4833 357.248 99.15C356.648 98.7833 355.898 98.4 354.998 98C354.098 97.6 353.114 97.25 352.048 96.95C350.981 96.65 349.914 96.5 348.848 96.5C347.448 96.5 346.364 96.75 345.598 97.25C344.831 97.7167 344.448 98.45 344.448 99.45C344.448 100.25 344.731 100.883 345.298 101.35C345.898 101.817 346.748 102.233 347.848 102.6C348.948 102.933 350.298 103.333 351.898 103.8C354.164 104.4 356.131 105.133 357.798 106C359.464 106.833 360.731 107.917 361.598 109.25C362.498 110.583 362.948 112.35 362.948 114.55C362.948 116.55 362.581 118.25 361.848 119.65C361.114 121.017 360.114 122.133 358.848 123C357.614 123.833 356.198 124.45 354.598 124.85C352.998 125.217 351.348 125.4 349.648 125.4C347.914 125.4 346.131 125.233 344.298 124.9C342.498 124.533 340.764 124.033 339.098 123.4C337.431 122.733 335.898 121.933 334.498 121L338.098 113.85C338.231 114.017 338.664 114.333 339.398 114.8C340.131 115.233 341.031 115.7 342.098 116.2C343.198 116.667 344.414 117.083 345.748 117.45C347.081 117.817 348.431 118 349.798 118C351.264 118 352.348 117.767 353.048 117.3C353.781 116.833 354.148 116.183 354.148 115.35C354.148 114.45 353.764 113.75 352.998 113.25C352.264 112.75 351.248 112.3 349.948 111.9C348.681 111.5 347.214 111.05 345.548 110.55C343.381 109.883 341.581 109.133 340.148 108.3C338.748 107.467 337.698 106.45 336.998 105.25C336.331 104.05 335.998 102.55 335.998 100.75C335.998 98.25 336.581 96.15 337.748 94.45C338.948 92.7167 340.548 91.4167 342.548 90.55C344.548 89.65 346.731 89.2 349.098 89.2C350.764 89.2 352.364 89.4 353.898 89.8C355.464 90.2 356.914 90.7 358.248 91.3C359.614 91.9 360.831 92.5 361.898 93.1L358.298 99.9ZM394.809 96.7H384.009V125H375.809V96.7H364.959V89.5H394.809V96.7ZM398.814 125V89.5H407.014V125H398.814ZM411.754 106.95C411.754 104.783 412.154 102.667 412.954 100.6C413.754 98.5 414.921 96.6 416.454 94.9C417.988 93.2 419.854 91.85 422.054 90.85C424.254 89.8167 426.754 89.3 429.554 89.3C432.888 89.3 435.771 90.0167 438.204 91.45C440.671 92.8833 442.504 94.75 443.704 97.05L437.404 101.45C436.871 100.183 436.154 99.2 435.254 98.5C434.388 97.8 433.421 97.3167 432.354 97.05C431.321 96.75 430.321 96.6 429.354 96.6C427.788 96.6 426.421 96.9167 425.254 97.55C424.088 98.15 423.121 98.9667 422.354 100C421.588 101.033 421.021 102.183 420.654 103.45C420.288 104.717 420.104 105.983 420.104 107.25C420.104 108.65 420.321 110 420.754 111.3C421.188 112.6 421.804 113.75 422.604 114.75C423.438 115.75 424.438 116.55 425.604 117.15C426.771 117.717 428.054 118 429.454 118C430.454 118 431.471 117.833 432.504 117.5C433.538 117.167 434.488 116.65 435.354 115.95C436.254 115.217 436.938 114.267 437.404 113.1L444.104 117.05C443.404 118.783 442.254 120.267 440.654 121.5C439.054 122.733 437.238 123.683 435.204 124.35C433.204 124.983 431.221 125.3 429.254 125.3C426.688 125.3 424.321 124.783 422.154 123.75C420.021 122.683 418.171 121.283 416.604 119.55C415.071 117.783 413.871 115.817 413.004 113.65C412.171 111.45 411.754 109.217 411.754 106.95ZM456.641 89.5H465.491L477.691 125H469.291L466.541 117.05H455.491L452.791 125H444.391L456.641 89.5ZM465.191 111.4L461.041 97.75L456.791 111.4H465.191Z" fill="#F5F5F5"/>
</g>
<defs>
<clipPath id="clip0_391_28">
<rect width="476" height="140" fill="white"/>
</clipPath>
</defs>
</svg>
